M48
; DRILL file KiCad 10.0.5 date 2026-08-20T00:35:37
; FORMAT={-:-/ absolute / metric / decimal}
; #@! TF.CreationDate,2026-08-20T00:35:37+08:00
; #@! TF.GenerationSoftware,Kicad,Pcbnew,10.0.5
; #@! TF.FileFunction,Plated,1,4,PTH
FMAT,2
METRIC
; #@! TA.AperFunction,Plated,PTH,ViaDrill
T1C0.250
; #@! TA.AperFunction,Plated,PTH,ViaDrill
T2C0.300
; #@! TA.AperFunction,Plated,PTH,ViaDrill
T3C0.350
; #@! TA.AperFunction,Plated,PTH,ComponentDrill
T4C0.800
%
G90
G05
T1
X24.75Y-100.2
X27.75Y-100.2
X29.8Y-81.0
X30.2Y-67.0
X31.6Y-96.6
X31.8Y-104.35
X32.01Y-89.5
X32.4Y-100.05
X32.5Y-53.5
X33.7Y-98.5
X34.0Y-33.19
X35.0Y-30.0
X35.4Y-97.0
X36.2Y-102.4
X57.2Y-47.1
X57.7Y-47.6
X61.0Y-83.0
X63.0Y-80.0
T2
X23.65Y-31.4
X24.2Y-92.2
X25.0Y-80.0
X25.0Y-90.0
X26.4Y-83.2
X27.8Y-85.8
X27.8Y-88.0
X28.5Y-27.4
X29.8Y-87.8
X30.0Y-21.2
X30.0Y-30.0
X30.0Y-35.0
X30.0Y-64.2
X30.0Y-85.0
X30.2Y-61.8
X30.2Y-70.2
X30.4Y-73.0
X30.6Y-69.4
X30.6Y-71.8
X30.6Y-88.4
X30.8Y-60.8
X30.8Y-65.2
X30.8Y-89.8
X31.0Y-50.4
X31.0Y-52.4
X31.0Y-90.6
X32.8Y-66.4
X33.0Y-28.6
X33.0Y-30.4
X33.6Y-62.4
X33.6Y-84.0
X33.8Y-59.6
X33.8Y-68.4
X33.8Y-76.0
X34.0Y-34.2
X34.0Y-45.4
X34.2Y-51.6
X34.2Y-53.4
X34.2Y-81.95
X34.4Y-62.8
X35.0Y-40.0
X35.0Y-45.0
X35.0Y-70.0
X35.0Y-85.0
X35.6Y-31.0
X35.8Y-30.2
X36.2Y-25.6
X36.4Y-23.6
X37.0Y-22.4
X37.6Y-75.8
X39.6Y-27.8
X39.6Y-36.0
X39.6Y-92.0
X40.0Y-35.0
X40.0Y-55.0
X40.0Y-60.0
X40.0Y-65.0
X40.0Y-75.0
X40.0Y-80.0
X40.0Y-90.0
X40.0Y-100.0
X40.6Y-92.0
X40.8Y-92.8
X41.2Y-49.6
X41.2Y-53.2
X41.6Y-92.0
X42.6Y-49.6
X42.6Y-92.0
X43.0Y-91.2
X43.6Y-92.0
X44.0Y-48.2
X44.0Y-55.0
X44.0Y-86.4
X44.0Y-91.2
X44.6Y-92.0
X45.0Y-30.0
X45.0Y-40.0
X45.0Y-48.2
X45.0Y-55.0
X45.0Y-60.0
X45.0Y-70.0
X45.0Y-75.0
X45.0Y-80.0
X45.0Y-85.0
X45.0Y-91.2
X45.6Y-92.0
X46.0Y-47.2
X46.0Y-91.2
X46.6Y-92.0
X47.0Y-47.2
X47.0Y-91.2
X47.6Y-92.0
X47.8Y-38.2
X48.0Y-47.4
X48.0Y-50.0
X48.0Y-82.2
X49.6Y-53.0
X49.8Y-44.4
X49.8Y-49.2
X50.0Y-30.0
X50.0Y-35.0
X50.0Y-40.0
X51.6Y-92.0
X52.2Y-44.4
X52.2Y-87.2
X52.6Y-92.0
X53.2Y-93.0
X53.6Y-92.0
X54.6Y-42.0
X54.6Y-92.0
X55.0Y-60.0
X55.0Y-65.0
X55.0Y-70.0
X55.0Y-80.0
X55.0Y-100.0
X55.6Y-92.0
X56.2Y-92.8
X56.4Y-37.2
X56.4Y-38.4
X56.6Y-29.2
X56.6Y-32.0
X57.6Y-32.6
X58.0Y-29.6
X58.0Y-104.4
X58.8Y-35.2
X59.6Y-29.0
X60.0Y-30.0
X60.0Y-35.0
X60.0Y-75.0
X60.0Y-100.0
X60.4Y-84.0
X61.6Y-81.0
X62.6Y-84.6
X62.8Y-36.0
X62.8Y-82.8
X64.0Y-21.2
X64.0Y-86.0
X64.0Y-94.8
X64.2Y-91.6
X64.8Y-95.0
X65.0Y-30.0
X65.0Y-35.0
X65.0Y-45.0
X65.0Y-50.0
X65.0Y-55.2
X65.0Y-65.2
X65.0Y-70.0
X65.0Y-90.0
X65.4Y-48.8
X65.6Y-95.6
X66.4Y-66.2
X66.4Y-67.6
X66.4Y-78.6
X66.4Y-89.6
X67.0Y-49.4
X67.0Y-62.8
X67.2Y-64.2
X67.2Y-74.0
X67.6Y-93.6
X68.0Y-50.2
X68.0Y-95.6
X68.8Y-49.2
X68.8Y-77.2
X68.8Y-80.2
X69.4Y-73.2
X69.6Y-72.2
X70.0Y-30.0
X70.0Y-35.0
X70.0Y-40.0
X70.0Y-55.0
X70.0Y-85.0
X70.4Y-52.0
X70.4Y-68.4
X72.6Y-43.8
X72.8Y-30.0
X72.8Y-35.0
X73.0Y-46.2
T3
X22.2Y-89.59
X23.0Y-83.2
X23.6Y-104.2
X27.0Y-87.0
X27.0Y-88.8
X28.0Y-84.4
X28.4Y-81.2
X28.4Y-103.6
X28.91Y-94.4
X29.0Y-85.4
X29.021Y-80.05
X29.021Y-81.95
X29.6Y-89.6
X30.0Y-80.0
X30.2Y-77.6
X30.2Y-93.0
X30.3Y-75.75
X31.0Y-78.2
X33.6Y-31.6
X33.7Y-73.5
X34.4Y-32.2
X36.4Y-101.0
X36.5Y-73.5
X37.4Y-97.275
X37.8Y-95.5
X39.8Y-94.4
X48.6Y-92.0
X49.6Y-92.0
X50.0Y-91.0
X50.6Y-92.0
X51.0Y-91.0
X51.8Y-40.2
X55.2Y-94.4
X58.0Y-65.0
X59.2Y-80.8
X60.0Y-40.2
X60.2Y-79.8
X61.4Y-61.6
T4
G00X21.67Y-97.83
M15
G01X21.67Y-98.23
M16
G05
G00X21.67Y-101.86
M15
G01X21.67Y-102.56
M16
G05
G00X30.33Y-97.83
M15
G01X30.33Y-98.23
M16
G05
G00X30.33Y-101.86
M15
G01X30.33Y-102.56
M16
G05
M30
