%TF.GenerationSoftware,KiCad,Pcbnew,10.0.5*%
%TF.CreationDate,2026-08-20T00:35:38+08:00*%
%TF.ProjectId,the-card,7468652d-6361-4726-942e-6b696361645f,0.2.0*%
%TF.SameCoordinates,Original*%
%TF.FileFunction,Drillmap*%
%TF.FilePolarity,Positive*%
%FSLAX45Y45*%
G04 Gerber Fmt 4.5, Leading zero omitted, Abs format (unit mm)*
G04 Created by KiCad (PCBNEW 10.0.5) date 2026-08-20 00:35:38*
%MOMM*%
%LPD*%
G01*
G04 APERTURE LIST*
%ADD10C,0.050000*%
%ADD11C,0.200000*%
%ADD12C,0.100000*%
G04 APERTURE END LIST*
D10*
X2000000Y-2318000D02*
G75*
G02*
X2318000Y-2000000I318000J0D01*
G01*
X2000000Y-10242000D02*
X2000000Y-2318000D01*
X2318000Y-2000000D02*
X7080000Y-2000000D01*
X2318000Y-10560000D02*
G75*
G02*
X2000000Y-10242000I0J318000D01*
G01*
X7080000Y-2000000D02*
G75*
G02*
X7398000Y-2318000I0J-318000D01*
G01*
X7080000Y-10560000D02*
X2318000Y-10560000D01*
X7398000Y-2318000D02*
X7398000Y-10242000D01*
X7398000Y-10242000D02*
G75*
G02*
X7080000Y-10560000I-318000J0D01*
G01*
D11*
D12*
X2280000Y-10141000D02*
X2340000Y-10201000D01*
X2340000Y-10141000D02*
X2280000Y-10201000D01*
X2860000Y-10141000D02*
X2920000Y-10201000D01*
X2920000Y-10141000D02*
X2860000Y-10201000D01*
D11*
X2258277Y-10873984D02*
X2258277Y-10673984D01*
X2258277Y-10673984D02*
X2305896Y-10673984D01*
X2305896Y-10673984D02*
X2334467Y-10683508D01*
X2334467Y-10683508D02*
X2353515Y-10702555D01*
X2353515Y-10702555D02*
X2363039Y-10721603D01*
X2363039Y-10721603D02*
X2372563Y-10759698D01*
X2372563Y-10759698D02*
X2372563Y-10788270D01*
X2372563Y-10788270D02*
X2363039Y-10826365D01*
X2363039Y-10826365D02*
X2353515Y-10845412D01*
X2353515Y-10845412D02*
X2334467Y-10864460D01*
X2334467Y-10864460D02*
X2305896Y-10873984D01*
X2305896Y-10873984D02*
X2258277Y-10873984D01*
X2458277Y-10873984D02*
X2458277Y-10740650D01*
X2458277Y-10778746D02*
X2467801Y-10759698D01*
X2467801Y-10759698D02*
X2477324Y-10750174D01*
X2477324Y-10750174D02*
X2496372Y-10740650D01*
X2496372Y-10740650D02*
X2515420Y-10740650D01*
X2582086Y-10873984D02*
X2582086Y-10740650D01*
X2582086Y-10673984D02*
X2572563Y-10683508D01*
X2572563Y-10683508D02*
X2582086Y-10693031D01*
X2582086Y-10693031D02*
X2591610Y-10683508D01*
X2591610Y-10683508D02*
X2582086Y-10673984D01*
X2582086Y-10673984D02*
X2582086Y-10693031D01*
X2705896Y-10873984D02*
X2686848Y-10864460D01*
X2686848Y-10864460D02*
X2677324Y-10845412D01*
X2677324Y-10845412D02*
X2677324Y-10673984D01*
X2810658Y-10873984D02*
X2791610Y-10864460D01*
X2791610Y-10864460D02*
X2782086Y-10845412D01*
X2782086Y-10845412D02*
X2782086Y-10673984D01*
X3039229Y-10873984D02*
X3039229Y-10673984D01*
X3039229Y-10673984D02*
X3105896Y-10816841D01*
X3105896Y-10816841D02*
X3172562Y-10673984D01*
X3172562Y-10673984D02*
X3172562Y-10873984D01*
X3353515Y-10873984D02*
X3353515Y-10769222D01*
X3353515Y-10769222D02*
X3343991Y-10750174D01*
X3343991Y-10750174D02*
X3324943Y-10740650D01*
X3324943Y-10740650D02*
X3286848Y-10740650D01*
X3286848Y-10740650D02*
X3267801Y-10750174D01*
X3353515Y-10864460D02*
X3334467Y-10873984D01*
X3334467Y-10873984D02*
X3286848Y-10873984D01*
X3286848Y-10873984D02*
X3267801Y-10864460D01*
X3267801Y-10864460D02*
X3258277Y-10845412D01*
X3258277Y-10845412D02*
X3258277Y-10826365D01*
X3258277Y-10826365D02*
X3267801Y-10807317D01*
X3267801Y-10807317D02*
X3286848Y-10797793D01*
X3286848Y-10797793D02*
X3334467Y-10797793D01*
X3334467Y-10797793D02*
X3353515Y-10788270D01*
X3448753Y-10740650D02*
X3448753Y-10940650D01*
X3448753Y-10750174D02*
X3467801Y-10740650D01*
X3467801Y-10740650D02*
X3505896Y-10740650D01*
X3505896Y-10740650D02*
X3524943Y-10750174D01*
X3524943Y-10750174D02*
X3534467Y-10759698D01*
X3534467Y-10759698D02*
X3543991Y-10778746D01*
X3543991Y-10778746D02*
X3543991Y-10835889D01*
X3543991Y-10835889D02*
X3534467Y-10854936D01*
X3534467Y-10854936D02*
X3524943Y-10864460D01*
X3524943Y-10864460D02*
X3505896Y-10873984D01*
X3505896Y-10873984D02*
X3467801Y-10873984D01*
X3467801Y-10873984D02*
X3448753Y-10864460D01*
X3629705Y-10854936D02*
X3639229Y-10864460D01*
X3639229Y-10864460D02*
X3629705Y-10873984D01*
X3629705Y-10873984D02*
X3620182Y-10864460D01*
X3620182Y-10864460D02*
X3629705Y-10854936D01*
X3629705Y-10854936D02*
X3629705Y-10873984D01*
X3629705Y-10750174D02*
X3639229Y-10759698D01*
X3639229Y-10759698D02*
X3629705Y-10769222D01*
X3629705Y-10769222D02*
X3620182Y-10759698D01*
X3620182Y-10759698D02*
X3629705Y-10750174D01*
X3629705Y-10750174D02*
X3629705Y-10769222D01*
D12*
X1937500Y-11172500D02*
X1997500Y-11232500D01*
X1997500Y-11172500D02*
X1937500Y-11232500D01*
D11*
X2296372Y-11093984D02*
X2315420Y-11093984D01*
X2315420Y-11093984D02*
X2334467Y-11103508D01*
X2334467Y-11103508D02*
X2343991Y-11113031D01*
X2343991Y-11113031D02*
X2353515Y-11132079D01*
X2353515Y-11132079D02*
X2363039Y-11170174D01*
X2363039Y-11170174D02*
X2363039Y-11217793D01*
X2363039Y-11217793D02*
X2353515Y-11255888D01*
X2353515Y-11255888D02*
X2343991Y-11274936D01*
X2343991Y-11274936D02*
X2334467Y-11284460D01*
X2334467Y-11284460D02*
X2315420Y-11293984D01*
X2315420Y-11293984D02*
X2296372Y-11293984D01*
X2296372Y-11293984D02*
X2277324Y-11284460D01*
X2277324Y-11284460D02*
X2267801Y-11274936D01*
X2267801Y-11274936D02*
X2258277Y-11255888D01*
X2258277Y-11255888D02*
X2248753Y-11217793D01*
X2248753Y-11217793D02*
X2248753Y-11170174D01*
X2248753Y-11170174D02*
X2258277Y-11132079D01*
X2258277Y-11132079D02*
X2267801Y-11113031D01*
X2267801Y-11113031D02*
X2277324Y-11103508D01*
X2277324Y-11103508D02*
X2296372Y-11093984D01*
X2448753Y-11274936D02*
X2458277Y-11284460D01*
X2458277Y-11284460D02*
X2448753Y-11293984D01*
X2448753Y-11293984D02*
X2439229Y-11284460D01*
X2439229Y-11284460D02*
X2448753Y-11274936D01*
X2448753Y-11274936D02*
X2448753Y-11293984D01*
X2629705Y-11093984D02*
X2591610Y-11093984D01*
X2591610Y-11093984D02*
X2572563Y-11103508D01*
X2572563Y-11103508D02*
X2563039Y-11113031D01*
X2563039Y-11113031D02*
X2543991Y-11141603D01*
X2543991Y-11141603D02*
X2534467Y-11179698D01*
X2534467Y-11179698D02*
X2534467Y-11255888D01*
X2534467Y-11255888D02*
X2543991Y-11274936D01*
X2543991Y-11274936D02*
X2553515Y-11284460D01*
X2553515Y-11284460D02*
X2572563Y-11293984D01*
X2572563Y-11293984D02*
X2610658Y-11293984D01*
X2610658Y-11293984D02*
X2629705Y-11284460D01*
X2629705Y-11284460D02*
X2639229Y-11274936D01*
X2639229Y-11274936D02*
X2648753Y-11255888D01*
X2648753Y-11255888D02*
X2648753Y-11208269D01*
X2648753Y-11208269D02*
X2639229Y-11189222D01*
X2639229Y-11189222D02*
X2629705Y-11179698D01*
X2629705Y-11179698D02*
X2610658Y-11170174D01*
X2610658Y-11170174D02*
X2572563Y-11170174D01*
X2572563Y-11170174D02*
X2553515Y-11179698D01*
X2553515Y-11179698D02*
X2543991Y-11189222D01*
X2543991Y-11189222D02*
X2534467Y-11208269D01*
X2772563Y-11093984D02*
X2791610Y-11093984D01*
X2791610Y-11093984D02*
X2810658Y-11103508D01*
X2810658Y-11103508D02*
X2820182Y-11113031D01*
X2820182Y-11113031D02*
X2829705Y-11132079D01*
X2829705Y-11132079D02*
X2839229Y-11170174D01*
X2839229Y-11170174D02*
X2839229Y-11217793D01*
X2839229Y-11217793D02*
X2829705Y-11255888D01*
X2829705Y-11255888D02*
X2820182Y-11274936D01*
X2820182Y-11274936D02*
X2810658Y-11284460D01*
X2810658Y-11284460D02*
X2791610Y-11293984D01*
X2791610Y-11293984D02*
X2772563Y-11293984D01*
X2772563Y-11293984D02*
X2753515Y-11284460D01*
X2753515Y-11284460D02*
X2743991Y-11274936D01*
X2743991Y-11274936D02*
X2734467Y-11255888D01*
X2734467Y-11255888D02*
X2724944Y-11217793D01*
X2724944Y-11217793D02*
X2724944Y-11170174D01*
X2724944Y-11170174D02*
X2734467Y-11132079D01*
X2734467Y-11132079D02*
X2743991Y-11113031D01*
X2743991Y-11113031D02*
X2753515Y-11103508D01*
X2753515Y-11103508D02*
X2772563Y-11093984D01*
X2963039Y-11093984D02*
X2982086Y-11093984D01*
X2982086Y-11093984D02*
X3001134Y-11103508D01*
X3001134Y-11103508D02*
X3010658Y-11113031D01*
X3010658Y-11113031D02*
X3020182Y-11132079D01*
X3020182Y-11132079D02*
X3029705Y-11170174D01*
X3029705Y-11170174D02*
X3029705Y-11217793D01*
X3029705Y-11217793D02*
X3020182Y-11255888D01*
X3020182Y-11255888D02*
X3010658Y-11274936D01*
X3010658Y-11274936D02*
X3001134Y-11284460D01*
X3001134Y-11284460D02*
X2982086Y-11293984D01*
X2982086Y-11293984D02*
X2963039Y-11293984D01*
X2963039Y-11293984D02*
X2943991Y-11284460D01*
X2943991Y-11284460D02*
X2934467Y-11274936D01*
X2934467Y-11274936D02*
X2924943Y-11255888D01*
X2924943Y-11255888D02*
X2915420Y-11217793D01*
X2915420Y-11217793D02*
X2915420Y-11170174D01*
X2915420Y-11170174D02*
X2924943Y-11132079D01*
X2924943Y-11132079D02*
X2934467Y-11113031D01*
X2934467Y-11113031D02*
X2943991Y-11103508D01*
X2943991Y-11103508D02*
X2963039Y-11093984D01*
X3115420Y-11293984D02*
X3115420Y-11160650D01*
X3115420Y-11179698D02*
X3124943Y-11170174D01*
X3124943Y-11170174D02*
X3143991Y-11160650D01*
X3143991Y-11160650D02*
X3172563Y-11160650D01*
X3172563Y-11160650D02*
X3191610Y-11170174D01*
X3191610Y-11170174D02*
X3201134Y-11189222D01*
X3201134Y-11189222D02*
X3201134Y-11293984D01*
X3201134Y-11189222D02*
X3210658Y-11170174D01*
X3210658Y-11170174D02*
X3229705Y-11160650D01*
X3229705Y-11160650D02*
X3258277Y-11160650D01*
X3258277Y-11160650D02*
X3277324Y-11170174D01*
X3277324Y-11170174D02*
X3286848Y-11189222D01*
X3286848Y-11189222D02*
X3286848Y-11293984D01*
X3382086Y-11293984D02*
X3382086Y-11160650D01*
X3382086Y-11179698D02*
X3391610Y-11170174D01*
X3391610Y-11170174D02*
X3410658Y-11160650D01*
X3410658Y-11160650D02*
X3439229Y-11160650D01*
X3439229Y-11160650D02*
X3458277Y-11170174D01*
X3458277Y-11170174D02*
X3467801Y-11189222D01*
X3467801Y-11189222D02*
X3467801Y-11293984D01*
X3467801Y-11189222D02*
X3477324Y-11170174D01*
X3477324Y-11170174D02*
X3496372Y-11160650D01*
X3496372Y-11160650D02*
X3524943Y-11160650D01*
X3524943Y-11160650D02*
X3543991Y-11170174D01*
X3543991Y-11170174D02*
X3553515Y-11189222D01*
X3553515Y-11189222D02*
X3553515Y-11293984D01*
X3943991Y-11084460D02*
X3772563Y-11341603D01*
X4201134Y-11093984D02*
X4220182Y-11093984D01*
X4220182Y-11093984D02*
X4239229Y-11103508D01*
X4239229Y-11103508D02*
X4248753Y-11113031D01*
X4248753Y-11113031D02*
X4258277Y-11132079D01*
X4258277Y-11132079D02*
X4267801Y-11170174D01*
X4267801Y-11170174D02*
X4267801Y-11217793D01*
X4267801Y-11217793D02*
X4258277Y-11255888D01*
X4258277Y-11255888D02*
X4248753Y-11274936D01*
X4248753Y-11274936D02*
X4239229Y-11284460D01*
X4239229Y-11284460D02*
X4220182Y-11293984D01*
X4220182Y-11293984D02*
X4201134Y-11293984D01*
X4201134Y-11293984D02*
X4182086Y-11284460D01*
X4182086Y-11284460D02*
X4172563Y-11274936D01*
X4172563Y-11274936D02*
X4163039Y-11255888D01*
X4163039Y-11255888D02*
X4153515Y-11217793D01*
X4153515Y-11217793D02*
X4153515Y-11170174D01*
X4153515Y-11170174D02*
X4163039Y-11132079D01*
X4163039Y-11132079D02*
X4172563Y-11113031D01*
X4172563Y-11113031D02*
X4182086Y-11103508D01*
X4182086Y-11103508D02*
X4201134Y-11093984D01*
X4353515Y-11274936D02*
X4363039Y-11284460D01*
X4363039Y-11284460D02*
X4353515Y-11293984D01*
X4353515Y-11293984D02*
X4343991Y-11284460D01*
X4343991Y-11284460D02*
X4353515Y-11274936D01*
X4353515Y-11274936D02*
X4353515Y-11293984D01*
X4486848Y-11093984D02*
X4505896Y-11093984D01*
X4505896Y-11093984D02*
X4524944Y-11103508D01*
X4524944Y-11103508D02*
X4534468Y-11113031D01*
X4534468Y-11113031D02*
X4543991Y-11132079D01*
X4543991Y-11132079D02*
X4553515Y-11170174D01*
X4553515Y-11170174D02*
X4553515Y-11217793D01*
X4553515Y-11217793D02*
X4543991Y-11255888D01*
X4543991Y-11255888D02*
X4534468Y-11274936D01*
X4534468Y-11274936D02*
X4524944Y-11284460D01*
X4524944Y-11284460D02*
X4505896Y-11293984D01*
X4505896Y-11293984D02*
X4486848Y-11293984D01*
X4486848Y-11293984D02*
X4467801Y-11284460D01*
X4467801Y-11284460D02*
X4458277Y-11274936D01*
X4458277Y-11274936D02*
X4448753Y-11255888D01*
X4448753Y-11255888D02*
X4439229Y-11217793D01*
X4439229Y-11217793D02*
X4439229Y-11170174D01*
X4439229Y-11170174D02*
X4448753Y-11132079D01*
X4448753Y-11132079D02*
X4458277Y-11113031D01*
X4458277Y-11113031D02*
X4467801Y-11103508D01*
X4467801Y-11103508D02*
X4486848Y-11093984D01*
X4629706Y-11113031D02*
X4639229Y-11103508D01*
X4639229Y-11103508D02*
X4658277Y-11093984D01*
X4658277Y-11093984D02*
X4705896Y-11093984D01*
X4705896Y-11093984D02*
X4724944Y-11103508D01*
X4724944Y-11103508D02*
X4734468Y-11113031D01*
X4734468Y-11113031D02*
X4743991Y-11132079D01*
X4743991Y-11132079D02*
X4743991Y-11151127D01*
X4743991Y-11151127D02*
X4734468Y-11179698D01*
X4734468Y-11179698D02*
X4620182Y-11293984D01*
X4620182Y-11293984D02*
X4743991Y-11293984D01*
X4810658Y-11093984D02*
X4934468Y-11093984D01*
X4934468Y-11093984D02*
X4867801Y-11170174D01*
X4867801Y-11170174D02*
X4896372Y-11170174D01*
X4896372Y-11170174D02*
X4915420Y-11179698D01*
X4915420Y-11179698D02*
X4924944Y-11189222D01*
X4924944Y-11189222D02*
X4934468Y-11208269D01*
X4934468Y-11208269D02*
X4934468Y-11255888D01*
X4934468Y-11255888D02*
X4924944Y-11274936D01*
X4924944Y-11274936D02*
X4915420Y-11284460D01*
X4915420Y-11284460D02*
X4896372Y-11293984D01*
X4896372Y-11293984D02*
X4839229Y-11293984D01*
X4839229Y-11293984D02*
X4820182Y-11284460D01*
X4820182Y-11284460D02*
X4810658Y-11274936D01*
X5105896Y-11093984D02*
X5067801Y-11093984D01*
X5067801Y-11093984D02*
X5048753Y-11103508D01*
X5048753Y-11103508D02*
X5039229Y-11113031D01*
X5039229Y-11113031D02*
X5020182Y-11141603D01*
X5020182Y-11141603D02*
X5010658Y-11179698D01*
X5010658Y-11179698D02*
X5010658Y-11255888D01*
X5010658Y-11255888D02*
X5020182Y-11274936D01*
X5020182Y-11274936D02*
X5029706Y-11284460D01*
X5029706Y-11284460D02*
X5048753Y-11293984D01*
X5048753Y-11293984D02*
X5086849Y-11293984D01*
X5086849Y-11293984D02*
X5105896Y-11284460D01*
X5105896Y-11284460D02*
X5115420Y-11274936D01*
X5115420Y-11274936D02*
X5124944Y-11255888D01*
X5124944Y-11255888D02*
X5124944Y-11208269D01*
X5124944Y-11208269D02*
X5115420Y-11189222D01*
X5115420Y-11189222D02*
X5105896Y-11179698D01*
X5105896Y-11179698D02*
X5086849Y-11170174D01*
X5086849Y-11170174D02*
X5048753Y-11170174D01*
X5048753Y-11170174D02*
X5029706Y-11179698D01*
X5029706Y-11179698D02*
X5020182Y-11189222D01*
X5020182Y-11189222D02*
X5010658Y-11208269D01*
X5201134Y-11093984D02*
X5201134Y-11132079D01*
X5277325Y-11093984D02*
X5277325Y-11132079D01*
X5572563Y-11370174D02*
X5563039Y-11360650D01*
X5563039Y-11360650D02*
X5543991Y-11332079D01*
X5543991Y-11332079D02*
X5534468Y-11313031D01*
X5534468Y-11313031D02*
X5524944Y-11284460D01*
X5524944Y-11284460D02*
X5515420Y-11236841D01*
X5515420Y-11236841D02*
X5515420Y-11198746D01*
X5515420Y-11198746D02*
X5524944Y-11151127D01*
X5524944Y-11151127D02*
X5534468Y-11122555D01*
X5534468Y-11122555D02*
X5543991Y-11103508D01*
X5543991Y-11103508D02*
X5563039Y-11074936D01*
X5563039Y-11074936D02*
X5572563Y-11065412D01*
X5639229Y-11113031D02*
X5648753Y-11103508D01*
X5648753Y-11103508D02*
X5667801Y-11093984D01*
X5667801Y-11093984D02*
X5715420Y-11093984D01*
X5715420Y-11093984D02*
X5734468Y-11103508D01*
X5734468Y-11103508D02*
X5743991Y-11113031D01*
X5743991Y-11113031D02*
X5753515Y-11132079D01*
X5753515Y-11132079D02*
X5753515Y-11151127D01*
X5753515Y-11151127D02*
X5743991Y-11179698D01*
X5743991Y-11179698D02*
X5629706Y-11293984D01*
X5629706Y-11293984D02*
X5753515Y-11293984D01*
X5991610Y-11293984D02*
X5991610Y-11093984D01*
X6077325Y-11293984D02*
X6077325Y-11189222D01*
X6077325Y-11189222D02*
X6067801Y-11170174D01*
X6067801Y-11170174D02*
X6048753Y-11160650D01*
X6048753Y-11160650D02*
X6020182Y-11160650D01*
X6020182Y-11160650D02*
X6001134Y-11170174D01*
X6001134Y-11170174D02*
X5991610Y-11179698D01*
X6201134Y-11293984D02*
X6182087Y-11284460D01*
X6182087Y-11284460D02*
X6172563Y-11274936D01*
X6172563Y-11274936D02*
X6163039Y-11255888D01*
X6163039Y-11255888D02*
X6163039Y-11198746D01*
X6163039Y-11198746D02*
X6172563Y-11179698D01*
X6172563Y-11179698D02*
X6182087Y-11170174D01*
X6182087Y-11170174D02*
X6201134Y-11160650D01*
X6201134Y-11160650D02*
X6229706Y-11160650D01*
X6229706Y-11160650D02*
X6248753Y-11170174D01*
X6248753Y-11170174D02*
X6258277Y-11179698D01*
X6258277Y-11179698D02*
X6267801Y-11198746D01*
X6267801Y-11198746D02*
X6267801Y-11255888D01*
X6267801Y-11255888D02*
X6258277Y-11274936D01*
X6258277Y-11274936D02*
X6248753Y-11284460D01*
X6248753Y-11284460D02*
X6229706Y-11293984D01*
X6229706Y-11293984D02*
X6201134Y-11293984D01*
X6382087Y-11293984D02*
X6363039Y-11284460D01*
X6363039Y-11284460D02*
X6353515Y-11265412D01*
X6353515Y-11265412D02*
X6353515Y-11093984D01*
X6534468Y-11284460D02*
X6515420Y-11293984D01*
X6515420Y-11293984D02*
X6477325Y-11293984D01*
X6477325Y-11293984D02*
X6458277Y-11284460D01*
X6458277Y-11284460D02*
X6448753Y-11265412D01*
X6448753Y-11265412D02*
X6448753Y-11189222D01*
X6448753Y-11189222D02*
X6458277Y-11170174D01*
X6458277Y-11170174D02*
X6477325Y-11160650D01*
X6477325Y-11160650D02*
X6515420Y-11160650D01*
X6515420Y-11160650D02*
X6534468Y-11170174D01*
X6534468Y-11170174D02*
X6543991Y-11189222D01*
X6543991Y-11189222D02*
X6543991Y-11208269D01*
X6543991Y-11208269D02*
X6448753Y-11227317D01*
X6620182Y-11284460D02*
X6639230Y-11293984D01*
X6639230Y-11293984D02*
X6677325Y-11293984D01*
X6677325Y-11293984D02*
X6696372Y-11284460D01*
X6696372Y-11284460D02*
X6705896Y-11265412D01*
X6705896Y-11265412D02*
X6705896Y-11255888D01*
X6705896Y-11255888D02*
X6696372Y-11236841D01*
X6696372Y-11236841D02*
X6677325Y-11227317D01*
X6677325Y-11227317D02*
X6648753Y-11227317D01*
X6648753Y-11227317D02*
X6629706Y-11217793D01*
X6629706Y-11217793D02*
X6620182Y-11198746D01*
X6620182Y-11198746D02*
X6620182Y-11189222D01*
X6620182Y-11189222D02*
X6629706Y-11170174D01*
X6629706Y-11170174D02*
X6648753Y-11160650D01*
X6648753Y-11160650D02*
X6677325Y-11160650D01*
X6677325Y-11160650D02*
X6696372Y-11170174D01*
X6772563Y-11370174D02*
X6782087Y-11360650D01*
X6782087Y-11360650D02*
X6801134Y-11332079D01*
X6801134Y-11332079D02*
X6810658Y-11313031D01*
X6810658Y-11313031D02*
X6820182Y-11284460D01*
X6820182Y-11284460D02*
X6829706Y-11236841D01*
X6829706Y-11236841D02*
X6829706Y-11198746D01*
X6829706Y-11198746D02*
X6820182Y-11151127D01*
X6820182Y-11151127D02*
X6810658Y-11122555D01*
X6810658Y-11122555D02*
X6801134Y-11103508D01*
X6801134Y-11103508D02*
X6782087Y-11074936D01*
X6782087Y-11074936D02*
X6772563Y-11065412D01*
X7134468Y-11370174D02*
X7124944Y-11360650D01*
X7124944Y-11360650D02*
X7105896Y-11332079D01*
X7105896Y-11332079D02*
X7096372Y-11313031D01*
X7096372Y-11313031D02*
X7086849Y-11284460D01*
X7086849Y-11284460D02*
X7077325Y-11236841D01*
X7077325Y-11236841D02*
X7077325Y-11198746D01*
X7077325Y-11198746D02*
X7086849Y-11151127D01*
X7086849Y-11151127D02*
X7096372Y-11122555D01*
X7096372Y-11122555D02*
X7105896Y-11103508D01*
X7105896Y-11103508D02*
X7124944Y-11074936D01*
X7124944Y-11074936D02*
X7134468Y-11065412D01*
X7210658Y-11160650D02*
X7210658Y-11293984D01*
X7210658Y-11179698D02*
X7220182Y-11170174D01*
X7220182Y-11170174D02*
X7239230Y-11160650D01*
X7239230Y-11160650D02*
X7267801Y-11160650D01*
X7267801Y-11160650D02*
X7286849Y-11170174D01*
X7286849Y-11170174D02*
X7296372Y-11189222D01*
X7296372Y-11189222D02*
X7296372Y-11293984D01*
X7420182Y-11293984D02*
X7401134Y-11284460D01*
X7401134Y-11284460D02*
X7391611Y-11274936D01*
X7391611Y-11274936D02*
X7382087Y-11255888D01*
X7382087Y-11255888D02*
X7382087Y-11198746D01*
X7382087Y-11198746D02*
X7391611Y-11179698D01*
X7391611Y-11179698D02*
X7401134Y-11170174D01*
X7401134Y-11170174D02*
X7420182Y-11160650D01*
X7420182Y-11160650D02*
X7448753Y-11160650D01*
X7448753Y-11160650D02*
X7467801Y-11170174D01*
X7467801Y-11170174D02*
X7477325Y-11179698D01*
X7477325Y-11179698D02*
X7486849Y-11198746D01*
X7486849Y-11198746D02*
X7486849Y-11255888D01*
X7486849Y-11255888D02*
X7477325Y-11274936D01*
X7477325Y-11274936D02*
X7467801Y-11284460D01*
X7467801Y-11284460D02*
X7448753Y-11293984D01*
X7448753Y-11293984D02*
X7420182Y-11293984D01*
X7543992Y-11160650D02*
X7620182Y-11160650D01*
X7572563Y-11093984D02*
X7572563Y-11265412D01*
X7572563Y-11265412D02*
X7582087Y-11284460D01*
X7582087Y-11284460D02*
X7601134Y-11293984D01*
X7601134Y-11293984D02*
X7620182Y-11293984D01*
X7839230Y-11160650D02*
X7839230Y-11360650D01*
X7839230Y-11170174D02*
X7858277Y-11160650D01*
X7858277Y-11160650D02*
X7896373Y-11160650D01*
X7896373Y-11160650D02*
X7915420Y-11170174D01*
X7915420Y-11170174D02*
X7924944Y-11179698D01*
X7924944Y-11179698D02*
X7934468Y-11198746D01*
X7934468Y-11198746D02*
X7934468Y-11255888D01*
X7934468Y-11255888D02*
X7924944Y-11274936D01*
X7924944Y-11274936D02*
X7915420Y-11284460D01*
X7915420Y-11284460D02*
X7896373Y-11293984D01*
X7896373Y-11293984D02*
X7858277Y-11293984D01*
X7858277Y-11293984D02*
X7839230Y-11284460D01*
X8048753Y-11293984D02*
X8029706Y-11284460D01*
X8029706Y-11284460D02*
X8020182Y-11265412D01*
X8020182Y-11265412D02*
X8020182Y-11093984D01*
X8210658Y-11293984D02*
X8210658Y-11189222D01*
X8210658Y-11189222D02*
X8201134Y-11170174D01*
X8201134Y-11170174D02*
X8182087Y-11160650D01*
X8182087Y-11160650D02*
X8143992Y-11160650D01*
X8143992Y-11160650D02*
X8124944Y-11170174D01*
X8210658Y-11284460D02*
X8191611Y-11293984D01*
X8191611Y-11293984D02*
X8143992Y-11293984D01*
X8143992Y-11293984D02*
X8124944Y-11284460D01*
X8124944Y-11284460D02*
X8115420Y-11265412D01*
X8115420Y-11265412D02*
X8115420Y-11246365D01*
X8115420Y-11246365D02*
X8124944Y-11227317D01*
X8124944Y-11227317D02*
X8143992Y-11217793D01*
X8143992Y-11217793D02*
X8191611Y-11217793D01*
X8191611Y-11217793D02*
X8210658Y-11208269D01*
X8277325Y-11160650D02*
X8353515Y-11160650D01*
X8305896Y-11093984D02*
X8305896Y-11265412D01*
X8305896Y-11265412D02*
X8315420Y-11284460D01*
X8315420Y-11284460D02*
X8334468Y-11293984D01*
X8334468Y-11293984D02*
X8353515Y-11293984D01*
X8496373Y-11284460D02*
X8477325Y-11293984D01*
X8477325Y-11293984D02*
X8439230Y-11293984D01*
X8439230Y-11293984D02*
X8420182Y-11284460D01*
X8420182Y-11284460D02*
X8410658Y-11265412D01*
X8410658Y-11265412D02*
X8410658Y-11189222D01*
X8410658Y-11189222D02*
X8420182Y-11170174D01*
X8420182Y-11170174D02*
X8439230Y-11160650D01*
X8439230Y-11160650D02*
X8477325Y-11160650D01*
X8477325Y-11160650D02*
X8496373Y-11170174D01*
X8496373Y-11170174D02*
X8505896Y-11189222D01*
X8505896Y-11189222D02*
X8505896Y-11208269D01*
X8505896Y-11208269D02*
X8410658Y-11227317D01*
X8677325Y-11293984D02*
X8677325Y-11093984D01*
X8677325Y-11284460D02*
X8658277Y-11293984D01*
X8658277Y-11293984D02*
X8620182Y-11293984D01*
X8620182Y-11293984D02*
X8601135Y-11284460D01*
X8601135Y-11284460D02*
X8591611Y-11274936D01*
X8591611Y-11274936D02*
X8582087Y-11255888D01*
X8582087Y-11255888D02*
X8582087Y-11198746D01*
X8582087Y-11198746D02*
X8591611Y-11179698D01*
X8591611Y-11179698D02*
X8601135Y-11170174D01*
X8601135Y-11170174D02*
X8620182Y-11160650D01*
X8620182Y-11160650D02*
X8658277Y-11160650D01*
X8658277Y-11160650D02*
X8677325Y-11170174D01*
X8753516Y-11370174D02*
X8763039Y-11360650D01*
X8763039Y-11360650D02*
X8782087Y-11332079D01*
X8782087Y-11332079D02*
X8791611Y-11313031D01*
X8791611Y-11313031D02*
X8801135Y-11284460D01*
X8801135Y-11284460D02*
X8810658Y-11236841D01*
X8810658Y-11236841D02*
X8810658Y-11198746D01*
X8810658Y-11198746D02*
X8801135Y-11151127D01*
X8801135Y-11151127D02*
X8791611Y-11122555D01*
X8791611Y-11122555D02*
X8782087Y-11103508D01*
X8782087Y-11103508D02*
X8763039Y-11074936D01*
X8763039Y-11074936D02*
X8753516Y-11065412D01*
M02*
