%TF.GenerationSoftware,KiCad,Pcbnew,10.0.5*%
%TF.CreationDate,2026-08-20T00:35:37+08:00*%
%TF.ProjectId,the-card,7468652d-6361-4726-942e-6b696361645f,0.2.0*%
%TF.SameCoordinates,Original*%
%TF.FileFunction,Legend,Top*%
%TF.FilePolarity,Positive*%
%FSLAX46Y46*%
G04 Gerber Fmt 4.6, Leading zero omitted, Abs format (unit mm)*
G04 Created by KiCad (PCBNEW 10.0.5) date 2026-08-20 00:35:37*
%MOMM*%
%LPD*%
G01*
G04 APERTURE LIST*
G04 Aperture macros list*
%AMRoundRect*
0 Rectangle with rounded corners*
0 $1 Rounding radius*
0 $2 $3 $4 $5 $6 $7 $8 $9 X,Y pos of 4 corners*
0 Add a 4 corners polygon primitive as box body*
4,1,4,$2,$3,$4,$5,$6,$7,$8,$9,$2,$3,0*
0 Add four circle primitives for the rounded corners*
1,1,$1+$1,$2,$3*
1,1,$1+$1,$4,$5*
1,1,$1+$1,$6,$7*
1,1,$1+$1,$8,$9*
0 Add four rect primitives between the rounded corners*
20,1,$1+$1,$2,$3,$4,$5,0*
20,1,$1+$1,$4,$5,$6,$7,0*
20,1,$1+$1,$6,$7,$8,$9,0*
20,1,$1+$1,$8,$9,$2,$3,0*%
G04 Aperture macros list end*
%ADD10C,0.140000*%
%ADD11C,0.250000*%
%ADD12C,0.060000*%
%ADD13C,0.120000*%
%ADD14C,0.150000*%
%ADD15R,1.000000X0.750000*%
%ADD16RoundRect,0.140000X0.170000X-0.140000X0.170000X0.140000X-0.170000X0.140000X-0.170000X-0.140000X0*%
%ADD17R,1.545000X0.997000*%
%ADD18C,0.600000*%
%ADD19O,1.200000X2.000000*%
%ADD20O,1.200000X1.800000*%
G04 APERTURE END LIST*
D10*
X43428571Y-103455339D02*
X43999999Y-103455339D01*
X43714285Y-104455339D02*
X43714285Y-103455339D01*
X44333333Y-104455339D02*
X44333333Y-103455339D01*
X44333333Y-103931529D02*
X44904761Y-103931529D01*
X44904761Y-104455339D02*
X44904761Y-103455339D01*
X45380952Y-103931529D02*
X45714285Y-103931529D01*
X45857142Y-104455339D02*
X45380952Y-104455339D01*
X45380952Y-104455339D02*
X45380952Y-103455339D01*
X45380952Y-103455339D02*
X45857142Y-103455339D01*
X47619047Y-104360100D02*
X47571428Y-104407720D01*
X47571428Y-104407720D02*
X47428571Y-104455339D01*
X47428571Y-104455339D02*
X47333333Y-104455339D01*
X47333333Y-104455339D02*
X47190476Y-104407720D01*
X47190476Y-104407720D02*
X47095238Y-104312481D01*
X47095238Y-104312481D02*
X47047619Y-104217243D01*
X47047619Y-104217243D02*
X47000000Y-104026767D01*
X47000000Y-104026767D02*
X47000000Y-103883910D01*
X47000000Y-103883910D02*
X47047619Y-103693434D01*
X47047619Y-103693434D02*
X47095238Y-103598196D01*
X47095238Y-103598196D02*
X47190476Y-103502958D01*
X47190476Y-103502958D02*
X47333333Y-103455339D01*
X47333333Y-103455339D02*
X47428571Y-103455339D01*
X47428571Y-103455339D02*
X47571428Y-103502958D01*
X47571428Y-103502958D02*
X47619047Y-103550577D01*
X48000000Y-104169624D02*
X48476190Y-104169624D01*
X47904762Y-104455339D02*
X48238095Y-103455339D01*
X48238095Y-103455339D02*
X48571428Y-104455339D01*
X49476190Y-104455339D02*
X49142857Y-103979148D01*
X48904762Y-104455339D02*
X48904762Y-103455339D01*
X48904762Y-103455339D02*
X49285714Y-103455339D01*
X49285714Y-103455339D02*
X49380952Y-103502958D01*
X49380952Y-103502958D02*
X49428571Y-103550577D01*
X49428571Y-103550577D02*
X49476190Y-103645815D01*
X49476190Y-103645815D02*
X49476190Y-103788672D01*
X49476190Y-103788672D02*
X49428571Y-103883910D01*
X49428571Y-103883910D02*
X49380952Y-103931529D01*
X49380952Y-103931529D02*
X49285714Y-103979148D01*
X49285714Y-103979148D02*
X48904762Y-103979148D01*
X49904762Y-104455339D02*
X49904762Y-103455339D01*
X49904762Y-103455339D02*
X50142857Y-103455339D01*
X50142857Y-103455339D02*
X50285714Y-103502958D01*
X50285714Y-103502958D02*
X50380952Y-103598196D01*
X50380952Y-103598196D02*
X50428571Y-103693434D01*
X50428571Y-103693434D02*
X50476190Y-103883910D01*
X50476190Y-103883910D02*
X50476190Y-104026767D01*
X50476190Y-104026767D02*
X50428571Y-104217243D01*
X50428571Y-104217243D02*
X50380952Y-104312481D01*
X50380952Y-104312481D02*
X50285714Y-104407720D01*
X50285714Y-104407720D02*
X50142857Y-104455339D01*
X50142857Y-104455339D02*
X49904762Y-104455339D01*
%TO.C,SW1*%
D11*
X66950000Y-57330000D02*
X66950000Y-59670000D01*
X67330000Y-60160000D02*
X68220000Y-61050000D01*
X67700000Y-57500000D02*
X68500000Y-56700000D01*
X67700000Y-59500000D02*
X67700000Y-57500000D01*
X68220000Y-55950000D02*
X67330000Y-56840000D01*
X68220000Y-55950000D02*
X70780000Y-55950000D01*
X68220000Y-61050000D02*
X70780000Y-61050000D01*
X68500000Y-56700000D02*
X70400000Y-56700000D01*
X68600000Y-60400000D02*
X67700000Y-59500000D01*
X70300000Y-60400000D02*
X68600000Y-60400000D01*
X70400000Y-56700000D02*
X71300000Y-57600000D01*
X70780000Y-55950000D02*
X71670000Y-56840000D01*
X71300000Y-57600000D02*
X71300000Y-59400000D01*
X71300000Y-59400000D02*
X70300000Y-60400000D01*
X71670000Y-60160000D02*
X70780000Y-61050000D01*
X72050000Y-57330000D02*
X72050000Y-59670000D01*
D12*
X66280000Y-55950000D02*
G75*
G02*
X66220000Y-55950000I-30000J0D01*
G01*
X66220000Y-55950000D02*
G75*
G02*
X66280000Y-55950000I30000J0D01*
G01*
D11*
X70780000Y-58500000D02*
G75*
G02*
X68220000Y-58500000I-1280000J0D01*
G01*
X68220000Y-58500000D02*
G75*
G02*
X70780000Y-58500000I1280000J0D01*
G01*
%TO.C,SW4*%
X66950000Y-90330000D02*
X66950000Y-92670000D01*
X67330000Y-93160000D02*
X68220000Y-94050000D01*
X67700000Y-90500000D02*
X68500000Y-89700000D01*
X67700000Y-92500000D02*
X67700000Y-90500000D01*
X68220000Y-88950000D02*
X67330000Y-89840000D01*
X68220000Y-88950000D02*
X70780000Y-88950000D01*
X68220000Y-94050000D02*
X70780000Y-94050000D01*
X68500000Y-89700000D02*
X70400000Y-89700000D01*
X68600000Y-93400000D02*
X67700000Y-92500000D01*
X70300000Y-93400000D02*
X68600000Y-93400000D01*
X70400000Y-89700000D02*
X71300000Y-90600000D01*
X70780000Y-88950000D02*
X71670000Y-89840000D01*
X71300000Y-90600000D02*
X71300000Y-92400000D01*
X71300000Y-92400000D02*
X70300000Y-93400000D01*
X71670000Y-93160000D02*
X70780000Y-94050000D01*
X72050000Y-90330000D02*
X72050000Y-92670000D01*
D12*
X66280000Y-88950000D02*
G75*
G02*
X66220000Y-88950000I-30000J0D01*
G01*
X66220000Y-88950000D02*
G75*
G02*
X66280000Y-88950000I30000J0D01*
G01*
D11*
X70780000Y-91500000D02*
G75*
G02*
X68220000Y-91500000I-1280000J0D01*
G01*
X68220000Y-91500000D02*
G75*
G02*
X70780000Y-91500000I1280000J0D01*
G01*
%TO.C,C15*%
D13*
X27640000Y-84107836D02*
X27640000Y-83892164D01*
X28360000Y-84107836D02*
X28360000Y-83892164D01*
%TO.C,D1*%
D11*
X21530000Y-83110000D02*
X22030000Y-83110000D01*
X21780000Y-82790000D02*
X21780000Y-83430000D01*
D14*
X22780000Y-82180000D02*
X22780000Y-82180000D01*
X22780000Y-82180000D02*
X26620000Y-82180000D01*
X22780000Y-82420000D02*
X22780000Y-82180000D01*
X22780000Y-85580000D02*
X22780000Y-85820000D01*
X22780000Y-85820000D02*
X22780000Y-85820000D01*
X22780000Y-85820000D02*
X26620000Y-85820000D01*
X26620000Y-82180000D02*
X26620000Y-82180000D01*
X26620000Y-82180000D02*
X26620000Y-82420000D01*
X26620000Y-85820000D02*
X26620000Y-85580000D01*
X26620000Y-85820000D02*
X26620000Y-85820000D01*
X26840000Y-85580000D02*
X26840000Y-86040000D01*
X26840000Y-86040000D02*
X26480000Y-86040000D01*
X26840000Y-86040000D02*
X26840000Y-86040000D01*
D11*
X27240000Y-84890000D02*
X27620000Y-84890000D01*
D12*
X22890000Y-82260000D02*
G75*
G02*
X22830000Y-82260000I-30000J0D01*
G01*
X22830000Y-82260000D02*
G75*
G02*
X22890000Y-82260000I30000J0D01*
G01*
%TO.C,SW2*%
D11*
X66950000Y-68330000D02*
X66950000Y-70670000D01*
X67330000Y-71160000D02*
X68220000Y-72050000D01*
X67700000Y-68500000D02*
X68500000Y-67700000D01*
X67700000Y-70500000D02*
X67700000Y-68500000D01*
X68220000Y-66950000D02*
X67330000Y-67840000D01*
X68220000Y-66950000D02*
X70780000Y-66950000D01*
X68220000Y-72050000D02*
X70780000Y-72050000D01*
X68500000Y-67700000D02*
X70400000Y-67700000D01*
X68600000Y-71400000D02*
X67700000Y-70500000D01*
X70300000Y-71400000D02*
X68600000Y-71400000D01*
X70400000Y-67700000D02*
X71300000Y-68600000D01*
X70780000Y-66950000D02*
X71670000Y-67840000D01*
X71300000Y-68600000D02*
X71300000Y-70400000D01*
X71300000Y-70400000D02*
X70300000Y-71400000D01*
X71670000Y-71160000D02*
X70780000Y-72050000D01*
X72050000Y-68330000D02*
X72050000Y-70670000D01*
D12*
X66280000Y-66950000D02*
G75*
G02*
X66220000Y-66950000I-30000J0D01*
G01*
X66220000Y-66950000D02*
G75*
G02*
X66280000Y-66950000I30000J0D01*
G01*
D11*
X70780000Y-69500000D02*
G75*
G02*
X68220000Y-69500000I-1280000J0D01*
G01*
X68220000Y-69500000D02*
G75*
G02*
X70780000Y-69500000I1280000J0D01*
G01*
%TO.C,C16*%
D13*
X65840000Y-58607836D02*
X65840000Y-58392164D01*
X66560000Y-58607836D02*
X66560000Y-58392164D01*
%TO.C,SW3*%
D11*
X66950000Y-79330000D02*
X66950000Y-81670000D01*
X67330000Y-82160000D02*
X68220000Y-83050000D01*
X67700000Y-79500000D02*
X68500000Y-78700000D01*
X67700000Y-81500000D02*
X67700000Y-79500000D01*
X68220000Y-77950000D02*
X67330000Y-78840000D01*
X68220000Y-77950000D02*
X70780000Y-77950000D01*
X68220000Y-83050000D02*
X70780000Y-83050000D01*
X68500000Y-78700000D02*
X70400000Y-78700000D01*
X68600000Y-82400000D02*
X67700000Y-81500000D01*
X70300000Y-82400000D02*
X68600000Y-82400000D01*
X70400000Y-78700000D02*
X71300000Y-79600000D01*
X70780000Y-77950000D02*
X71670000Y-78840000D01*
X71300000Y-79600000D02*
X71300000Y-81400000D01*
X71300000Y-81400000D02*
X70300000Y-82400000D01*
X71670000Y-82160000D02*
X70780000Y-83050000D01*
X72050000Y-79330000D02*
X72050000Y-81670000D01*
D12*
X66280000Y-77950000D02*
G75*
G02*
X66220000Y-77950000I-30000J0D01*
G01*
X66220000Y-77950000D02*
G75*
G02*
X66280000Y-77950000I30000J0D01*
G01*
D11*
X70780000Y-80500000D02*
G75*
G02*
X68220000Y-80500000I-1280000J0D01*
G01*
X68220000Y-80500000D02*
G75*
G02*
X70780000Y-80500000I1280000J0D01*
G01*
%TO.C,C18*%
D13*
X65840000Y-80607836D02*
X65840000Y-80392164D01*
X66560000Y-80607836D02*
X66560000Y-80392164D01*
%TO.C,C17*%
X65840000Y-69607836D02*
X65840000Y-69392164D01*
X66560000Y-69607836D02*
X66560000Y-69392164D01*
%TO.C,C19*%
X65840000Y-91607836D02*
X65840000Y-91392164D01*
X66560000Y-91607836D02*
X66560000Y-91392164D01*
%TD*%
%LPC*%
D15*
%TO.C,SW1*%
X66500000Y-56650000D03*
X72500000Y-56650000D03*
X66500000Y-60350000D03*
X72500000Y-60350000D03*
%TD*%
%TO.C,SW4*%
X66500000Y-89650000D03*
X72500000Y-89650000D03*
X66500000Y-93350000D03*
X72500000Y-93350000D03*
%TD*%
D16*
%TO.C,C15*%
X28000000Y-84480000D03*
X28000000Y-83520000D03*
%TD*%
D17*
%TO.C,D1*%
X23060000Y-83110000D03*
X23060000Y-84890000D03*
X26340000Y-84890000D03*
X26340000Y-83110000D03*
%TD*%
D15*
%TO.C,SW2*%
X66500000Y-67650000D03*
X72500000Y-67650000D03*
X66500000Y-71350000D03*
X72500000Y-71350000D03*
%TD*%
D16*
%TO.C,C16*%
X66200000Y-58980000D03*
X66200000Y-58020000D03*
%TD*%
D15*
%TO.C,SW3*%
X66500000Y-78650000D03*
X72500000Y-78650000D03*
X66500000Y-82350000D03*
X72500000Y-82350000D03*
%TD*%
D16*
%TO.C,C18*%
X66200000Y-80980000D03*
X66200000Y-80020000D03*
%TD*%
%TO.C,C17*%
X66200000Y-69980000D03*
X66200000Y-69020000D03*
%TD*%
%TO.C,C19*%
X66200000Y-91980000D03*
X66200000Y-91020000D03*
%TD*%
D18*
%TO.C,J1*%
X23100000Y-101710000D03*
X28900000Y-101710000D03*
D19*
X30330000Y-102210000D03*
D20*
X30330000Y-98030000D03*
X21670000Y-98030000D03*
D19*
X21670000Y-102210000D03*
%TD*%
%LPD*%
M02*
