%TF.GenerationSoftware,KiCad,Pcbnew,10.0.5*%
%TF.CreationDate,2026-08-20T00:35:37+08:00*%
%TF.ProjectId,the-card,7468652d-6361-4726-942e-6b696361645f,0.2.0*%
%TF.SameCoordinates,Original*%
%TF.FileFunction,Legend,Bot*%
%TF.FilePolarity,Positive*%
%FSLAX46Y46*%
G04 Gerber Fmt 4.6, Leading zero omitted, Abs format (unit mm)*
G04 Created by KiCad (PCBNEW 10.0.5) date 2026-08-20 00:35:37*
%MOMM*%
%LPD*%
G01*
G04 APERTURE LIST*
G04 Aperture macros list*
%AMRoundRect*
0 Rectangle with rounded corners*
0 $1 Rounding radius*
0 $2 $3 $4 $5 $6 $7 $8 $9 X,Y pos of 4 corners*
0 Add a 4 corners polygon primitive as box body*
4,1,4,$2,$3,$4,$5,$6,$7,$8,$9,$2,$3,0*
0 Add four circle primitives for the rounded corners*
1,1,$1+$1,$2,$3*
1,1,$1+$1,$4,$5*
1,1,$1+$1,$6,$7*
1,1,$1+$1,$8,$9*
0 Add four rect primitives between the rounded corners*
20,1,$1+$1,$2,$3,$4,$5,0*
20,1,$1+$1,$4,$5,$6,$7,0*
20,1,$1+$1,$6,$7,$8,$9,0*
20,1,$1+$1,$8,$9,$2,$3,0*%
%AMFreePoly0*
4,1,17,0.000318,0.699935,0.299923,0.699935,0.335278,0.685290,0.349923,0.649935,0.349923,-0.650088,0.335278,-0.685443,0.299923,-0.700088,-0.000076,-0.700088,-0.000445,-0.699935,-0.300050,-0.699935,-0.335405,-0.685290,-0.350050,-0.649935,-0.350050,0.650088,-0.335405,0.685443,-0.300050,0.700088,-0.000051,0.700088,0.000318,0.699935,0.000318,0.699935,$1*%
%AMFreePoly1*
4,1,17,0.000187,0.700037,0.300076,0.700037,0.335431,0.685392,0.350076,0.650037,0.350076,-0.649935,0.335431,-0.685290,0.300076,-0.699935,0.000051,-0.699935,-0.000009,-0.699910,-0.299898,-0.699910,-0.335253,-0.685265,-0.349898,-0.649910,-0.349898,0.650062,-0.335253,0.685417,-0.299898,0.700062,0.000127,0.700062,0.000187,0.700037,0.000187,0.700037,$1*%
%AMFreePoly2*
4,1,13,0.335227,0.685239,0.349872,0.649884,0.349872,-0.650088,0.335227,-0.685443,0.299872,-0.700088,-0.300152,-0.700088,-0.335507,-0.685443,-0.350152,-0.650088,-0.350152,0.649884,-0.335507,0.685239,-0.300152,0.699884,0.299872,0.699884,0.335227,0.685239,0.335227,0.685239,$1*%
G04 Aperture macros list end*
%ADD10C,0.112000*%
%ADD11C,0.120000*%
%ADD12C,0.150000*%
%ADD13C,0.060000*%
%ADD14C,0.080000*%
%ADD15C,0.250000*%
%ADD16C,0.000000*%
%ADD17C,0.300000*%
%ADD18C,0.100000*%
%ADD19C,0.200000*%
%ADD20RoundRect,0.140000X0.140000X0.170000X-0.140000X0.170000X-0.140000X-0.170000X0.140000X-0.170000X0*%
%ADD21RoundRect,0.135000X0.185000X-0.135000X0.185000X0.135000X-0.185000X0.135000X-0.185000X-0.135000X0*%
%ADD22RoundRect,0.250000X-0.250000X-0.475000X0.250000X-0.475000X0.250000X0.475000X-0.250000X0.475000X0*%
%ADD23RoundRect,0.140000X0.170000X-0.140000X0.170000X0.140000X-0.170000X0.140000X-0.170000X-0.140000X0*%
%ADD24RoundRect,0.225000X-0.225000X-0.250000X0.225000X-0.250000X0.225000X0.250000X-0.225000X0.250000X0*%
%ADD25C,1.000000*%
%ADD26R,0.420000X0.505000*%
%ADD27R,1.100000X0.400000*%
%ADD28R,1.500000X0.900000*%
%ADD29R,0.900000X1.500000*%
%ADD30R,0.900000X0.900000*%
%ADD31RoundRect,0.225000X0.250000X-0.225000X0.250000X0.225000X-0.250000X0.225000X-0.250000X-0.225000X0*%
%ADD32RoundRect,0.225000X0.375000X-0.225000X0.375000X0.225000X-0.375000X0.225000X-0.375000X-0.225000X0*%
%ADD33RoundRect,0.135000X-0.135000X-0.185000X0.135000X-0.185000X0.135000X0.185000X-0.135000X0.185000X0*%
%ADD34RoundRect,0.250000X1.500000X-0.250000X1.500000X0.250000X-1.500000X0.250000X-1.500000X-0.250000X0*%
%ADD35RoundRect,0.250001X1.449999X-0.499999X1.449999X0.499999X-1.449999X0.499999X-1.449999X-0.499999X0*%
%ADD36R,0.532000X1.037000*%
%ADD37R,1.072000X0.532000*%
%ADD38RoundRect,0.250000X-0.312500X-0.625000X0.312500X-0.625000X0.312500X0.625000X-0.312500X0.625000X0*%
%ADD39R,0.280000X0.675000*%
%ADD40R,0.675000X0.280000*%
%ADD41R,0.300000X1.300000*%
%ADD42R,1.800000X2.200000*%
%ADD43O,1.500000X0.400000*%
%ADD44R,1.800000X0.600000*%
%ADD45R,1.157000X0.490000*%
%ADD46R,1.175000X0.490000*%
%ADD47RoundRect,0.112500X0.112500X-0.350000X0.112500X0.350000X-0.112500X0.350000X-0.112500X-0.350000X0*%
%ADD48R,1.200000X0.600000*%
%ADD49R,2.400000X3.300000*%
%ADD50R,0.600000X1.100000*%
%ADD51R,1.900000X4.200000*%
%ADD52RoundRect,0.225000X0.225000X0.250000X-0.225000X0.250000X-0.225000X-0.250000X0.225000X-0.250000X0*%
%ADD53R,0.425000X0.280000*%
%ADD54R,0.800000X1.200000*%
%ADD55C,0.600000*%
%ADD56O,1.200000X2.000000*%
%ADD57O,1.200000X1.800000*%
%ADD58FreePoly0,0.000000*%
%ADD59FreePoly1,0.000000*%
%ADD60FreePoly2,0.000000*%
G04 APERTURE END LIST*
D10*
X43266666Y-93064271D02*
X43266666Y-93635699D01*
X43266666Y-93635699D02*
X43304761Y-93749985D01*
X43304761Y-93749985D02*
X43380952Y-93826176D01*
X43380952Y-93826176D02*
X43495237Y-93864271D01*
X43495237Y-93864271D02*
X43571428Y-93864271D01*
X42923809Y-93140461D02*
X42885713Y-93102366D01*
X42885713Y-93102366D02*
X42809523Y-93064271D01*
X42809523Y-93064271D02*
X42619047Y-93064271D01*
X42619047Y-93064271D02*
X42542856Y-93102366D01*
X42542856Y-93102366D02*
X42504761Y-93140461D01*
X42504761Y-93140461D02*
X42466666Y-93216652D01*
X42466666Y-93216652D02*
X42466666Y-93292842D01*
X42466666Y-93292842D02*
X42504761Y-93407128D01*
X42504761Y-93407128D02*
X42961904Y-93864271D01*
X42961904Y-93864271D02*
X42466666Y-93864271D01*
X41514284Y-93864271D02*
X41514284Y-93064271D01*
X41514284Y-93064271D02*
X41209522Y-93064271D01*
X41209522Y-93064271D02*
X41133332Y-93102366D01*
X41133332Y-93102366D02*
X41095237Y-93140461D01*
X41095237Y-93140461D02*
X41057141Y-93216652D01*
X41057141Y-93216652D02*
X41057141Y-93330937D01*
X41057141Y-93330937D02*
X41095237Y-93407128D01*
X41095237Y-93407128D02*
X41133332Y-93445223D01*
X41133332Y-93445223D02*
X41209522Y-93483318D01*
X41209522Y-93483318D02*
X41514284Y-93483318D01*
X40714284Y-93864271D02*
X40714284Y-93064271D01*
X40333332Y-93864271D02*
X40333332Y-93064271D01*
X40333332Y-93064271D02*
X39876189Y-93864271D01*
X39876189Y-93864271D02*
X39876189Y-93064271D01*
X38466666Y-93864271D02*
X38923809Y-93864271D01*
X38695237Y-93864271D02*
X38695237Y-93064271D01*
X38695237Y-93064271D02*
X38771428Y-93178556D01*
X38771428Y-93178556D02*
X38847618Y-93254747D01*
X38847618Y-93254747D02*
X38923809Y-93292842D01*
X54104762Y-48864271D02*
X54104762Y-48064271D01*
X54104762Y-48445223D02*
X53647619Y-48445223D01*
X53647619Y-48864271D02*
X53647619Y-48064271D01*
X53342858Y-48064271D02*
X53152382Y-48864271D01*
X53152382Y-48864271D02*
X53000001Y-48292842D01*
X53000001Y-48292842D02*
X52847620Y-48864271D01*
X52847620Y-48864271D02*
X52657144Y-48064271D01*
X51590476Y-48064271D02*
X51514286Y-48064271D01*
X51514286Y-48064271D02*
X51438095Y-48102366D01*
X51438095Y-48102366D02*
X51400000Y-48140461D01*
X51400000Y-48140461D02*
X51361905Y-48216652D01*
X51361905Y-48216652D02*
X51323810Y-48369033D01*
X51323810Y-48369033D02*
X51323810Y-48559509D01*
X51323810Y-48559509D02*
X51361905Y-48711890D01*
X51361905Y-48711890D02*
X51400000Y-48788080D01*
X51400000Y-48788080D02*
X51438095Y-48826176D01*
X51438095Y-48826176D02*
X51514286Y-48864271D01*
X51514286Y-48864271D02*
X51590476Y-48864271D01*
X51590476Y-48864271D02*
X51666667Y-48826176D01*
X51666667Y-48826176D02*
X51704762Y-48788080D01*
X51704762Y-48788080D02*
X51742857Y-48711890D01*
X51742857Y-48711890D02*
X51780953Y-48559509D01*
X51780953Y-48559509D02*
X51780953Y-48369033D01*
X51780953Y-48369033D02*
X51742857Y-48216652D01*
X51742857Y-48216652D02*
X51704762Y-48140461D01*
X51704762Y-48140461D02*
X51666667Y-48102366D01*
X51666667Y-48102366D02*
X51590476Y-48064271D01*
X50980952Y-48788080D02*
X50942857Y-48826176D01*
X50942857Y-48826176D02*
X50980952Y-48864271D01*
X50980952Y-48864271D02*
X51019048Y-48826176D01*
X51019048Y-48826176D02*
X50980952Y-48788080D01*
X50980952Y-48788080D02*
X50980952Y-48864271D01*
X50638096Y-48140461D02*
X50600000Y-48102366D01*
X50600000Y-48102366D02*
X50523810Y-48064271D01*
X50523810Y-48064271D02*
X50333334Y-48064271D01*
X50333334Y-48064271D02*
X50257143Y-48102366D01*
X50257143Y-48102366D02*
X50219048Y-48140461D01*
X50219048Y-48140461D02*
X50180953Y-48216652D01*
X50180953Y-48216652D02*
X50180953Y-48292842D01*
X50180953Y-48292842D02*
X50219048Y-48407128D01*
X50219048Y-48407128D02*
X50676191Y-48864271D01*
X50676191Y-48864271D02*
X50180953Y-48864271D01*
X49228571Y-48559509D02*
X48619048Y-48559509D01*
X47285714Y-48330937D02*
X47285714Y-48864271D01*
X47476190Y-48026176D02*
X47666667Y-48597604D01*
X47666667Y-48597604D02*
X47171428Y-48597604D01*
X46485714Y-48864271D02*
X46866666Y-48864271D01*
X46866666Y-48864271D02*
X46866666Y-48064271D01*
X45038095Y-48026176D02*
X45723809Y-49054747D01*
X44009523Y-48064271D02*
X43933333Y-48064271D01*
X43933333Y-48064271D02*
X43857142Y-48102366D01*
X43857142Y-48102366D02*
X43819047Y-48140461D01*
X43819047Y-48140461D02*
X43780952Y-48216652D01*
X43780952Y-48216652D02*
X43742857Y-48369033D01*
X43742857Y-48369033D02*
X43742857Y-48559509D01*
X43742857Y-48559509D02*
X43780952Y-48711890D01*
X43780952Y-48711890D02*
X43819047Y-48788080D01*
X43819047Y-48788080D02*
X43857142Y-48826176D01*
X43857142Y-48826176D02*
X43933333Y-48864271D01*
X43933333Y-48864271D02*
X44009523Y-48864271D01*
X44009523Y-48864271D02*
X44085714Y-48826176D01*
X44085714Y-48826176D02*
X44123809Y-48788080D01*
X44123809Y-48788080D02*
X44161904Y-48711890D01*
X44161904Y-48711890D02*
X44200000Y-48559509D01*
X44200000Y-48559509D02*
X44200000Y-48369033D01*
X44200000Y-48369033D02*
X44161904Y-48216652D01*
X44161904Y-48216652D02*
X44123809Y-48140461D01*
X44123809Y-48140461D02*
X44085714Y-48102366D01*
X44085714Y-48102366D02*
X44009523Y-48064271D01*
X43399999Y-48788080D02*
X43361904Y-48826176D01*
X43361904Y-48826176D02*
X43399999Y-48864271D01*
X43399999Y-48864271D02*
X43438095Y-48826176D01*
X43438095Y-48826176D02*
X43399999Y-48788080D01*
X43399999Y-48788080D02*
X43399999Y-48864271D01*
X42904762Y-48407128D02*
X42980952Y-48369033D01*
X42980952Y-48369033D02*
X43019047Y-48330937D01*
X43019047Y-48330937D02*
X43057143Y-48254747D01*
X43057143Y-48254747D02*
X43057143Y-48216652D01*
X43057143Y-48216652D02*
X43019047Y-48140461D01*
X43019047Y-48140461D02*
X42980952Y-48102366D01*
X42980952Y-48102366D02*
X42904762Y-48064271D01*
X42904762Y-48064271D02*
X42752381Y-48064271D01*
X42752381Y-48064271D02*
X42676190Y-48102366D01*
X42676190Y-48102366D02*
X42638095Y-48140461D01*
X42638095Y-48140461D02*
X42600000Y-48216652D01*
X42600000Y-48216652D02*
X42600000Y-48254747D01*
X42600000Y-48254747D02*
X42638095Y-48330937D01*
X42638095Y-48330937D02*
X42676190Y-48369033D01*
X42676190Y-48369033D02*
X42752381Y-48407128D01*
X42752381Y-48407128D02*
X42904762Y-48407128D01*
X42904762Y-48407128D02*
X42980952Y-48445223D01*
X42980952Y-48445223D02*
X43019047Y-48483318D01*
X43019047Y-48483318D02*
X43057143Y-48559509D01*
X43057143Y-48559509D02*
X43057143Y-48711890D01*
X43057143Y-48711890D02*
X43019047Y-48788080D01*
X43019047Y-48788080D02*
X42980952Y-48826176D01*
X42980952Y-48826176D02*
X42904762Y-48864271D01*
X42904762Y-48864271D02*
X42752381Y-48864271D01*
X42752381Y-48864271D02*
X42676190Y-48826176D01*
X42676190Y-48826176D02*
X42638095Y-48788080D01*
X42638095Y-48788080D02*
X42600000Y-48711890D01*
X42600000Y-48711890D02*
X42600000Y-48559509D01*
X42600000Y-48559509D02*
X42638095Y-48483318D01*
X42638095Y-48483318D02*
X42676190Y-48445223D01*
X42676190Y-48445223D02*
X42752381Y-48407128D01*
X41647618Y-48864271D02*
X41647618Y-48330937D01*
X41647618Y-48407128D02*
X41609523Y-48369033D01*
X41609523Y-48369033D02*
X41533333Y-48330937D01*
X41533333Y-48330937D02*
X41419047Y-48330937D01*
X41419047Y-48330937D02*
X41342856Y-48369033D01*
X41342856Y-48369033D02*
X41304761Y-48445223D01*
X41304761Y-48445223D02*
X41304761Y-48864271D01*
X41304761Y-48445223D02*
X41266666Y-48369033D01*
X41266666Y-48369033D02*
X41190475Y-48330937D01*
X41190475Y-48330937D02*
X41076190Y-48330937D01*
X41076190Y-48330937D02*
X40999999Y-48369033D01*
X40999999Y-48369033D02*
X40961904Y-48445223D01*
X40961904Y-48445223D02*
X40961904Y-48864271D01*
X40580951Y-48864271D02*
X40580951Y-48330937D01*
X40580951Y-48407128D02*
X40542856Y-48369033D01*
X40542856Y-48369033D02*
X40466666Y-48330937D01*
X40466666Y-48330937D02*
X40352380Y-48330937D01*
X40352380Y-48330937D02*
X40276189Y-48369033D01*
X40276189Y-48369033D02*
X40238094Y-48445223D01*
X40238094Y-48445223D02*
X40238094Y-48864271D01*
X40238094Y-48445223D02*
X40199999Y-48369033D01*
X40199999Y-48369033D02*
X40123808Y-48330937D01*
X40123808Y-48330937D02*
X40009523Y-48330937D01*
X40009523Y-48330937D02*
X39933332Y-48369033D01*
X39933332Y-48369033D02*
X39895237Y-48445223D01*
X39895237Y-48445223D02*
X39895237Y-48864271D01*
X63085714Y-41945223D02*
X62971428Y-41983318D01*
X62971428Y-41983318D02*
X62933333Y-42021414D01*
X62933333Y-42021414D02*
X62895237Y-42097604D01*
X62895237Y-42097604D02*
X62895237Y-42211890D01*
X62895237Y-42211890D02*
X62933333Y-42288080D01*
X62933333Y-42288080D02*
X62971428Y-42326176D01*
X62971428Y-42326176D02*
X63047618Y-42364271D01*
X63047618Y-42364271D02*
X63352380Y-42364271D01*
X63352380Y-42364271D02*
X63352380Y-41564271D01*
X63352380Y-41564271D02*
X63085714Y-41564271D01*
X63085714Y-41564271D02*
X63009523Y-41602366D01*
X63009523Y-41602366D02*
X62971428Y-41640461D01*
X62971428Y-41640461D02*
X62933333Y-41716652D01*
X62933333Y-41716652D02*
X62933333Y-41792842D01*
X62933333Y-41792842D02*
X62971428Y-41869033D01*
X62971428Y-41869033D02*
X63009523Y-41907128D01*
X63009523Y-41907128D02*
X63085714Y-41945223D01*
X63085714Y-41945223D02*
X63352380Y-41945223D01*
X62590476Y-42135699D02*
X62209523Y-42135699D01*
X62666666Y-42364271D02*
X62399999Y-41564271D01*
X62399999Y-41564271D02*
X62133333Y-42364271D01*
X61980952Y-41564271D02*
X61523809Y-41564271D01*
X61752381Y-42364271D02*
X61752381Y-41564271D01*
X61257142Y-42059509D02*
X60647619Y-42059509D01*
X63085714Y-43945223D02*
X62971428Y-43983318D01*
X62971428Y-43983318D02*
X62933333Y-44021414D01*
X62933333Y-44021414D02*
X62895237Y-44097604D01*
X62895237Y-44097604D02*
X62895237Y-44211890D01*
X62895237Y-44211890D02*
X62933333Y-44288080D01*
X62933333Y-44288080D02*
X62971428Y-44326176D01*
X62971428Y-44326176D02*
X63047618Y-44364271D01*
X63047618Y-44364271D02*
X63352380Y-44364271D01*
X63352380Y-44364271D02*
X63352380Y-43564271D01*
X63352380Y-43564271D02*
X63085714Y-43564271D01*
X63085714Y-43564271D02*
X63009523Y-43602366D01*
X63009523Y-43602366D02*
X62971428Y-43640461D01*
X62971428Y-43640461D02*
X62933333Y-43716652D01*
X62933333Y-43716652D02*
X62933333Y-43792842D01*
X62933333Y-43792842D02*
X62971428Y-43869033D01*
X62971428Y-43869033D02*
X63009523Y-43907128D01*
X63009523Y-43907128D02*
X63085714Y-43945223D01*
X63085714Y-43945223D02*
X63352380Y-43945223D01*
X62590476Y-44135699D02*
X62209523Y-44135699D01*
X62666666Y-44364271D02*
X62399999Y-43564271D01*
X62399999Y-43564271D02*
X62133333Y-44364271D01*
X61980952Y-43564271D02*
X61523809Y-43564271D01*
X61752381Y-44364271D02*
X61752381Y-43564271D01*
X61257142Y-44059509D02*
X60647619Y-44059509D01*
X60952380Y-44364271D02*
X60952380Y-43754747D01*
%TO.C,C12*%
D11*
X32607836Y-59140000D02*
X32392164Y-59140000D01*
X32607836Y-59860000D02*
X32392164Y-59860000D01*
%TO.C,R2*%
X33620000Y-44153641D02*
X33620000Y-43846359D01*
X34380000Y-44153641D02*
X34380000Y-43846359D01*
%TO.C,R6*%
X34120000Y-96653641D02*
X34120000Y-96346359D01*
X34880000Y-96653641D02*
X34880000Y-96346359D01*
%TO.C,C21*%
X70238748Y-72465000D02*
X70761252Y-72465000D01*
X70238748Y-73935000D02*
X70761252Y-73935000D01*
%TO.C,C7*%
X64140000Y-94607836D02*
X64140000Y-94392164D01*
X64860000Y-94607836D02*
X64860000Y-94392164D01*
%TO.C,C8*%
X31859420Y-77490000D02*
X32140580Y-77490000D01*
X31859420Y-78510000D02*
X32140580Y-78510000D01*
%TO.C,TP6*%
X31700000Y-44000000D02*
G75*
G02*
X30300000Y-44000000I-700000J0D01*
G01*
X30300000Y-44000000D02*
G75*
G02*
X31700000Y-44000000I700000J0D01*
G01*
%TO.C,U4*%
D12*
X30170000Y-71830000D02*
X30170000Y-70170000D01*
X31830000Y-71830000D02*
X31830000Y-70170000D01*
D13*
X31780000Y-71750000D02*
G75*
G02*
X31720000Y-71750000I-30000J0D01*
G01*
X31720000Y-71750000D02*
G75*
G02*
X31780000Y-71750000I30000J0D01*
G01*
D14*
X31790000Y-72010000D02*
G75*
G02*
X31730000Y-72010000I-30000J0D01*
G01*
X31730000Y-72010000D02*
G75*
G02*
X31790000Y-72010000I30000J0D01*
G01*
%TO.C,U1*%
D15*
X37980000Y-27320000D02*
X37980000Y-20520000D01*
X37980000Y-46040000D02*
X37980000Y-45200000D01*
X38000000Y-20510000D02*
X56000000Y-20510000D01*
X39330000Y-46040000D02*
X37980000Y-46040000D01*
X39700000Y-21660000D02*
X41940000Y-21660000D01*
X39700000Y-26540000D02*
X39700000Y-21660000D01*
X41730000Y-21660000D02*
X44590000Y-21660000D01*
X41730000Y-26540000D02*
X41730000Y-21660000D01*
X44590000Y-21660000D02*
X44590000Y-23820000D01*
X44590000Y-23820000D02*
X47130000Y-23820000D01*
X47130000Y-21660000D02*
X49670000Y-21660000D01*
X47130000Y-23820000D02*
X47130000Y-21660000D01*
X49670000Y-21660000D02*
X49670000Y-23820000D01*
X49670000Y-23820000D02*
X51950000Y-23820000D01*
X51950000Y-21660000D02*
X54240000Y-21660000D01*
X51950000Y-23820000D02*
X51950000Y-21660000D01*
X54240000Y-21660000D02*
X54240000Y-25340000D01*
X56000000Y-20510000D02*
X56000000Y-27320000D01*
X56000000Y-26540000D02*
X37980000Y-26540000D01*
X56000000Y-45200000D02*
X56000000Y-46040000D01*
X56000000Y-46040000D02*
X54670000Y-46040000D01*
D13*
X56030000Y-20510000D02*
G75*
G02*
X55970000Y-20510000I-30000J0D01*
G01*
X55970000Y-20510000D02*
G75*
G02*
X56030000Y-20510000I30000J0D01*
G01*
D16*
%TO.C,C2*%
D11*
X59990000Y-28340580D02*
X59990000Y-28059420D01*
X61010000Y-28340580D02*
X61010000Y-28059420D01*
%TO.C,D4*%
X65500000Y-70360000D02*
X65500000Y-66350000D01*
X67500000Y-70360000D02*
X65500000Y-70360000D01*
X67500000Y-70360000D02*
X67500000Y-66350000D01*
%TO.C,R12*%
X70120000Y-50653641D02*
X70120000Y-50346359D01*
X70880000Y-50653641D02*
X70880000Y-50346359D01*
%TO.C,R3*%
X33620000Y-31353641D02*
X33620000Y-31046359D01*
X34380000Y-31353641D02*
X34380000Y-31046359D01*
%TO.C,R8*%
X31346359Y-91120000D02*
X31653641Y-91120000D01*
X31346359Y-91880000D02*
X31653641Y-91880000D01*
%TO.C,J3*%
X64240000Y-46340000D02*
X64240000Y-41660000D01*
X67810000Y-39940000D02*
X72060000Y-39940000D01*
X67810000Y-48060000D02*
X72060000Y-48060000D01*
X70460000Y-40960000D02*
X70460000Y-42240000D01*
X70460000Y-45760000D02*
X73350000Y-45760000D01*
X70460000Y-47040000D02*
X70460000Y-45760000D01*
X72060000Y-39940000D02*
X72060000Y-40960000D01*
X72060000Y-40960000D02*
X70460000Y-40960000D01*
X72060000Y-47040000D02*
X70460000Y-47040000D01*
X72060000Y-48060000D02*
X72060000Y-47040000D01*
%TO.C,TP3*%
X62700000Y-36000000D02*
G75*
G02*
X61300000Y-36000000I-700000J0D01*
G01*
X61300000Y-36000000D02*
G75*
G02*
X62700000Y-36000000I700000J0D01*
G01*
%TO.C,TP5*%
X62700000Y-33000000D02*
G75*
G02*
X61300000Y-33000000I-700000J0D01*
G01*
X61300000Y-33000000D02*
G75*
G02*
X62700000Y-33000000I700000J0D01*
G01*
%TO.C,R9*%
X64120000Y-92153641D02*
X64120000Y-91846359D01*
X64880000Y-92153641D02*
X64880000Y-91846359D01*
%TO.C,C6*%
X31359420Y-92990000D02*
X31640580Y-92990000D01*
X31359420Y-94010000D02*
X31640580Y-94010000D01*
%TO.C,Q1*%
D12*
X27470000Y-86140000D02*
X27470000Y-87860000D01*
X27470000Y-87860000D02*
X28510000Y-87860000D01*
X29460000Y-86140000D02*
X28540000Y-86140000D01*
X30530000Y-86140000D02*
X30530000Y-87860000D01*
X30530000Y-87860000D02*
X29490000Y-87860000D01*
D13*
X27530000Y-85580000D02*
G75*
G02*
X27470000Y-85580000I-30000J0D01*
G01*
X27470000Y-85580000D02*
G75*
G02*
X27530000Y-85580000I30000J0D01*
G01*
%TO.C,D3*%
D11*
X69500000Y-70360000D02*
X69500000Y-66350000D01*
X71500000Y-70360000D02*
X69500000Y-70360000D01*
X71500000Y-70360000D02*
X71500000Y-66350000D01*
%TO.C,R5*%
X32120000Y-96653641D02*
X32120000Y-96346359D01*
X32880000Y-96653641D02*
X32880000Y-96346359D01*
%TO.C,C5*%
X35990000Y-96640580D02*
X35990000Y-96359420D01*
X37010000Y-96640580D02*
X37010000Y-96359420D01*
%TO.C,U10*%
D12*
X33610000Y-99460000D02*
X35390000Y-99460000D01*
X33610000Y-102540000D02*
X35390000Y-102540000D01*
D13*
X33130000Y-102460000D02*
G75*
G02*
X33070000Y-102460000I-30000J0D01*
G01*
X33070000Y-102460000D02*
G75*
G02*
X33130000Y-102460000I30000J0D01*
G01*
D17*
X33350000Y-102670000D02*
G75*
G02*
X33050000Y-102670000I-150000J0D01*
G01*
X33050000Y-102670000D02*
G75*
G02*
X33350000Y-102670000I150000J0D01*
G01*
%TO.C,R16*%
D11*
X69772936Y-63490000D02*
X71227064Y-63490000D01*
X69772936Y-65310000D02*
X71227064Y-65310000D01*
%TO.C,U3*%
D12*
X30270000Y-61420000D02*
X30520000Y-61420000D01*
X30270000Y-62170000D02*
X30270000Y-61420000D01*
X30270000Y-63830000D02*
X30270000Y-64580000D01*
X30270000Y-64580000D02*
X30520000Y-64580000D01*
X32930000Y-61420000D02*
X32680000Y-61420000D01*
X32930000Y-62170000D02*
X32930000Y-61420000D01*
X32930000Y-63830000D02*
X32930000Y-64580000D01*
X32930000Y-64580000D02*
X32680000Y-64580000D01*
X32440000Y-64910000D02*
G75*
G02*
X32280000Y-64910000I-80000J0D01*
G01*
X32280000Y-64910000D02*
G75*
G02*
X32440000Y-64910000I80000J0D01*
G01*
D13*
X32880000Y-64500000D02*
G75*
G02*
X32820000Y-64500000I-30000J0D01*
G01*
X32820000Y-64500000D02*
G75*
G02*
X32880000Y-64500000I30000J0D01*
G01*
%TO.C,TP2*%
D11*
X71700000Y-95000000D02*
G75*
G02*
X70300000Y-95000000I-700000J0D01*
G01*
X70300000Y-95000000D02*
G75*
G02*
X71700000Y-95000000I700000J0D01*
G01*
%TO.C,C20*%
X66738748Y-52265000D02*
X67261252Y-52265000D01*
X66738748Y-53735000D02*
X67261252Y-53735000D01*
%TO.C,J2*%
X39350000Y-95900000D02*
X54650000Y-95900000D01*
X39350000Y-97640000D02*
X39350000Y-95900000D01*
X39350000Y-101700000D02*
X39350000Y-100360000D01*
X40840000Y-101700000D02*
X39350000Y-101700000D01*
X40840000Y-101700000D02*
X40840000Y-102900000D01*
X53160000Y-101700000D02*
X54650000Y-101700000D01*
X54650000Y-95900000D02*
X54650000Y-97640000D01*
X54650000Y-101700000D02*
X54650000Y-100360000D01*
%TO.C,U8*%
D15*
X65890000Y-97500000D02*
X70160000Y-97500000D01*
X65890000Y-100500000D02*
X65890000Y-97500000D01*
X65890000Y-100500000D02*
X67290000Y-100500000D01*
X68760000Y-100500000D02*
X70160000Y-100500000D01*
X70160000Y-97540000D02*
X70160000Y-100500000D01*
D17*
X65430148Y-100732541D02*
G75*
G02*
X65430000Y-100730000I-150147J-7470D01*
G01*
D15*
X67310000Y-100500000D02*
G75*
G02*
X68770000Y-100500000I730000J0D01*
G01*
D18*
X64850000Y-100500000D02*
G75*
G02*
X64750000Y-100500000I-50000J0D01*
G01*
X64750000Y-100500000D02*
G75*
G02*
X64850000Y-100500000I50000J0D01*
G01*
%TO.C,R14*%
D11*
X32346359Y-52120000D02*
X32653641Y-52120000D01*
X32346359Y-52880000D02*
X32653641Y-52880000D01*
%TO.C,Q2*%
D12*
X65470000Y-49640000D02*
X65470000Y-51360000D01*
X65470000Y-51360000D02*
X66510000Y-51360000D01*
X67460000Y-49640000D02*
X66540000Y-49640000D01*
X68530000Y-49640000D02*
X68530000Y-51360000D01*
X68530000Y-51360000D02*
X67490000Y-51360000D01*
D13*
X65530000Y-49080000D02*
G75*
G02*
X65470000Y-49080000I-30000J0D01*
G01*
X65470000Y-49080000D02*
G75*
G02*
X65530000Y-49080000I30000J0D01*
G01*
%TO.C,TP1*%
D11*
X29200000Y-80500000D02*
G75*
G02*
X27800000Y-80500000I-700000J0D01*
G01*
X27800000Y-80500000D02*
G75*
G02*
X29200000Y-80500000I700000J0D01*
G01*
%TO.C,C22*%
X65738748Y-76265000D02*
X66261252Y-76265000D01*
X65738748Y-77735000D02*
X66261252Y-77735000D01*
%TO.C,U2*%
D15*
X34800000Y-21260000D02*
X31000000Y-21260000D01*
X34800000Y-26340000D02*
X31000000Y-26340000D01*
D13*
X29930000Y-26250000D02*
G75*
G02*
X29870000Y-26250000I-30000J0D01*
G01*
X29870000Y-26250000D02*
G75*
G02*
X29930000Y-26250000I30000J0D01*
G01*
D15*
X31400000Y-26970000D02*
G75*
G02*
X30840000Y-26970000I-280000J0D01*
G01*
X30840000Y-26970000D02*
G75*
G02*
X31400000Y-26970000I280000J0D01*
G01*
%TO.C,R7*%
D11*
X31346359Y-89120000D02*
X31653641Y-89120000D01*
X31346359Y-89880000D02*
X31653641Y-89880000D01*
%TO.C,R15*%
X70120000Y-62153641D02*
X70120000Y-61846359D01*
X70880000Y-62153641D02*
X70880000Y-61846359D01*
%TO.C,U9*%
D12*
X30850000Y-79470000D02*
X32550000Y-79470000D01*
X30850000Y-82530000D02*
X32550000Y-82530000D01*
X32550000Y-80520000D02*
X32550000Y-81480000D01*
D13*
X30360000Y-82420000D02*
G75*
G02*
X30300000Y-82420000I-30000J0D01*
G01*
X30300000Y-82420000D02*
G75*
G02*
X30360000Y-82420000I30000J0D01*
G01*
D17*
X30710000Y-82650000D02*
G75*
G02*
X30410000Y-82650000I-150000J0D01*
G01*
X30410000Y-82650000D02*
G75*
G02*
X30710000Y-82650000I150000J0D01*
G01*
%TO.C,C24*%
D11*
X65738748Y-79265000D02*
X66261252Y-79265000D01*
X65738748Y-80735000D02*
X66261252Y-80735000D01*
%TO.C,C28*%
X65738748Y-85265000D02*
X66261252Y-85265000D01*
X65738748Y-86735000D02*
X66261252Y-86735000D01*
%TO.C,C23*%
X69738748Y-76265000D02*
X70261252Y-76265000D01*
X69738748Y-77735000D02*
X70261252Y-77735000D01*
%TO.C,C25*%
X69738748Y-79265000D02*
X70261252Y-79265000D01*
X69738748Y-80735000D02*
X70261252Y-80735000D01*
%TO.C,R17*%
X32620000Y-29153641D02*
X32620000Y-28846359D01*
X33380000Y-29153641D02*
X33380000Y-28846359D01*
%TO.C,Q3*%
X65865000Y-62265000D02*
X65865000Y-63735000D01*
X66515000Y-62265000D02*
X65865000Y-62265000D01*
X66835000Y-63735000D02*
X67165000Y-63735000D01*
X68135000Y-62265000D02*
X67485000Y-62265000D01*
X68135000Y-63735000D02*
X68135000Y-62265000D01*
X67160000Y-64180000D02*
X66970000Y-64040000D01*
X66970000Y-64320000D01*
X67160000Y-64180000D01*
G36*
X67160000Y-64180000D02*
G01*
X66970000Y-64320000D01*
X66970000Y-64040000D01*
X67160000Y-64180000D01*
G37*
%TO.C,C11*%
X35440000Y-28907836D02*
X35440000Y-28692164D01*
X36160000Y-28907836D02*
X36160000Y-28692164D01*
%TO.C,U6*%
D15*
X23950000Y-88950000D02*
X23950000Y-94050000D01*
X25200000Y-94050000D02*
X23950000Y-94050000D01*
X26800000Y-94050000D02*
X28050000Y-94050000D01*
X28050000Y-88950000D02*
X23950000Y-88950000D01*
X28050000Y-94050000D02*
X28050000Y-88950000D01*
X25200000Y-94000000D02*
G75*
G02*
X26803646Y-94007773I800000J-380000D01*
G01*
D13*
X23080000Y-93950000D02*
G75*
G02*
X23020000Y-93950000I-30000J0D01*
G01*
X23020000Y-93950000D02*
G75*
G02*
X23080000Y-93950000I30000J0D01*
G01*
D15*
X23670000Y-94530000D02*
G75*
G02*
X23330000Y-94530000I-170000J0D01*
G01*
X23330000Y-94530000D02*
G75*
G02*
X23670000Y-94530000I170000J0D01*
G01*
%TO.C,C3*%
D11*
X59490000Y-31340580D02*
X59490000Y-31059420D01*
X60510000Y-31340580D02*
X60510000Y-31059420D01*
%TO.C,R11*%
X31846359Y-88120000D02*
X32153641Y-88120000D01*
X31846359Y-88880000D02*
X32153641Y-88880000D01*
%TO.C,R4*%
X33620000Y-33853641D02*
X33620000Y-33546359D01*
X34380000Y-33853641D02*
X34380000Y-33546359D01*
%TO.C,C4*%
X33640000Y-28607836D02*
X33640000Y-28392164D01*
X34360000Y-28607836D02*
X34360000Y-28392164D01*
%TO.C,U7*%
D15*
X66450000Y-94400000D02*
X66450000Y-92600000D01*
X69550000Y-94400000D02*
X69550000Y-92600000D01*
X66470000Y-92100000D02*
G75*
G02*
X66230000Y-92100000I-120000J0D01*
G01*
X66230000Y-92100000D02*
G75*
G02*
X66470000Y-92100000I120000J0D01*
G01*
D13*
X66580000Y-92100000D02*
G75*
G02*
X66520000Y-92100000I-30000J0D01*
G01*
X66520000Y-92100000D02*
G75*
G02*
X66580000Y-92100000I30000J0D01*
G01*
%TO.C,L1*%
D15*
X65500000Y-55500000D02*
X65500000Y-55670000D01*
X65500000Y-60330000D02*
X65500000Y-60500000D01*
X65500000Y-60500000D02*
X70500000Y-60500000D01*
X70500000Y-55500000D02*
X65500000Y-55500000D01*
X70500000Y-55670000D02*
X70500000Y-55500000D01*
X70500000Y-60500000D02*
X70500000Y-60330000D01*
%TO.C,C10*%
D11*
X32607836Y-73140000D02*
X32392164Y-73140000D01*
X32607836Y-73860000D02*
X32392164Y-73860000D01*
%TO.C,C26*%
X65738748Y-82265000D02*
X66261252Y-82265000D01*
X65738748Y-83735000D02*
X66261252Y-83735000D01*
%TO.C,C29*%
X28440000Y-23907836D02*
X28440000Y-23692164D01*
X29160000Y-23907836D02*
X29160000Y-23692164D01*
%TO.C,C13*%
X31340580Y-65990000D02*
X31059420Y-65990000D01*
X31340580Y-67010000D02*
X31059420Y-67010000D01*
%TO.C,C14*%
X32607836Y-68140000D02*
X32392164Y-68140000D01*
X32607836Y-68860000D02*
X32392164Y-68860000D01*
%TO.C,R13*%
X32346359Y-50120000D02*
X32653641Y-50120000D01*
X32346359Y-50880000D02*
X32653641Y-50880000D01*
%TO.C,TP4*%
X62700000Y-39000000D02*
G75*
G02*
X61300000Y-39000000I-700000J0D01*
G01*
X61300000Y-39000000D02*
G75*
G02*
X62700000Y-39000000I700000J0D01*
G01*
%TO.C,C27*%
X69738748Y-82265000D02*
X70261252Y-82265000D01*
X69738748Y-83735000D02*
X70261252Y-83735000D01*
%TO.C,C1*%
X57640000Y-28307836D02*
X57640000Y-28092164D01*
X58360000Y-28307836D02*
X58360000Y-28092164D01*
%TO.C,U5*%
D12*
X30920000Y-74920000D02*
X32570000Y-74920000D01*
X30920000Y-77080000D02*
X32570000Y-77080000D01*
X33080000Y-74920000D02*
X31430000Y-74920000D01*
X33080000Y-77080000D02*
X31430000Y-77080000D01*
D19*
X30670000Y-76750000D02*
G75*
G02*
X30470000Y-76750000I-100000J0D01*
G01*
X30470000Y-76750000D02*
G75*
G02*
X30670000Y-76750000I100000J0D01*
G01*
D13*
X31030000Y-77000000D02*
G75*
G02*
X30970000Y-77000000I-30000J0D01*
G01*
X30970000Y-77000000D02*
G75*
G02*
X31030000Y-77000000I30000J0D01*
G01*
%TO.C,C9*%
D11*
X32040580Y-83490000D02*
X31759420Y-83490000D01*
X32040580Y-84510000D02*
X31759420Y-84510000D01*
%TO.C,J1*%
D15*
X21530000Y-95410000D02*
X21530000Y-96890000D01*
X21530000Y-99120000D02*
X21530000Y-100990000D01*
X30470000Y-95410000D02*
X21530000Y-95410000D01*
X30470000Y-95410000D02*
X30470000Y-96890000D01*
X30470000Y-99120000D02*
X30470000Y-100990000D01*
D13*
X30500000Y-103260000D02*
G75*
G02*
X30440000Y-103260000I-30000J0D01*
G01*
X30440000Y-103260000D02*
G75*
G02*
X30500000Y-103260000I30000J0D01*
G01*
%TO.C,R1*%
D11*
X57120000Y-31353641D02*
X57120000Y-31046359D01*
X57880000Y-31353641D02*
X57880000Y-31046359D01*
%TO.C,D2*%
X65500000Y-75560000D02*
X65500000Y-71550000D01*
X67500000Y-75560000D02*
X65500000Y-75560000D01*
X67500000Y-75560000D02*
X67500000Y-71550000D01*
%TO.C,R10*%
X70620000Y-92153641D02*
X70620000Y-91846359D01*
X71380000Y-92153641D02*
X71380000Y-91846359D01*
%TD*%
%LPC*%
D20*
%TO.C,C12*%
X32980000Y-59500000D03*
X32020000Y-59500000D03*
%TD*%
D21*
%TO.C,R2*%
X34000000Y-44510000D03*
X34000000Y-43490000D03*
%TD*%
%TO.C,R6*%
X34500000Y-97010000D03*
X34500000Y-95990000D03*
%TD*%
D22*
%TO.C,C21*%
X69550000Y-73200000D03*
X71450000Y-73200000D03*
%TD*%
D23*
%TO.C,C7*%
X64500000Y-94980000D03*
X64500000Y-94020000D03*
%TD*%
D24*
%TO.C,C8*%
X31225000Y-78000000D03*
X32775000Y-78000000D03*
%TD*%
D25*
%TO.C,TP6*%
X31000000Y-44000000D03*
%TD*%
D26*
%TO.C,U4*%
X31400000Y-71680000D03*
X30600000Y-71680000D03*
X30600000Y-70320000D03*
X31400000Y-70320000D03*
D27*
X31000000Y-71000000D03*
%TD*%
D28*
%TO.C,U1*%
X55750000Y-28010000D03*
X55750000Y-29280000D03*
X55750000Y-30550000D03*
X55750000Y-31820000D03*
X55750000Y-33090000D03*
X55750000Y-34360000D03*
X55750000Y-35630000D03*
X55750000Y-36900000D03*
X55750000Y-38170000D03*
X55750000Y-39440000D03*
X55750000Y-40710000D03*
X55750000Y-41980000D03*
X55750000Y-43250000D03*
X55750000Y-44520000D03*
D29*
X53990000Y-45790000D03*
X52720000Y-45790000D03*
X51450000Y-45790000D03*
X50170000Y-45790000D03*
X48900000Y-45790000D03*
X47630000Y-45790000D03*
X46360000Y-45790000D03*
X45090000Y-45790000D03*
X43820000Y-45790000D03*
X42550000Y-45790000D03*
X41280000Y-45790000D03*
X40010000Y-45760000D03*
D28*
X38250000Y-44520000D03*
X38250000Y-43250000D03*
X38250000Y-41980000D03*
X38250000Y-40710000D03*
X38250000Y-39440000D03*
X38250000Y-38170000D03*
X38250000Y-36900000D03*
X38250000Y-35630000D03*
X38250000Y-34360000D03*
X38250000Y-33090000D03*
X38250000Y-31820000D03*
X38250000Y-30550000D03*
X38250000Y-29280000D03*
X38250000Y-28010000D03*
D30*
X49900000Y-37130000D03*
X49900000Y-35730000D03*
X49900000Y-34330000D03*
X48500000Y-37130000D03*
X48500000Y-35730000D03*
X48500000Y-34330000D03*
X47100000Y-37130000D03*
X47100000Y-35730000D03*
X47100000Y-34330000D03*
%TD*%
D31*
%TO.C,C2*%
X60500000Y-28975000D03*
X60500000Y-27425000D03*
%TD*%
D32*
%TO.C,D4*%
X66500000Y-69650000D03*
X66500000Y-66350000D03*
%TD*%
D21*
%TO.C,R12*%
X70500000Y-51010000D03*
X70500000Y-49990000D03*
%TD*%
%TO.C,R3*%
X34000000Y-31710000D03*
X34000000Y-30690000D03*
%TD*%
D33*
%TO.C,R8*%
X30990000Y-91500000D03*
X32010000Y-91500000D03*
%TD*%
D34*
%TO.C,J3*%
X71600000Y-45000000D03*
X71600000Y-43000000D03*
D35*
X65850000Y-47350000D03*
X65850000Y-40650000D03*
%TD*%
D25*
%TO.C,TP3*%
X62000000Y-36000000D03*
%TD*%
%TO.C,TP5*%
X62000000Y-33000000D03*
%TD*%
D21*
%TO.C,R9*%
X64500000Y-92510000D03*
X64500000Y-91490000D03*
%TD*%
D24*
%TO.C,C6*%
X30725000Y-93500000D03*
X32275000Y-93500000D03*
%TD*%
D36*
%TO.C,Q1*%
X28050000Y-85900000D03*
X29950000Y-85900000D03*
X29000000Y-88100000D03*
%TD*%
D32*
%TO.C,D3*%
X70500000Y-69650000D03*
X70500000Y-66350000D03*
%TD*%
D21*
%TO.C,R5*%
X32500000Y-97010000D03*
X32500000Y-95990000D03*
%TD*%
D31*
%TO.C,C5*%
X36500000Y-97275000D03*
X36500000Y-95725000D03*
%TD*%
D37*
%TO.C,U10*%
X33350000Y-101950000D03*
X33350000Y-101000000D03*
X33350000Y-100050000D03*
X35650000Y-100050000D03*
X35650000Y-101000000D03*
X35650000Y-101950000D03*
%TD*%
D38*
%TO.C,R16*%
X69037500Y-64400000D03*
X71962500Y-64400000D03*
%TD*%
D39*
%TO.C,U3*%
X32350000Y-64260000D03*
X31850000Y-64260000D03*
X31350000Y-64260000D03*
X30850000Y-64260000D03*
D40*
X30590000Y-63500000D03*
X30590000Y-63000000D03*
X30590000Y-62500000D03*
D39*
X30850000Y-61740000D03*
X31350000Y-61740000D03*
X31850000Y-61740000D03*
X32350000Y-61740000D03*
D40*
X32610000Y-62500000D03*
X32610000Y-63000000D03*
X32610000Y-63500000D03*
%TD*%
D25*
%TO.C,TP2*%
X71000000Y-95000000D03*
%TD*%
D22*
%TO.C,C20*%
X66050000Y-53000000D03*
X67950000Y-53000000D03*
%TD*%
D41*
%TO.C,J2*%
X41250000Y-102250000D03*
X41750000Y-102250000D03*
X42250000Y-102250000D03*
X42750000Y-102250000D03*
X43250000Y-102250000D03*
X43750000Y-102250000D03*
X44250000Y-102250000D03*
X44750000Y-102250000D03*
X45250000Y-102250000D03*
X45750000Y-102250000D03*
X46250000Y-102250000D03*
X46750000Y-102250000D03*
X47250000Y-102250000D03*
X47750000Y-102250000D03*
X48250000Y-102250000D03*
X48750000Y-102250000D03*
X49250000Y-102250000D03*
X49750000Y-102250000D03*
X50250000Y-102250000D03*
X50750000Y-102250000D03*
X51250000Y-102250000D03*
X51750000Y-102250000D03*
X52250000Y-102250000D03*
X52750000Y-102250000D03*
D42*
X39350000Y-99000000D03*
X54650000Y-99000000D03*
%TD*%
D43*
%TO.C,U8*%
X64800000Y-99980000D03*
X64800000Y-99320000D03*
X64800000Y-98670000D03*
X64800000Y-98020000D03*
X71200000Y-98020000D03*
X71200000Y-98670000D03*
X71200000Y-99320000D03*
X71200000Y-99980000D03*
%TD*%
D33*
%TO.C,R14*%
X31990000Y-52500000D03*
X33010000Y-52500000D03*
%TD*%
D36*
%TO.C,Q2*%
X66050000Y-49400000D03*
X67950000Y-49400000D03*
X67000000Y-51600000D03*
%TD*%
D25*
%TO.C,TP1*%
X28500000Y-80500000D03*
%TD*%
D22*
%TO.C,C22*%
X65050000Y-77000000D03*
X66950000Y-77000000D03*
%TD*%
D44*
%TO.C,U2*%
X30450000Y-25700000D03*
X30450000Y-24430000D03*
X30450000Y-23170000D03*
X30450000Y-21900000D03*
X35350000Y-21900000D03*
X35350000Y-23170000D03*
X35350000Y-24430000D03*
X35350000Y-25700000D03*
%TD*%
D33*
%TO.C,R7*%
X30990000Y-89500000D03*
X32010000Y-89500000D03*
%TD*%
D21*
%TO.C,R15*%
X70500000Y-62510000D03*
X70500000Y-61490000D03*
%TD*%
D45*
%TO.C,U9*%
X30550000Y-81950000D03*
X30550000Y-81000000D03*
X30550000Y-80050000D03*
D46*
X32850000Y-80050000D03*
X32850000Y-81950000D03*
%TD*%
D22*
%TO.C,C24*%
X65050000Y-80000000D03*
X66950000Y-80000000D03*
%TD*%
%TO.C,C28*%
X65050000Y-86000000D03*
X66950000Y-86000000D03*
%TD*%
%TO.C,C23*%
X69050000Y-77000000D03*
X70950000Y-77000000D03*
%TD*%
%TO.C,C25*%
X69050000Y-80000000D03*
X70950000Y-80000000D03*
%TD*%
D21*
%TO.C,R17*%
X33000000Y-29510000D03*
X33000000Y-28490000D03*
%TD*%
D47*
%TO.C,Q3*%
X67650000Y-63887500D03*
X66350000Y-63887500D03*
X67000000Y-62112500D03*
%TD*%
D23*
%TO.C,C11*%
X35800000Y-29280000D03*
X35800000Y-28320000D03*
%TD*%
D48*
%TO.C,U6*%
X23090000Y-93410000D03*
X23090000Y-92130000D03*
X23090000Y-90860000D03*
X23090000Y-89590000D03*
X28910000Y-89590000D03*
X28910000Y-90860000D03*
X28910000Y-92130000D03*
X28910000Y-93410000D03*
D49*
X26000000Y-91500000D03*
%TD*%
D31*
%TO.C,C3*%
X60000000Y-31975000D03*
X60000000Y-30425000D03*
%TD*%
D33*
%TO.C,R11*%
X31490000Y-88500000D03*
X32510000Y-88500000D03*
%TD*%
D21*
%TO.C,R4*%
X34000000Y-34210000D03*
X34000000Y-33190000D03*
%TD*%
D23*
%TO.C,C4*%
X34000000Y-28980000D03*
X34000000Y-28020000D03*
%TD*%
D50*
%TO.C,U7*%
X67050000Y-92150000D03*
X68000000Y-92150000D03*
X68950000Y-92150000D03*
X68950000Y-94850000D03*
X68000000Y-94850000D03*
X67050000Y-94850000D03*
%TD*%
D51*
%TO.C,L1*%
X66450000Y-58000000D03*
X69550000Y-58000000D03*
%TD*%
D20*
%TO.C,C10*%
X32980000Y-73500000D03*
X32020000Y-73500000D03*
%TD*%
D22*
%TO.C,C26*%
X65050000Y-83000000D03*
X66950000Y-83000000D03*
%TD*%
D23*
%TO.C,C29*%
X28800000Y-24280000D03*
X28800000Y-23320000D03*
%TD*%
D52*
%TO.C,C13*%
X31975000Y-66500000D03*
X30425000Y-66500000D03*
%TD*%
D20*
%TO.C,C14*%
X32980000Y-68500000D03*
X32020000Y-68500000D03*
%TD*%
D33*
%TO.C,R13*%
X31990000Y-50500000D03*
X33010000Y-50500000D03*
%TD*%
D25*
%TO.C,TP4*%
X62000000Y-39000000D03*
%TD*%
D22*
%TO.C,C27*%
X69050000Y-83000000D03*
X70950000Y-83000000D03*
%TD*%
D23*
%TO.C,C1*%
X58000000Y-28680000D03*
X58000000Y-27720000D03*
%TD*%
D53*
%TO.C,U5*%
X31060000Y-76750000D03*
X31060000Y-76250000D03*
X31060000Y-75750000D03*
X31060000Y-75250000D03*
X32940000Y-75250000D03*
X32940000Y-75750000D03*
X32940000Y-76250000D03*
X32940000Y-76750000D03*
D54*
X32000000Y-76000000D03*
%TD*%
D52*
%TO.C,C9*%
X32675000Y-84000000D03*
X31125000Y-84000000D03*
%TD*%
D55*
%TO.C,J1*%
X23100000Y-101710000D03*
X28900000Y-101710000D03*
D56*
X30330000Y-102210000D03*
D57*
X30330000Y-98030000D03*
X21670000Y-98030000D03*
D56*
X21670000Y-102210000D03*
D58*
X22800000Y-102970000D03*
D59*
X23600000Y-102970000D03*
D41*
X24750000Y-102970000D03*
X25750000Y-102970000D03*
X26250000Y-102970000D03*
X27250000Y-102970000D03*
D60*
X29200000Y-102970000D03*
X28400000Y-102970000D03*
D41*
X27750000Y-102970000D03*
X26750000Y-102970000D03*
X25250000Y-102970000D03*
X24250000Y-102970000D03*
%TD*%
D21*
%TO.C,R1*%
X57500000Y-31710000D03*
X57500000Y-30690000D03*
%TD*%
D32*
%TO.C,D2*%
X66500000Y-74850000D03*
X66500000Y-71550000D03*
%TD*%
D21*
%TO.C,R10*%
X71000000Y-92510000D03*
X71000000Y-91490000D03*
%TD*%
%LPD*%
M02*
