%TF.GenerationSoftware,KiCad,Pcbnew,10.0.5*%
%TF.CreationDate,2026-08-18T10:53:11+00:00*%
%TF.ProjectId,the-card,7468652d-6361-4726-942e-6b696361645f,A*%
%TF.SameCoordinates,Original*%
%TF.FileFunction,Paste,Bot*%
%TF.FilePolarity,Positive*%
%FSLAX46Y46*%
G04 Gerber Fmt 4.6, Leading zero omitted, Abs format (unit mm)*
G04 Created by KiCad (PCBNEW 10.0.5) date 2026-08-18 10:53:11*
%MOMM*%
%LPD*%
G01*
G04 APERTURE LIST*
G04 Aperture macros list*
%AMRoundRect*
0 Rectangle with rounded corners*
0 $1 Rounding radius*
0 $2 $3 $4 $5 $6 $7 $8 $9 X,Y pos of 4 corners*
0 Add a 4 corners polygon primitive as box body*
4,1,4,$2,$3,$4,$5,$6,$7,$8,$9,$2,$3,0*
0 Add four circle primitives for the rounded corners*
1,1,$1+$1,$2,$3*
1,1,$1+$1,$4,$5*
1,1,$1+$1,$6,$7*
1,1,$1+$1,$8,$9*
0 Add four rect primitives between the rounded corners*
20,1,$1+$1,$2,$3,$4,$5,0*
20,1,$1+$1,$4,$5,$6,$7,0*
20,1,$1+$1,$6,$7,$8,$9,0*
20,1,$1+$1,$8,$9,$2,$3,0*%
%AMFreePoly0*
4,1,17,0.000318,0.699935,0.299923,0.699935,0.335278,0.685290,0.349923,0.649935,0.349923,-0.650088,0.335278,-0.685443,0.299923,-0.700088,-0.000076,-0.700088,-0.000445,-0.699935,-0.300050,-0.699935,-0.335405,-0.685290,-0.350050,-0.649935,-0.350050,0.650088,-0.335405,0.685443,-0.300050,0.700088,-0.000051,0.700088,0.000318,0.699935,0.000318,0.699935,$1*%
%AMFreePoly1*
4,1,17,0.000187,0.700037,0.300076,0.700037,0.335431,0.685392,0.350076,0.650037,0.350076,-0.649935,0.335431,-0.685290,0.300076,-0.699935,0.000051,-0.699935,-0.000009,-0.699910,-0.299898,-0.699910,-0.335253,-0.685265,-0.349898,-0.649910,-0.349898,0.650062,-0.335253,0.685417,-0.299898,0.700062,0.000127,0.700062,0.000187,0.700037,0.000187,0.700037,$1*%
%AMFreePoly2*
4,1,13,0.335227,0.685239,0.349872,0.649884,0.349872,-0.650088,0.335227,-0.685443,0.299872,-0.700088,-0.300152,-0.700088,-0.335507,-0.685443,-0.350152,-0.650088,-0.350152,0.649884,-0.335507,0.685239,-0.300152,0.699884,0.299872,0.699884,0.335227,0.685239,0.335227,0.685239,$1*%
G04 Aperture macros list end*
%ADD10RoundRect,0.140000X0.170000X-0.140000X0.170000X0.140000X-0.170000X0.140000X-0.170000X-0.140000X0*%
%ADD11RoundRect,0.225000X0.375000X-0.225000X0.375000X0.225000X-0.375000X0.225000X-0.375000X-0.225000X0*%
%ADD12RoundRect,0.250000X-0.250000X-0.475000X0.250000X-0.475000X0.250000X0.475000X-0.250000X0.475000X0*%
%ADD13R,1.157000X0.490000*%
%ADD14R,1.175000X0.490000*%
%ADD15RoundRect,0.225000X0.250000X-0.225000X0.250000X0.225000X-0.250000X0.225000X-0.250000X-0.225000X0*%
%ADD16RoundRect,0.225000X-0.225000X-0.250000X0.225000X-0.250000X0.225000X0.250000X-0.225000X0.250000X0*%
%ADD17RoundRect,0.135000X0.185000X-0.135000X0.185000X0.135000X-0.185000X0.135000X-0.185000X-0.135000X0*%
%ADD18RoundRect,0.250000X-0.312500X-0.625000X0.312500X-0.625000X0.312500X0.625000X-0.312500X0.625000X0*%
%ADD19RoundRect,0.135000X-0.135000X-0.185000X0.135000X-0.185000X0.135000X0.185000X-0.135000X0.185000X0*%
%ADD20FreePoly0,0.000000*%
%ADD21FreePoly1,0.000000*%
%ADD22R,0.300000X1.300000*%
%ADD23FreePoly2,0.000000*%
%ADD24RoundRect,0.250000X1.500000X-0.250000X1.500000X0.250000X-1.500000X0.250000X-1.500000X-0.250000X0*%
%ADD25RoundRect,0.250001X1.449999X-0.499999X1.449999X0.499999X-1.449999X0.499999X-1.449999X-0.499999X0*%
%ADD26RoundRect,0.140000X-0.140000X-0.170000X0.140000X-0.170000X0.140000X0.170000X-0.140000X0.170000X0*%
%ADD27R,0.600000X1.100000*%
%ADD28R,1.500000X0.900000*%
%ADD29R,0.900000X1.500000*%
%ADD30R,0.900000X0.900000*%
%ADD31R,1.800000X0.600000*%
%ADD32R,1.900000X4.200000*%
%ADD33O,1.500000X0.400000*%
%ADD34R,1.800000X2.200000*%
%ADD35R,1.072000X0.532000*%
%ADD36R,0.532000X1.037000*%
%ADD37R,1.200000X0.600000*%
%ADD38R,2.400000X3.300000*%
%ADD39R,0.425000X0.280000*%
%ADD40R,0.800000X1.200000*%
%ADD41R,0.420000X0.505000*%
%ADD42R,1.100000X0.400000*%
%ADD43R,0.280000X0.675000*%
%ADD44R,0.675000X0.280000*%
%ADD45RoundRect,0.112500X0.112500X-0.350000X0.112500X0.350000X-0.112500X0.350000X-0.112500X-0.350000X0*%
G04 APERTURE END LIST*
D10*
%TO.C,C4*%
X34000000Y-28980000D03*
X34000000Y-28020000D03*
%TD*%
D11*
%TO.C,D4*%
X66500000Y-69650000D03*
X66500000Y-66350000D03*
%TD*%
D12*
%TO.C,C28*%
X65050000Y-86000000D03*
X66950000Y-86000000D03*
%TD*%
D13*
%TO.C,U9*%
X24850000Y-84450000D03*
X24850000Y-83500000D03*
X24850000Y-82550000D03*
D14*
X27150000Y-82550000D03*
X27150000Y-84450000D03*
%TD*%
D12*
%TO.C,C24*%
X65050000Y-80000000D03*
X66950000Y-80000000D03*
%TD*%
D15*
%TO.C,C3*%
X60000000Y-31975000D03*
X60000000Y-30425000D03*
%TD*%
D16*
%TO.C,C13*%
X30225000Y-64500000D03*
X31775000Y-64500000D03*
%TD*%
D17*
%TO.C,R12*%
X70500000Y-51010000D03*
X70500000Y-49990000D03*
%TD*%
%TO.C,R2*%
X34000000Y-44510000D03*
X34000000Y-43490000D03*
%TD*%
D18*
%TO.C,R16*%
X69037500Y-64400000D03*
X71962500Y-64400000D03*
%TD*%
D19*
%TO.C,R7*%
X30990000Y-89500000D03*
X32010000Y-89500000D03*
%TD*%
D15*
%TO.C,C2*%
X60500000Y-28975000D03*
X60500000Y-27425000D03*
%TD*%
D20*
%TO.C,J1*%
X22800000Y-102970000D03*
D21*
X23600000Y-102970000D03*
D22*
X24750000Y-102970000D03*
X25750000Y-102970000D03*
X26250000Y-102970000D03*
X27250000Y-102970000D03*
D23*
X29200000Y-102970000D03*
X28400000Y-102970000D03*
D22*
X27750000Y-102970000D03*
X26750000Y-102970000D03*
X25250000Y-102970000D03*
X24250000Y-102970000D03*
%TD*%
D19*
%TO.C,R8*%
X30990000Y-91500000D03*
X32010000Y-91500000D03*
%TD*%
D12*
%TO.C,C27*%
X69050000Y-83000000D03*
X70950000Y-83000000D03*
%TD*%
D19*
%TO.C,R11*%
X31490000Y-88500000D03*
X32510000Y-88500000D03*
%TD*%
D24*
%TO.C,J3*%
X71600000Y-45000000D03*
X71600000Y-43000000D03*
D25*
X65850000Y-47350000D03*
X65850000Y-40650000D03*
%TD*%
D26*
%TO.C,C12*%
X30520000Y-61500000D03*
X31480000Y-61500000D03*
%TD*%
D17*
%TO.C,R3*%
X34000000Y-31710000D03*
X34000000Y-30690000D03*
%TD*%
%TO.C,R4*%
X34000000Y-34210000D03*
X34000000Y-33190000D03*
%TD*%
D26*
%TO.C,C10*%
X30520000Y-78500000D03*
X31480000Y-78500000D03*
%TD*%
D19*
%TO.C,R14*%
X30490000Y-56500000D03*
X31510000Y-56500000D03*
%TD*%
D27*
%TO.C,U7*%
X67050000Y-92150000D03*
X68000000Y-92150000D03*
X68950000Y-92150000D03*
X68950000Y-94850000D03*
X68000000Y-94850000D03*
X67050000Y-94850000D03*
%TD*%
D28*
%TO.C,U1*%
X55750000Y-28010000D03*
X55750000Y-29280000D03*
X55750000Y-30550000D03*
X55750000Y-31820000D03*
X55750000Y-33090000D03*
X55750000Y-34360000D03*
X55750000Y-35630000D03*
X55750000Y-36900000D03*
X55750000Y-38170000D03*
X55750000Y-39440000D03*
X55750000Y-40710000D03*
X55750000Y-41980000D03*
X55750000Y-43250000D03*
X55750000Y-44520000D03*
D29*
X53990000Y-45790000D03*
X52720000Y-45790000D03*
X51450000Y-45790000D03*
X50170000Y-45790000D03*
X48900000Y-45790000D03*
X47630000Y-45790000D03*
X46360000Y-45790000D03*
X45090000Y-45790000D03*
X43820000Y-45790000D03*
X42550000Y-45790000D03*
X41280000Y-45790000D03*
X40010000Y-45760000D03*
D28*
X38250000Y-44520000D03*
X38250000Y-43250000D03*
X38250000Y-41980000D03*
X38250000Y-40710000D03*
X38250000Y-39440000D03*
X38250000Y-38170000D03*
X38250000Y-36900000D03*
X38250000Y-35630000D03*
X38250000Y-34360000D03*
X38250000Y-33090000D03*
X38250000Y-31820000D03*
X38250000Y-30550000D03*
X38250000Y-29280000D03*
X38250000Y-28010000D03*
D30*
X49900000Y-37130000D03*
X49900000Y-35730000D03*
X49900000Y-34330000D03*
X48500000Y-37130000D03*
X48500000Y-35730000D03*
X48500000Y-34330000D03*
X47100000Y-37130000D03*
X47100000Y-35730000D03*
X47100000Y-34330000D03*
%TD*%
D31*
%TO.C,U2*%
X23550000Y-55900000D03*
X23550000Y-54630000D03*
X23550000Y-53370000D03*
X23550000Y-52100000D03*
X28450000Y-52100000D03*
X28450000Y-53370000D03*
X28450000Y-54630000D03*
X28450000Y-55900000D03*
%TD*%
D11*
%TO.C,D3*%
X70500000Y-69650000D03*
X70500000Y-66350000D03*
%TD*%
D32*
%TO.C,L1*%
X66450000Y-58000000D03*
X69550000Y-58000000D03*
%TD*%
D33*
%TO.C,U8*%
X64800000Y-99980000D03*
X64800000Y-99320000D03*
X64800000Y-98670000D03*
X64800000Y-98020000D03*
X71200000Y-98020000D03*
X71200000Y-98670000D03*
X71200000Y-99320000D03*
X71200000Y-99980000D03*
%TD*%
D10*
%TO.C,C7*%
X64500000Y-94980000D03*
X64500000Y-94020000D03*
%TD*%
D17*
%TO.C,R10*%
X71000000Y-92510000D03*
X71000000Y-91490000D03*
%TD*%
%TO.C,R5*%
X32500000Y-97010000D03*
X32500000Y-95990000D03*
%TD*%
D12*
%TO.C,C21*%
X69550000Y-73200000D03*
X71450000Y-73200000D03*
%TD*%
D19*
%TO.C,R13*%
X30490000Y-54500000D03*
X31510000Y-54500000D03*
%TD*%
D22*
%TO.C,J2*%
X41250000Y-102250000D03*
X41750000Y-102250000D03*
X42250000Y-102250000D03*
X42750000Y-102250000D03*
X43250000Y-102250000D03*
X43750000Y-102250000D03*
X44250000Y-102250000D03*
X44750000Y-102250000D03*
X45250000Y-102250000D03*
X45750000Y-102250000D03*
X46250000Y-102250000D03*
X46750000Y-102250000D03*
X47250000Y-102250000D03*
X47750000Y-102250000D03*
X48250000Y-102250000D03*
X48750000Y-102250000D03*
X49250000Y-102250000D03*
X49750000Y-102250000D03*
X50250000Y-102250000D03*
X50750000Y-102250000D03*
X51250000Y-102250000D03*
X51750000Y-102250000D03*
X52250000Y-102250000D03*
X52750000Y-102250000D03*
D34*
X39350000Y-99000000D03*
X54650000Y-99000000D03*
%TD*%
D35*
%TO.C,U10*%
X33350000Y-101950000D03*
X33350000Y-101000000D03*
X33350000Y-100050000D03*
X35650000Y-100050000D03*
X35650000Y-101000000D03*
X35650000Y-101950000D03*
%TD*%
D16*
%TO.C,C8*%
X30225000Y-82000000D03*
X31775000Y-82000000D03*
%TD*%
D17*
%TO.C,R1*%
X57500000Y-31710000D03*
X57500000Y-30690000D03*
%TD*%
D12*
%TO.C,C23*%
X69050000Y-77000000D03*
X70950000Y-77000000D03*
%TD*%
D17*
%TO.C,R15*%
X70500000Y-62510000D03*
X70500000Y-61490000D03*
%TD*%
D36*
%TO.C,Q1*%
X28050000Y-85900000D03*
X29950000Y-85900000D03*
X29000000Y-88100000D03*
%TD*%
D26*
%TO.C,C14*%
X30520000Y-71000000D03*
X31480000Y-71000000D03*
%TD*%
D12*
%TO.C,C20*%
X66050000Y-53000000D03*
X67950000Y-53000000D03*
%TD*%
D26*
%TO.C,C11*%
X30720000Y-51500000D03*
X31680000Y-51500000D03*
%TD*%
D12*
%TO.C,C22*%
X65050000Y-77000000D03*
X66950000Y-77000000D03*
%TD*%
D16*
%TO.C,C9*%
X30225000Y-84500000D03*
X31775000Y-84500000D03*
%TD*%
D15*
%TO.C,C5*%
X36500000Y-97275000D03*
X36500000Y-95725000D03*
%TD*%
D37*
%TO.C,U6*%
X23090000Y-93410000D03*
X23090000Y-92130000D03*
X23090000Y-90860000D03*
X23090000Y-89590000D03*
X28910000Y-89590000D03*
X28910000Y-90860000D03*
X28910000Y-92130000D03*
X28910000Y-93410000D03*
D38*
X26000000Y-91500000D03*
%TD*%
D39*
%TO.C,U5*%
X25060000Y-79250000D03*
X25060000Y-78750000D03*
X25060000Y-78250000D03*
X25060000Y-77750000D03*
X26940000Y-77750000D03*
X26940000Y-78250000D03*
X26940000Y-78750000D03*
X26940000Y-79250000D03*
D40*
X26000000Y-78500000D03*
%TD*%
D16*
%TO.C,C6*%
X30725000Y-93500000D03*
X32275000Y-93500000D03*
%TD*%
D11*
%TO.C,D2*%
X66500000Y-74850000D03*
X66500000Y-71550000D03*
%TD*%
D41*
%TO.C,U4*%
X26400000Y-71680000D03*
X25600000Y-71680000D03*
X25600000Y-70320000D03*
X26400000Y-70320000D03*
D42*
X26000000Y-71000000D03*
%TD*%
D36*
%TO.C,Q2*%
X66050000Y-49400000D03*
X67950000Y-49400000D03*
X67000000Y-51600000D03*
%TD*%
D43*
%TO.C,U3*%
X26750000Y-64260000D03*
X26250000Y-64260000D03*
X25750000Y-64260000D03*
X25250000Y-64260000D03*
D44*
X24990000Y-63500000D03*
X24990000Y-63000000D03*
X24990000Y-62500000D03*
D43*
X25250000Y-61740000D03*
X25750000Y-61740000D03*
X26250000Y-61740000D03*
X26750000Y-61740000D03*
D44*
X27010000Y-62500000D03*
X27010000Y-63000000D03*
X27010000Y-63500000D03*
%TD*%
D45*
%TO.C,Q3*%
X67650000Y-63887500D03*
X66350000Y-63887500D03*
X67000000Y-62112500D03*
%TD*%
D17*
%TO.C,R6*%
X34500000Y-97010000D03*
X34500000Y-95990000D03*
%TD*%
D10*
%TO.C,C1*%
X58000000Y-28680000D03*
X58000000Y-27720000D03*
%TD*%
D12*
%TO.C,C26*%
X65050000Y-83000000D03*
X66950000Y-83000000D03*
%TD*%
D17*
%TO.C,R9*%
X64500000Y-92510000D03*
X64500000Y-91490000D03*
%TD*%
D12*
%TO.C,C25*%
X69050000Y-80000000D03*
X70950000Y-80000000D03*
%TD*%
M02*
