%TF.GenerationSoftware,KiCad,Pcbnew,10.0.5*%
%TF.CreationDate,2026-08-18T10:53:11+00:00*%
%TF.ProjectId,the-card,7468652d-6361-4726-942e-6b696361645f,A*%
%TF.SameCoordinates,Original*%
%TF.FileFunction,Copper,L2,Inr*%
%TF.FilePolarity,Positive*%
%FSLAX46Y46*%
G04 Gerber Fmt 4.6, Leading zero omitted, Abs format (unit mm)*
G04 Created by KiCad (PCBNEW 10.0.5) date 2026-08-18 10:53:11*
%MOMM*%
%LPD*%
G01*
G04 APERTURE LIST*
%TA.AperFunction,ComponentPad*%
%ADD10O,1.200000X2.000000*%
%TD*%
%TA.AperFunction,ComponentPad*%
%ADD11O,1.200000X1.800000*%
%TD*%
%TA.AperFunction,ViaPad*%
%ADD12C,0.600000*%
%TD*%
%TA.AperFunction,ViaPad*%
%ADD13C,0.700000*%
%TD*%
%TA.AperFunction,ViaPad*%
%ADD14C,0.500000*%
%TD*%
%TA.AperFunction,Conductor*%
%ADD15C,0.300000*%
%TD*%
%TA.AperFunction,Conductor*%
%ADD16C,0.200000*%
%TD*%
G04 APERTURE END LIST*
D10*
%TO.N,GND*%
%TO.C,J1*%
X30330000Y-102210000D03*
D11*
X30330000Y-98030000D03*
X21670000Y-98030000D03*
D10*
X21670000Y-102210000D03*
%TD*%
D12*
%TO.N,+3V3*%
X30800000Y-50600000D03*
X30400000Y-55600000D03*
X30600000Y-88400000D03*
X29200000Y-69400000D03*
X59600000Y-29000000D03*
X29400000Y-64400000D03*
X58000000Y-29600000D03*
X57600000Y-32600000D03*
X25200000Y-60800000D03*
X29000000Y-82500000D03*
X62800000Y-36000000D03*
X29600000Y-61600000D03*
X29600000Y-71000000D03*
X29400000Y-84400000D03*
X56600000Y-29200000D03*
X29200000Y-60800000D03*
X31000000Y-90600000D03*
X30400000Y-52800000D03*
X28400000Y-62400000D03*
X34000000Y-45400000D03*
X29400000Y-56000000D03*
X24000000Y-63600000D03*
X68000000Y-50200000D03*
X25600000Y-69400000D03*
X30000000Y-85000000D03*
X70400000Y-52000000D03*
D13*
%TO.N,+BAT*%
X33400000Y-53600000D03*
X59800000Y-38800000D03*
X34000000Y-31800000D03*
X28600000Y-90000000D03*
X30200000Y-83400000D03*
X30600000Y-78400000D03*
X28200000Y-80400000D03*
X29600000Y-89600000D03*
X27200000Y-80000000D03*
X33400000Y-50400000D03*
X30200000Y-93000000D03*
X35000000Y-31800000D03*
X30000000Y-81800000D03*
X32400000Y-76200000D03*
%TO.N,AUX_3V3*%
X29000000Y-85600000D03*
X23000000Y-83200000D03*
X28400000Y-84400000D03*
X27000000Y-87000000D03*
D12*
%TO.N,BAT_NEG*%
X73000000Y-46200000D03*
X72600000Y-43800000D03*
%TO.N,BTN_DOWN*%
X66400000Y-67600000D03*
%TO.N,BTN_MENU*%
X66400000Y-89600000D03*
%TO.N,BTN_SEL*%
X66400000Y-78600000D03*
%TO.N,BTN_UP*%
X56600000Y-32000000D03*
X65000000Y-55200000D03*
X58800000Y-35200000D03*
%TO.N,EPD_BUSY*%
X42600000Y-92000000D03*
X48800000Y-54000000D03*
X44000000Y-90200000D03*
X42600000Y-92800000D03*
X48800000Y-50800000D03*
%TO.N,EPD_CS*%
X47000000Y-90200000D03*
X45600000Y-92800000D03*
X45600000Y-92000000D03*
X49800000Y-53000000D03*
X48000000Y-49600000D03*
%TO.N,EPD_DC*%
X47800000Y-50800000D03*
X44600000Y-92000000D03*
X38000000Y-91000000D03*
X46000000Y-58200000D03*
%TO.N,EPD_GDR*%
X67200000Y-64200000D03*
X39600000Y-92000000D03*
%TO.N,EPD_PUMP*%
X69400000Y-73200000D03*
X67200000Y-74000000D03*
X69600000Y-72200000D03*
X70400000Y-68400000D03*
%TO.N,EPD_PWR_EN*%
X67000000Y-49400000D03*
X56400000Y-38400000D03*
X65400000Y-48800000D03*
X68800000Y-49200000D03*
%TO.N,EPD_RESE*%
X40600000Y-92000000D03*
X65000000Y-65200000D03*
%TO.N,EPD_RST*%
X43600000Y-92000000D03*
X44800000Y-88400000D03*
X46800000Y-56000000D03*
X46800000Y-50800000D03*
X43800000Y-92800000D03*
%TO.N,EPD_SCLK*%
X46600000Y-92800000D03*
X48400000Y-90200000D03*
X46600000Y-92000000D03*
X50800000Y-52000000D03*
X50200000Y-49600000D03*
%TO.N,EPD_SDA*%
X56000000Y-88200000D03*
X56200000Y-92800000D03*
X47600000Y-92000000D03*
X51400000Y-48400000D03*
X53400000Y-85600000D03*
X58000000Y-90200000D03*
X52800000Y-50000000D03*
%TO.N,EPD_SW*%
X67000000Y-62800000D03*
X66400000Y-66200000D03*
D13*
%TO.N,EPD_VCI*%
X49800000Y-90200000D03*
X58000000Y-65000000D03*
X49600000Y-92000000D03*
X49600000Y-93000000D03*
X48600000Y-92000000D03*
X61400000Y-61600000D03*
D12*
%TO.N,EPD_VCOM*%
X55600000Y-92000000D03*
X64000000Y-86000000D03*
D13*
%TO.N,EPD_VDD_CORE*%
X61800000Y-79200000D03*
X50600000Y-92000000D03*
X59200000Y-82800000D03*
D12*
%TO.N,EPD_VGH*%
X52600000Y-92000000D03*
X68800000Y-80200000D03*
%TO.N,EPD_VGL*%
X54600000Y-92000000D03*
X62600000Y-84600000D03*
%TO.N,EPD_VSH1*%
X61600000Y-81000000D03*
X51600000Y-92000000D03*
%TO.N,EPD_VSH2*%
X41600000Y-92000000D03*
X68800000Y-77200000D03*
%TO.N,EPD_VSL*%
X53600000Y-92000000D03*
X53200000Y-93000000D03*
X62800000Y-82800000D03*
%TO.N,GND*%
X40000000Y-40000000D03*
X30000000Y-75000000D03*
X40000000Y-30000000D03*
X55000000Y-95000000D03*
X40000000Y-95000000D03*
X35000000Y-40000000D03*
X65000000Y-35000000D03*
X55000000Y-70000000D03*
X60000000Y-95000000D03*
X70000000Y-35000000D03*
X45000000Y-70000000D03*
X70000000Y-55000000D03*
X58000000Y-104400000D03*
X65000000Y-90000000D03*
X60000000Y-35000000D03*
X45000000Y-60000000D03*
X60000000Y-75000000D03*
X35000000Y-60000000D03*
X40000000Y-65000000D03*
X40000000Y-70000000D03*
X55000000Y-100000000D03*
X65000000Y-45000000D03*
X65000000Y-70000000D03*
D14*
X61000000Y-83000000D03*
D12*
X30000000Y-30000000D03*
X25000000Y-90000000D03*
X35000000Y-70000000D03*
D14*
X32500000Y-53500000D03*
D12*
X30000000Y-35000000D03*
X50000000Y-35000000D03*
X64000000Y-21200000D03*
X40000000Y-50000000D03*
X70000000Y-85000000D03*
X70000000Y-30000000D03*
X60000000Y-100000000D03*
X35000000Y-80000000D03*
X35000000Y-85000000D03*
X55000000Y-80000000D03*
D14*
X31480000Y-78500000D03*
D12*
X45000000Y-80000000D03*
X35000000Y-30000000D03*
X45000000Y-30000000D03*
X50000000Y-40000000D03*
X50000000Y-30000000D03*
D14*
X34000000Y-33189999D03*
D12*
X40000000Y-35000000D03*
X30000000Y-21200000D03*
X60000000Y-30000000D03*
X30000000Y-60000000D03*
X70000000Y-40000000D03*
X72800000Y-35000000D03*
X60000000Y-40000000D03*
X21200000Y-80000000D03*
X65000000Y-50000000D03*
X72800000Y-30000000D03*
X45000000Y-50000000D03*
X45000000Y-75000000D03*
X65000000Y-30000000D03*
X35000000Y-75000000D03*
X40000000Y-80000000D03*
X55000000Y-60000000D03*
X30000000Y-70000000D03*
X40000000Y-60000000D03*
D14*
X32009999Y-89500000D03*
D12*
X35000000Y-45000000D03*
X45000000Y-40000000D03*
X40000000Y-75000000D03*
D14*
X25600000Y-67000000D03*
D12*
X45000000Y-35000000D03*
X35000000Y-65000000D03*
X55000000Y-65000000D03*
D14*
X29200000Y-67000000D03*
D12*
X40000000Y-100000000D03*
X45000000Y-55000000D03*
%TO.N,I2C_SCL*%
X52200000Y-44400000D03*
X32400000Y-56200000D03*
X40400000Y-54400000D03*
X26000000Y-63400000D03*
X26000000Y-62600000D03*
X25000000Y-65800000D03*
X29000000Y-53800000D03*
X31400000Y-54200000D03*
%TO.N,I2C_SDA*%
X31600000Y-55400000D03*
X29600000Y-52400000D03*
X40200000Y-44400000D03*
X39000000Y-45600000D03*
%TO.N,LED_DIN*%
X29000000Y-79400000D03*
D13*
%TO.N,NFC_ANTENNA*%
X23000000Y-57000000D03*
X21000000Y-54630000D03*
D12*
%TO.N,NFC_IRQ*%
X43400000Y-51600000D03*
X28600000Y-54800000D03*
D14*
%TO.N,Net-(J1-CC1)*%
X24750000Y-100200000D03*
X31600000Y-96600000D03*
%TO.N,Net-(J1-CC2)*%
X35400000Y-97000000D03*
X27750000Y-100200000D03*
%TO.N,Net-(J1-DP1)*%
X32400000Y-100050000D03*
X31800000Y-104350000D03*
D12*
%TO.N,Net-(U6-PROG)*%
X30800000Y-89800000D03*
X24200000Y-92200000D03*
%TO.N,Net-(U7-DOUT)*%
X65600000Y-95600000D03*
X67600000Y-93600000D03*
%TO.N,Net-(U7-VDD)*%
X64400000Y-91600000D03*
X64000000Y-94800000D03*
X64800000Y-95000000D03*
X68000000Y-95600000D03*
%TO.N,PWR_AUX*%
X28000000Y-85800000D03*
X29800000Y-87000000D03*
D14*
%TO.N,USB_DM*%
X36200000Y-102400000D03*
X57700000Y-47600000D03*
%TO.N,USB_DP*%
X57200000Y-47100000D03*
X33700000Y-98500000D03*
D13*
%TO.N,VBUS*%
X36400000Y-101000000D03*
X37800000Y-95500000D03*
X23600000Y-104200000D03*
X28910000Y-94400000D03*
X22200000Y-89590000D03*
X28400000Y-103600000D03*
X37400000Y-97275000D03*
D12*
%TO.N,~CHRG*%
X55000000Y-45600000D03*
X56400000Y-37200000D03*
%TD*%
%TO.N,+3V3*%
D15*
X25200000Y-60800000D02*
X29200000Y-60800000D01*
X25600000Y-69400000D02*
X29200000Y-69400000D01*
X24000000Y-63600000D02*
X24000000Y-61600000D01*
X24000000Y-61600000D02*
X25200000Y-60800000D01*
%TO.N,GND*%
D16*
X25600000Y-67000000D02*
X29200000Y-67000000D01*
%TD*%
%TA.AperFunction,Conductor*%
%TO.N,GND*%
G36*
X37459191Y-20519407D02*
G01*
X37495155Y-20568907D01*
X37500000Y-20599500D01*
X37500000Y-27400000D01*
X37500001Y-27400000D01*
X56499999Y-27400000D01*
X56500000Y-27400000D01*
X56500000Y-20599500D01*
X56518907Y-20541309D01*
X56568407Y-20505345D01*
X56599000Y-20500500D01*
X70734108Y-20500500D01*
X70797227Y-20500500D01*
X70802777Y-20500655D01*
X71094460Y-20517036D01*
X71105487Y-20518278D01*
X71390774Y-20566751D01*
X71401568Y-20569214D01*
X71679646Y-20649327D01*
X71690117Y-20652991D01*
X71816512Y-20705346D01*
X71957456Y-20763727D01*
X71967458Y-20768544D01*
X72220711Y-20908511D01*
X72230111Y-20914417D01*
X72466111Y-21081868D01*
X72474783Y-21088784D01*
X72690554Y-21281609D01*
X72698392Y-21289447D01*
X72891212Y-21505213D01*
X72898134Y-21513893D01*
X73065581Y-21749888D01*
X73071487Y-21759288D01*
X73211455Y-22012540D01*
X73216272Y-22022542D01*
X73327006Y-22289878D01*
X73330673Y-22300357D01*
X73410781Y-22578416D01*
X73413251Y-22589240D01*
X73461719Y-22874509D01*
X73462962Y-22885541D01*
X73479343Y-23177222D01*
X73479499Y-23182773D01*
X73479499Y-45732678D01*
X73460592Y-45790869D01*
X73411092Y-45826833D01*
X73349906Y-45826833D01*
X73310497Y-45802683D01*
X73307314Y-45799500D01*
X73307311Y-45799498D01*
X73307309Y-45799496D01*
X73193189Y-45733609D01*
X73193191Y-45733609D01*
X73143799Y-45720375D01*
X73065892Y-45699500D01*
X72934108Y-45699500D01*
X72856200Y-45720375D01*
X72806809Y-45733609D01*
X72692690Y-45799496D01*
X72599496Y-45892690D01*
X72533609Y-46006809D01*
X72533608Y-46006814D01*
X72499500Y-46134108D01*
X72499500Y-46265892D01*
X72520501Y-46344269D01*
X72533609Y-46393190D01*
X72599496Y-46507309D01*
X72599498Y-46507311D01*
X72599500Y-46507314D01*
X72692686Y-46600500D01*
X72692688Y-46600501D01*
X72692690Y-46600503D01*
X72806810Y-46666390D01*
X72806808Y-46666390D01*
X72806812Y-46666391D01*
X72806814Y-46666392D01*
X72934108Y-46700500D01*
X72934110Y-46700500D01*
X73065890Y-46700500D01*
X73065892Y-46700500D01*
X73193186Y-46666392D01*
X73193188Y-46666390D01*
X73193190Y-46666390D01*
X73307309Y-46600503D01*
X73307309Y-46600502D01*
X73307314Y-46600500D01*
X73310497Y-46597316D01*
X73365012Y-46569541D01*
X73425444Y-46579112D01*
X73468709Y-46622377D01*
X73479499Y-46667322D01*
X73479499Y-102417225D01*
X73479343Y-102422776D01*
X73462962Y-102714456D01*
X73461719Y-102725488D01*
X73413249Y-103010760D01*
X73410779Y-103021583D01*
X73330674Y-103299638D01*
X73327007Y-103310118D01*
X73216271Y-103577456D01*
X73211454Y-103587458D01*
X73071487Y-103840710D01*
X73065581Y-103850110D01*
X72898134Y-104086105D01*
X72891212Y-104094785D01*
X72698392Y-104310551D01*
X72690541Y-104318402D01*
X72474791Y-104511208D01*
X72466111Y-104518130D01*
X72230111Y-104685581D01*
X72220711Y-104691487D01*
X71967458Y-104831455D01*
X71957456Y-104836272D01*
X71690120Y-104947006D01*
X71679641Y-104950673D01*
X71401583Y-105030781D01*
X71390759Y-105033251D01*
X71105489Y-105081720D01*
X71094457Y-105082963D01*
X70802778Y-105099344D01*
X70797227Y-105099500D01*
X23182773Y-105099500D01*
X23177222Y-105099344D01*
X22885542Y-105082963D01*
X22874510Y-105081720D01*
X22589240Y-105033251D01*
X22578416Y-105030781D01*
X22300357Y-104950673D01*
X22289878Y-104947006D01*
X22022542Y-104836272D01*
X22012540Y-104831455D01*
X21759288Y-104691487D01*
X21749888Y-104685581D01*
X21513893Y-104518134D01*
X21505213Y-104511212D01*
X21505209Y-104511208D01*
X21289444Y-104318389D01*
X21281606Y-104310551D01*
X21118045Y-104127525D01*
X23049500Y-104127525D01*
X23049500Y-104272475D01*
X23059701Y-104310546D01*
X23087017Y-104412489D01*
X23159487Y-104538010D01*
X23159489Y-104538012D01*
X23159491Y-104538015D01*
X23261985Y-104640509D01*
X23261987Y-104640510D01*
X23261989Y-104640512D01*
X23387511Y-104712982D01*
X23387512Y-104712982D01*
X23387515Y-104712984D01*
X23527525Y-104750500D01*
X23527526Y-104750500D01*
X23672474Y-104750500D01*
X23672475Y-104750500D01*
X23812485Y-104712984D01*
X23812487Y-104712982D01*
X23812489Y-104712982D01*
X23938010Y-104640512D01*
X23938010Y-104640511D01*
X23938015Y-104640509D01*
X24040509Y-104538015D01*
X24048664Y-104523890D01*
X24112982Y-104412489D01*
X24112982Y-104412487D01*
X24112984Y-104412485D01*
X24145619Y-104290691D01*
X31349500Y-104290691D01*
X31349500Y-104409309D01*
X31376574Y-104510351D01*
X31380202Y-104523890D01*
X31439507Y-104626608D01*
X31439509Y-104626610D01*
X31439511Y-104626613D01*
X31523387Y-104710489D01*
X31523389Y-104710490D01*
X31523391Y-104710492D01*
X31626110Y-104769797D01*
X31626111Y-104769797D01*
X31626114Y-104769799D01*
X31740691Y-104800500D01*
X31740693Y-104800500D01*
X31859307Y-104800500D01*
X31859309Y-104800500D01*
X31973886Y-104769799D01*
X31973888Y-104769797D01*
X31973890Y-104769797D01*
X32076608Y-104710492D01*
X32076608Y-104710491D01*
X32076613Y-104710489D01*
X32160489Y-104626613D01*
X32160492Y-104626608D01*
X32219797Y-104523890D01*
X32219797Y-104523888D01*
X32219799Y-104523886D01*
X32250500Y-104409309D01*
X32250500Y-104290691D01*
X32219799Y-104176114D01*
X32219797Y-104176111D01*
X32219797Y-104176109D01*
X32160492Y-104073391D01*
X32160490Y-104073389D01*
X32160489Y-104073387D01*
X32076613Y-103989511D01*
X32076610Y-103989509D01*
X32076608Y-103989507D01*
X31973889Y-103930202D01*
X31973890Y-103930202D01*
X31960351Y-103926574D01*
X31859309Y-103899500D01*
X31740691Y-103899500D01*
X31670567Y-103918289D01*
X31626109Y-103930202D01*
X31523391Y-103989507D01*
X31439507Y-104073391D01*
X31380202Y-104176109D01*
X31380201Y-104176114D01*
X31349500Y-104290691D01*
X24145619Y-104290691D01*
X24150500Y-104272475D01*
X24150500Y-104127525D01*
X24112984Y-103987515D01*
X24112982Y-103987512D01*
X24112982Y-103987510D01*
X24040512Y-103861989D01*
X24040510Y-103861987D01*
X24040509Y-103861985D01*
X23938015Y-103759491D01*
X23938012Y-103759489D01*
X23938010Y-103759487D01*
X23812488Y-103687017D01*
X23812489Y-103687017D01*
X23758214Y-103672474D01*
X23672475Y-103649500D01*
X23527525Y-103649500D01*
X23483051Y-103661417D01*
X23387510Y-103687017D01*
X23261989Y-103759487D01*
X23159487Y-103861989D01*
X23087017Y-103987510D01*
X23059383Y-104090640D01*
X23049500Y-104127525D01*
X21118045Y-104127525D01*
X21088784Y-104094782D01*
X21081864Y-104086105D01*
X21017586Y-103995514D01*
X20914417Y-103850110D01*
X20908511Y-103840710D01*
X20768544Y-103587458D01*
X20763727Y-103577456D01*
X20756050Y-103558922D01*
X20743045Y-103527525D01*
X27849500Y-103527525D01*
X27849500Y-103672475D01*
X27853397Y-103687017D01*
X27887017Y-103812489D01*
X27959487Y-103938010D01*
X27959489Y-103938012D01*
X27959491Y-103938015D01*
X28061985Y-104040509D01*
X28061987Y-104040510D01*
X28061989Y-104040512D01*
X28187511Y-104112982D01*
X28187512Y-104112982D01*
X28187515Y-104112984D01*
X28327525Y-104150500D01*
X28327526Y-104150500D01*
X28472474Y-104150500D01*
X28472475Y-104150500D01*
X28612485Y-104112984D01*
X28612487Y-104112982D01*
X28612489Y-104112982D01*
X28738010Y-104040512D01*
X28738010Y-104040511D01*
X28738015Y-104040509D01*
X28840509Y-103938015D01*
X28845020Y-103930202D01*
X28912982Y-103812489D01*
X28912982Y-103812487D01*
X28912984Y-103812485D01*
X28950500Y-103672475D01*
X28950500Y-103527525D01*
X28912984Y-103387515D01*
X28912982Y-103387512D01*
X28912982Y-103387510D01*
X28840512Y-103261989D01*
X28840510Y-103261987D01*
X28840509Y-103261985D01*
X28738015Y-103159491D01*
X28738012Y-103159489D01*
X28738010Y-103159487D01*
X28612488Y-103087017D01*
X28612489Y-103087017D01*
X28582896Y-103079087D01*
X28472475Y-103049500D01*
X28327525Y-103049500D01*
X28265790Y-103066041D01*
X28187510Y-103087017D01*
X28061989Y-103159487D01*
X27959487Y-103261989D01*
X27887017Y-103387510D01*
X27887016Y-103387515D01*
X27849500Y-103527525D01*
X20743045Y-103527525D01*
X20652991Y-103310118D01*
X20649324Y-103299638D01*
X20569219Y-103021583D01*
X20566749Y-103010760D01*
X20524226Y-102760492D01*
X20518278Y-102725486D01*
X20517036Y-102714456D01*
X20500656Y-102422776D01*
X20500500Y-102417225D01*
X20500500Y-102340691D01*
X35749500Y-102340691D01*
X35749500Y-102459309D01*
X35776574Y-102560351D01*
X35780202Y-102573890D01*
X35839507Y-102676608D01*
X35839509Y-102676610D01*
X35839511Y-102676613D01*
X35923387Y-102760489D01*
X35923389Y-102760490D01*
X35923391Y-102760492D01*
X36026110Y-102819797D01*
X36026111Y-102819797D01*
X36026114Y-102819799D01*
X36140691Y-102850500D01*
X36140693Y-102850500D01*
X36259307Y-102850500D01*
X36259309Y-102850500D01*
X36373886Y-102819799D01*
X36373888Y-102819797D01*
X36373890Y-102819797D01*
X36476608Y-102760492D01*
X36476608Y-102760491D01*
X36476613Y-102760489D01*
X36560489Y-102676613D01*
X36560492Y-102676608D01*
X36619797Y-102573890D01*
X36619797Y-102573888D01*
X36619799Y-102573886D01*
X36650500Y-102459309D01*
X36650500Y-102340691D01*
X36619799Y-102226114D01*
X36619797Y-102226111D01*
X36619797Y-102226109D01*
X36560492Y-102123391D01*
X36560490Y-102123389D01*
X36560489Y-102123387D01*
X36476613Y-102039511D01*
X36476610Y-102039509D01*
X36476608Y-102039507D01*
X36373889Y-101980202D01*
X36373890Y-101980202D01*
X36360351Y-101976574D01*
X36259309Y-101949500D01*
X36140691Y-101949500D01*
X36070567Y-101968289D01*
X36026109Y-101980202D01*
X35923391Y-102039507D01*
X35839507Y-102123391D01*
X35780202Y-102226109D01*
X35780201Y-102226114D01*
X35749500Y-102340691D01*
X20500500Y-102340691D01*
X20500500Y-101637525D01*
X22549500Y-101637525D01*
X22549500Y-101782474D01*
X22587017Y-101922489D01*
X22659487Y-102048010D01*
X22659489Y-102048012D01*
X22659491Y-102048015D01*
X22761985Y-102150509D01*
X22761987Y-102150510D01*
X22761989Y-102150512D01*
X22887511Y-102222982D01*
X22887512Y-102222982D01*
X22887515Y-102222984D01*
X23027525Y-102260500D01*
X23027526Y-102260500D01*
X23172474Y-102260500D01*
X23172475Y-102260500D01*
X23312485Y-102222984D01*
X23312487Y-102222982D01*
X23312489Y-102222982D01*
X23438010Y-102150512D01*
X23438010Y-102150511D01*
X23438015Y-102150509D01*
X23540509Y-102048015D01*
X23612984Y-101922485D01*
X23650500Y-101782475D01*
X23650500Y-101637525D01*
X28349500Y-101637525D01*
X28349500Y-101782474D01*
X28387017Y-101922489D01*
X28459487Y-102048010D01*
X28459489Y-102048012D01*
X28459491Y-102048015D01*
X28561985Y-102150509D01*
X28561987Y-102150510D01*
X28561989Y-102150512D01*
X28687511Y-102222982D01*
X28687512Y-102222982D01*
X28687515Y-102222984D01*
X28827525Y-102260500D01*
X28827526Y-102260500D01*
X28972474Y-102260500D01*
X28972475Y-102260500D01*
X29112485Y-102222984D01*
X29238015Y-102150509D01*
X29340509Y-102048015D01*
X29412984Y-101922485D01*
X29450500Y-101782475D01*
X29450500Y-101637525D01*
X29412984Y-101497515D01*
X29412982Y-101497512D01*
X29412982Y-101497510D01*
X29340512Y-101371989D01*
X29340510Y-101371987D01*
X29340509Y-101371985D01*
X29238015Y-101269491D01*
X29238012Y-101269489D01*
X29238010Y-101269487D01*
X29112488Y-101197017D01*
X29112489Y-101197017D01*
X29082896Y-101189087D01*
X28972475Y-101159500D01*
X28827525Y-101159500D01*
X28765790Y-101176041D01*
X28687510Y-101197017D01*
X28561989Y-101269487D01*
X28459487Y-101371989D01*
X28387017Y-101497510D01*
X28349500Y-101637525D01*
X23650500Y-101637525D01*
X23612984Y-101497515D01*
X23612982Y-101497512D01*
X23612982Y-101497510D01*
X23540512Y-101371989D01*
X23540510Y-101371987D01*
X23540509Y-101371985D01*
X23438015Y-101269491D01*
X23438012Y-101269489D01*
X23438010Y-101269487D01*
X23312488Y-101197017D01*
X23312489Y-101197017D01*
X23282896Y-101189087D01*
X23172475Y-101159500D01*
X23027525Y-101159500D01*
X22965790Y-101176041D01*
X22887510Y-101197017D01*
X22761989Y-101269487D01*
X22659487Y-101371989D01*
X22587017Y-101497510D01*
X22549500Y-101637525D01*
X20500500Y-101637525D01*
X20500500Y-100927525D01*
X35849500Y-100927525D01*
X35849500Y-101072474D01*
X35887017Y-101212489D01*
X35959487Y-101338010D01*
X35959489Y-101338012D01*
X35959491Y-101338015D01*
X36061985Y-101440509D01*
X36061987Y-101440510D01*
X36061989Y-101440512D01*
X36187511Y-101512982D01*
X36187512Y-101512982D01*
X36187515Y-101512984D01*
X36327525Y-101550500D01*
X36327526Y-101550500D01*
X36472474Y-101550500D01*
X36472475Y-101550500D01*
X36612485Y-101512984D01*
X36612487Y-101512982D01*
X36612489Y-101512982D01*
X36738010Y-101440512D01*
X36738010Y-101440511D01*
X36738015Y-101440509D01*
X36840509Y-101338015D01*
X36840512Y-101338010D01*
X36912982Y-101212489D01*
X36912982Y-101212487D01*
X36912984Y-101212485D01*
X36950500Y-101072475D01*
X36950500Y-100927525D01*
X36912984Y-100787515D01*
X36912982Y-100787512D01*
X36912982Y-100787510D01*
X36840512Y-100661989D01*
X36840510Y-100661987D01*
X36840509Y-100661985D01*
X36738015Y-100559491D01*
X36738012Y-100559489D01*
X36738010Y-100559487D01*
X36612488Y-100487017D01*
X36612489Y-100487017D01*
X36548231Y-100469799D01*
X36472475Y-100449500D01*
X36327525Y-100449500D01*
X36265790Y-100466041D01*
X36187510Y-100487017D01*
X36061989Y-100559487D01*
X35959487Y-100661989D01*
X35887017Y-100787510D01*
X35849500Y-100927525D01*
X20500500Y-100927525D01*
X20500500Y-100140691D01*
X24299500Y-100140691D01*
X24299500Y-100259309D01*
X24317533Y-100326608D01*
X24330202Y-100373890D01*
X24389507Y-100476608D01*
X24389509Y-100476610D01*
X24389511Y-100476613D01*
X24473387Y-100560489D01*
X24473389Y-100560490D01*
X24473391Y-100560492D01*
X24576110Y-100619797D01*
X24576111Y-100619797D01*
X24576114Y-100619799D01*
X24690691Y-100650500D01*
X24690693Y-100650500D01*
X24809307Y-100650500D01*
X24809309Y-100650500D01*
X24923886Y-100619799D01*
X24923888Y-100619797D01*
X24923890Y-100619797D01*
X25026608Y-100560492D01*
X25026608Y-100560491D01*
X25026613Y-100560489D01*
X25110489Y-100476613D01*
X25126143Y-100449500D01*
X25169797Y-100373890D01*
X25169797Y-100373888D01*
X25169799Y-100373886D01*
X25200500Y-100259309D01*
X25200500Y-100140691D01*
X27299500Y-100140691D01*
X27299500Y-100259309D01*
X27317533Y-100326608D01*
X27330202Y-100373890D01*
X27389507Y-100476608D01*
X27389509Y-100476610D01*
X27389511Y-100476613D01*
X27473387Y-100560489D01*
X27473389Y-100560490D01*
X27473391Y-100560492D01*
X27576110Y-100619797D01*
X27576111Y-100619797D01*
X27576114Y-100619799D01*
X27690691Y-100650500D01*
X27690693Y-100650500D01*
X27809307Y-100650500D01*
X27809309Y-100650500D01*
X27923886Y-100619799D01*
X27923888Y-100619797D01*
X27923890Y-100619797D01*
X28026608Y-100560492D01*
X28026608Y-100560491D01*
X28026613Y-100560489D01*
X28110489Y-100476613D01*
X28126143Y-100449500D01*
X28169797Y-100373890D01*
X28169797Y-100373888D01*
X28169799Y-100373886D01*
X28200500Y-100259309D01*
X28200500Y-100140691D01*
X28169799Y-100026114D01*
X28169797Y-100026111D01*
X28169797Y-100026109D01*
X28149348Y-99990691D01*
X31949500Y-99990691D01*
X31949500Y-100109309D01*
X31957909Y-100140691D01*
X31980202Y-100223890D01*
X32039507Y-100326608D01*
X32039509Y-100326610D01*
X32039511Y-100326613D01*
X32123387Y-100410489D01*
X32123389Y-100410490D01*
X32123391Y-100410492D01*
X32226110Y-100469797D01*
X32226111Y-100469797D01*
X32226114Y-100469799D01*
X32340691Y-100500500D01*
X32340693Y-100500500D01*
X32459307Y-100500500D01*
X32459309Y-100500500D01*
X32573886Y-100469799D01*
X32573888Y-100469797D01*
X32573890Y-100469797D01*
X32676608Y-100410492D01*
X32676608Y-100410491D01*
X32676613Y-100410489D01*
X32760489Y-100326613D01*
X32760492Y-100326608D01*
X32819797Y-100223890D01*
X32819797Y-100223888D01*
X32819799Y-100223886D01*
X32850500Y-100109309D01*
X32850500Y-99990691D01*
X32819799Y-99876114D01*
X32819797Y-99876111D01*
X32819797Y-99876109D01*
X32760492Y-99773391D01*
X32760490Y-99773389D01*
X32760489Y-99773387D01*
X32676613Y-99689511D01*
X32676610Y-99689509D01*
X32676608Y-99689507D01*
X32573889Y-99630202D01*
X32573890Y-99630202D01*
X32560351Y-99626574D01*
X32459309Y-99599500D01*
X32340691Y-99599500D01*
X32270567Y-99618289D01*
X32226109Y-99630202D01*
X32123391Y-99689507D01*
X32039507Y-99773391D01*
X31980202Y-99876109D01*
X31980201Y-99876114D01*
X31949500Y-99990691D01*
X28149348Y-99990691D01*
X28110492Y-99923391D01*
X28110490Y-99923389D01*
X28110489Y-99923387D01*
X28026613Y-99839511D01*
X28026610Y-99839509D01*
X28026608Y-99839507D01*
X27923889Y-99780202D01*
X27923890Y-99780202D01*
X27898456Y-99773387D01*
X27809309Y-99749500D01*
X27690691Y-99749500D01*
X27620567Y-99768289D01*
X27576109Y-99780202D01*
X27473391Y-99839507D01*
X27389507Y-99923391D01*
X27330202Y-100026109D01*
X27330201Y-100026114D01*
X27299500Y-100140691D01*
X25200500Y-100140691D01*
X25169799Y-100026114D01*
X25169797Y-100026111D01*
X25169797Y-100026109D01*
X25110492Y-99923391D01*
X25110490Y-99923389D01*
X25110489Y-99923387D01*
X25026613Y-99839511D01*
X25026610Y-99839509D01*
X25026608Y-99839507D01*
X24923889Y-99780202D01*
X24923890Y-99780202D01*
X24898456Y-99773387D01*
X24809309Y-99749500D01*
X24690691Y-99749500D01*
X24620567Y-99768289D01*
X24576109Y-99780202D01*
X24473391Y-99839507D01*
X24389507Y-99923391D01*
X24330202Y-100026109D01*
X24330201Y-100026114D01*
X24299500Y-100140691D01*
X20500500Y-100140691D01*
X20500500Y-98440691D01*
X33249500Y-98440691D01*
X33249500Y-98559309D01*
X33276574Y-98660351D01*
X33280202Y-98673890D01*
X33339507Y-98776608D01*
X33339509Y-98776610D01*
X33339511Y-98776613D01*
X33423387Y-98860489D01*
X33423389Y-98860490D01*
X33423391Y-98860492D01*
X33526110Y-98919797D01*
X33526111Y-98919797D01*
X33526114Y-98919799D01*
X33640691Y-98950500D01*
X33640693Y-98950500D01*
X33759307Y-98950500D01*
X33759309Y-98950500D01*
X33873886Y-98919799D01*
X33873888Y-98919797D01*
X33873890Y-98919797D01*
X33976608Y-98860492D01*
X33976608Y-98860491D01*
X33976613Y-98860489D01*
X34060489Y-98776613D01*
X34119799Y-98673886D01*
X34150500Y-98559309D01*
X34150500Y-98440691D01*
X34119799Y-98326114D01*
X34119797Y-98326111D01*
X34119797Y-98326109D01*
X34060492Y-98223391D01*
X34060490Y-98223389D01*
X34060489Y-98223387D01*
X33976613Y-98139511D01*
X33976610Y-98139509D01*
X33976608Y-98139507D01*
X33873889Y-98080202D01*
X33873890Y-98080202D01*
X33860351Y-98076574D01*
X33759309Y-98049500D01*
X33640691Y-98049500D01*
X33570567Y-98068289D01*
X33526109Y-98080202D01*
X33423391Y-98139507D01*
X33339507Y-98223391D01*
X33280202Y-98326109D01*
X33280201Y-98326114D01*
X33249500Y-98440691D01*
X20500500Y-98440691D01*
X20500500Y-96540691D01*
X31149500Y-96540691D01*
X31149500Y-96659309D01*
X31166670Y-96723387D01*
X31180202Y-96773890D01*
X31239507Y-96876608D01*
X31239509Y-96876610D01*
X31239511Y-96876613D01*
X31323387Y-96960489D01*
X31323389Y-96960490D01*
X31323391Y-96960492D01*
X31426110Y-97019797D01*
X31426111Y-97019797D01*
X31426114Y-97019799D01*
X31540691Y-97050500D01*
X31540693Y-97050500D01*
X31659307Y-97050500D01*
X31659309Y-97050500D01*
X31773886Y-97019799D01*
X31773888Y-97019797D01*
X31773890Y-97019797D01*
X31876608Y-96960492D01*
X31876608Y-96960491D01*
X31876613Y-96960489D01*
X31896411Y-96940691D01*
X34949500Y-96940691D01*
X34949500Y-97059309D01*
X34976574Y-97160351D01*
X34980202Y-97173890D01*
X35039507Y-97276608D01*
X35039509Y-97276610D01*
X35039511Y-97276613D01*
X35123387Y-97360489D01*
X35123389Y-97360490D01*
X35123391Y-97360492D01*
X35226110Y-97419797D01*
X35226111Y-97419797D01*
X35226114Y-97419799D01*
X35340691Y-97450500D01*
X35340693Y-97450500D01*
X35459307Y-97450500D01*
X35459309Y-97450500D01*
X35573886Y-97419799D01*
X35573888Y-97419797D01*
X35573890Y-97419797D01*
X35676608Y-97360492D01*
X35676608Y-97360491D01*
X35676613Y-97360489D01*
X35760489Y-97276613D01*
X35803264Y-97202525D01*
X36849500Y-97202525D01*
X36849500Y-97347474D01*
X36887017Y-97487489D01*
X36959487Y-97613010D01*
X36959489Y-97613012D01*
X36959491Y-97613015D01*
X37061985Y-97715509D01*
X37061987Y-97715510D01*
X37061989Y-97715512D01*
X37187511Y-97787982D01*
X37187512Y-97787982D01*
X37187515Y-97787984D01*
X37327525Y-97825500D01*
X37327526Y-97825500D01*
X37472474Y-97825500D01*
X37472475Y-97825500D01*
X37612485Y-97787984D01*
X37612487Y-97787982D01*
X37612489Y-97787982D01*
X37738010Y-97715512D01*
X37738010Y-97715511D01*
X37738015Y-97715509D01*
X37840509Y-97613015D01*
X37912984Y-97487485D01*
X37950500Y-97347475D01*
X37950500Y-97202525D01*
X37912984Y-97062515D01*
X37912982Y-97062512D01*
X37912982Y-97062510D01*
X37840512Y-96936989D01*
X37840510Y-96936987D01*
X37840509Y-96936985D01*
X37738015Y-96834491D01*
X37738012Y-96834489D01*
X37738010Y-96834487D01*
X37612488Y-96762017D01*
X37612489Y-96762017D01*
X37582896Y-96754087D01*
X37472475Y-96724500D01*
X37327525Y-96724500D01*
X37265790Y-96741041D01*
X37187510Y-96762017D01*
X37061989Y-96834487D01*
X36959487Y-96936989D01*
X36887017Y-97062510D01*
X36849500Y-97202525D01*
X35803264Y-97202525D01*
X35819799Y-97173886D01*
X35850500Y-97059309D01*
X35850500Y-96940691D01*
X35819799Y-96826114D01*
X35819797Y-96826111D01*
X35819797Y-96826109D01*
X35760492Y-96723391D01*
X35760490Y-96723389D01*
X35760489Y-96723387D01*
X35676613Y-96639511D01*
X35676610Y-96639509D01*
X35676608Y-96639507D01*
X35573889Y-96580202D01*
X35573890Y-96580202D01*
X35560351Y-96576574D01*
X35459309Y-96549500D01*
X35340691Y-96549500D01*
X35270567Y-96568289D01*
X35226109Y-96580202D01*
X35123391Y-96639507D01*
X35039507Y-96723391D01*
X34980202Y-96826109D01*
X34980201Y-96826114D01*
X34949500Y-96940691D01*
X31896411Y-96940691D01*
X31960489Y-96876613D01*
X31960492Y-96876608D01*
X32019797Y-96773890D01*
X32019797Y-96773888D01*
X32019799Y-96773886D01*
X32050500Y-96659309D01*
X32050500Y-96540691D01*
X32019799Y-96426114D01*
X32019797Y-96426111D01*
X32019797Y-96426109D01*
X31960492Y-96323391D01*
X31960490Y-96323389D01*
X31960489Y-96323387D01*
X31876613Y-96239511D01*
X31876610Y-96239509D01*
X31876608Y-96239507D01*
X31773889Y-96180202D01*
X31773890Y-96180202D01*
X31760351Y-96176574D01*
X31659309Y-96149500D01*
X31540691Y-96149500D01*
X31470567Y-96168289D01*
X31426109Y-96180202D01*
X31323391Y-96239507D01*
X31239507Y-96323391D01*
X31180202Y-96426109D01*
X31180201Y-96426114D01*
X31149500Y-96540691D01*
X20500500Y-96540691D01*
X20500500Y-95427525D01*
X37249500Y-95427525D01*
X37249500Y-95572474D01*
X37287017Y-95712489D01*
X37359487Y-95838010D01*
X37359489Y-95838012D01*
X37359491Y-95838015D01*
X37461985Y-95940509D01*
X37461987Y-95940510D01*
X37461989Y-95940512D01*
X37587511Y-96012982D01*
X37587512Y-96012982D01*
X37587515Y-96012984D01*
X37727525Y-96050500D01*
X37727526Y-96050500D01*
X37872474Y-96050500D01*
X37872475Y-96050500D01*
X38012485Y-96012984D01*
X38012487Y-96012982D01*
X38012489Y-96012982D01*
X38138010Y-95940512D01*
X38138010Y-95940511D01*
X38138015Y-95940509D01*
X38240509Y-95838015D01*
X38312984Y-95712485D01*
X38350500Y-95572475D01*
X38350500Y-95427525D01*
X38312984Y-95287515D01*
X38312982Y-95287512D01*
X38312982Y-95287510D01*
X38240512Y-95161989D01*
X38240510Y-95161987D01*
X38240509Y-95161985D01*
X38138015Y-95059491D01*
X38138012Y-95059489D01*
X38138010Y-95059487D01*
X38012488Y-94987017D01*
X38012489Y-94987017D01*
X37982896Y-94979087D01*
X37872475Y-94949500D01*
X37727525Y-94949500D01*
X37665790Y-94966041D01*
X37587510Y-94987017D01*
X37461989Y-95059487D01*
X37359487Y-95161989D01*
X37287017Y-95287510D01*
X37249500Y-95427525D01*
X20500500Y-95427525D01*
X20500500Y-94327525D01*
X28359500Y-94327525D01*
X28359500Y-94472475D01*
X28374104Y-94526976D01*
X28397017Y-94612489D01*
X28469487Y-94738010D01*
X28469489Y-94738012D01*
X28469491Y-94738015D01*
X28571985Y-94840509D01*
X28571987Y-94840510D01*
X28571989Y-94840512D01*
X28697511Y-94912982D01*
X28697512Y-94912982D01*
X28697515Y-94912984D01*
X28837525Y-94950500D01*
X28837526Y-94950500D01*
X28982474Y-94950500D01*
X28982475Y-94950500D01*
X29122485Y-94912984D01*
X29122487Y-94912982D01*
X29122489Y-94912982D01*
X29248010Y-94840512D01*
X29248010Y-94840511D01*
X29248015Y-94840509D01*
X29350509Y-94738015D01*
X29352765Y-94734108D01*
X63499500Y-94734108D01*
X63499500Y-94865892D01*
X63529579Y-94978151D01*
X63533609Y-94993190D01*
X63599496Y-95107309D01*
X63599498Y-95107311D01*
X63599500Y-95107314D01*
X63692686Y-95200500D01*
X63692688Y-95200501D01*
X63692690Y-95200503D01*
X63806810Y-95266390D01*
X63806808Y-95266390D01*
X63806812Y-95266391D01*
X63806814Y-95266392D01*
X63934108Y-95300500D01*
X63934110Y-95300500D01*
X64065890Y-95300500D01*
X64065892Y-95300500D01*
X64193186Y-95266392D01*
X64244465Y-95236785D01*
X64304312Y-95224064D01*
X64360208Y-95248950D01*
X64379700Y-95273019D01*
X64399500Y-95307314D01*
X64492686Y-95400500D01*
X64492688Y-95400501D01*
X64492690Y-95400503D01*
X64606810Y-95466390D01*
X64606808Y-95466390D01*
X64606812Y-95466391D01*
X64606814Y-95466392D01*
X64734108Y-95500500D01*
X64734110Y-95500500D01*
X64865890Y-95500500D01*
X64865892Y-95500500D01*
X64974879Y-95471297D01*
X65035978Y-95474500D01*
X65083528Y-95513005D01*
X65099500Y-95566924D01*
X65099500Y-95665892D01*
X65111986Y-95712489D01*
X65133609Y-95793190D01*
X65199496Y-95907309D01*
X65199498Y-95907311D01*
X65199500Y-95907314D01*
X65292686Y-96000500D01*
X65292688Y-96000501D01*
X65292690Y-96000503D01*
X65406810Y-96066390D01*
X65406808Y-96066390D01*
X65406812Y-96066391D01*
X65406814Y-96066392D01*
X65534108Y-96100500D01*
X65534110Y-96100500D01*
X65665890Y-96100500D01*
X65665892Y-96100500D01*
X65793186Y-96066392D01*
X65793188Y-96066390D01*
X65793190Y-96066390D01*
X65907309Y-96000503D01*
X65907309Y-96000502D01*
X65907314Y-96000500D01*
X66000500Y-95907314D01*
X66066392Y-95793186D01*
X66100500Y-95665892D01*
X66100500Y-95534108D01*
X67499500Y-95534108D01*
X67499500Y-95665892D01*
X67511986Y-95712489D01*
X67533609Y-95793190D01*
X67599496Y-95907309D01*
X67599498Y-95907311D01*
X67599500Y-95907314D01*
X67692686Y-96000500D01*
X67692688Y-96000501D01*
X67692690Y-96000503D01*
X67806810Y-96066390D01*
X67806808Y-96066390D01*
X67806812Y-96066391D01*
X67806814Y-96066392D01*
X67934108Y-96100500D01*
X67934110Y-96100500D01*
X68065890Y-96100500D01*
X68065892Y-96100500D01*
X68193186Y-96066392D01*
X68193188Y-96066390D01*
X68193190Y-96066390D01*
X68307309Y-96000503D01*
X68307309Y-96000502D01*
X68307314Y-96000500D01*
X68400500Y-95907314D01*
X68466392Y-95793186D01*
X68500500Y-95665892D01*
X68500500Y-95534108D01*
X68466392Y-95406814D01*
X68466390Y-95406811D01*
X68466390Y-95406809D01*
X68400503Y-95292690D01*
X68400501Y-95292688D01*
X68400500Y-95292686D01*
X68307314Y-95199500D01*
X68307311Y-95199498D01*
X68307309Y-95199496D01*
X68193189Y-95133609D01*
X68193191Y-95133609D01*
X68143799Y-95120375D01*
X68065892Y-95099500D01*
X67934108Y-95099500D01*
X67856200Y-95120375D01*
X67806809Y-95133609D01*
X67692690Y-95199496D01*
X67599496Y-95292690D01*
X67533609Y-95406809D01*
X67517645Y-95466390D01*
X67499500Y-95534108D01*
X66100500Y-95534108D01*
X66066392Y-95406814D01*
X66066390Y-95406811D01*
X66066390Y-95406809D01*
X66000503Y-95292690D01*
X66000501Y-95292688D01*
X66000500Y-95292686D01*
X65907314Y-95199500D01*
X65907311Y-95199498D01*
X65907309Y-95199496D01*
X65793189Y-95133609D01*
X65793191Y-95133609D01*
X65743799Y-95120375D01*
X65665892Y-95099500D01*
X65534108Y-95099500D01*
X65492438Y-95110665D01*
X65425122Y-95128702D01*
X65364021Y-95125499D01*
X65316471Y-95086994D01*
X65300500Y-95033075D01*
X65300500Y-94934109D01*
X65294839Y-94912982D01*
X65266392Y-94806814D01*
X65266390Y-94806811D01*
X65266390Y-94806809D01*
X65200503Y-94692690D01*
X65200501Y-94692688D01*
X65200500Y-94692686D01*
X65107314Y-94599500D01*
X65107311Y-94599498D01*
X65107309Y-94599496D01*
X64993189Y-94533609D01*
X64993191Y-94533609D01*
X64943799Y-94520375D01*
X64865892Y-94499500D01*
X64734108Y-94499500D01*
X64631565Y-94526976D01*
X64606810Y-94533609D01*
X64555533Y-94563214D01*
X64495685Y-94575935D01*
X64439789Y-94551048D01*
X64420297Y-94526976D01*
X64400501Y-94492688D01*
X64400500Y-94492686D01*
X64307314Y-94399500D01*
X64307311Y-94399498D01*
X64307309Y-94399496D01*
X64193189Y-94333609D01*
X64193191Y-94333609D01*
X64143799Y-94320375D01*
X64065892Y-94299500D01*
X63934108Y-94299500D01*
X63856200Y-94320375D01*
X63806809Y-94333609D01*
X63692690Y-94399496D01*
X63599496Y-94492690D01*
X63533609Y-94606809D01*
X63533608Y-94606814D01*
X63499500Y-94734108D01*
X29352765Y-94734108D01*
X29385091Y-94678119D01*
X29422982Y-94612489D01*
X29422982Y-94612487D01*
X29422984Y-94612485D01*
X29460500Y-94472475D01*
X29460500Y-94327525D01*
X29422984Y-94187515D01*
X29422982Y-94187512D01*
X29422982Y-94187510D01*
X29350512Y-94061989D01*
X29350510Y-94061987D01*
X29350509Y-94061985D01*
X29248015Y-93959491D01*
X29248012Y-93959489D01*
X29248010Y-93959487D01*
X29122488Y-93887017D01*
X29122489Y-93887017D01*
X29092896Y-93879087D01*
X28982475Y-93849500D01*
X28837525Y-93849500D01*
X28775790Y-93866041D01*
X28697510Y-93887017D01*
X28571989Y-93959487D01*
X28469487Y-94061989D01*
X28397017Y-94187510D01*
X28397016Y-94187515D01*
X28359500Y-94327525D01*
X20500500Y-94327525D01*
X20500500Y-92927525D01*
X29649500Y-92927525D01*
X29649500Y-93072475D01*
X29658834Y-93107309D01*
X29687017Y-93212489D01*
X29759487Y-93338010D01*
X29759489Y-93338012D01*
X29759491Y-93338015D01*
X29861985Y-93440509D01*
X29861987Y-93440510D01*
X29861989Y-93440512D01*
X29987511Y-93512982D01*
X29987512Y-93512982D01*
X29987515Y-93512984D01*
X30127525Y-93550500D01*
X30127526Y-93550500D01*
X30272474Y-93550500D01*
X30272475Y-93550500D01*
X30412485Y-93512984D01*
X30412487Y-93512982D01*
X30412489Y-93512982D01*
X30538010Y-93440512D01*
X30538010Y-93440511D01*
X30538015Y-93440509D01*
X30640509Y-93338015D01*
X30658237Y-93307309D01*
X30712982Y-93212489D01*
X30712982Y-93212487D01*
X30712984Y-93212485D01*
X30750500Y-93072475D01*
X30750500Y-92927525D01*
X30712984Y-92787515D01*
X30712982Y-92787512D01*
X30712982Y-92787510D01*
X30640512Y-92661989D01*
X30640510Y-92661987D01*
X30640509Y-92661985D01*
X30538015Y-92559491D01*
X30538012Y-92559489D01*
X30538010Y-92559487D01*
X30412488Y-92487017D01*
X30412489Y-92487017D01*
X30348996Y-92470004D01*
X30272475Y-92449500D01*
X30127525Y-92449500D01*
X30108481Y-92454603D01*
X29987510Y-92487017D01*
X29861989Y-92559487D01*
X29759487Y-92661989D01*
X29687017Y-92787510D01*
X29666015Y-92865890D01*
X29649500Y-92927525D01*
X20500500Y-92927525D01*
X20500500Y-92134108D01*
X23699500Y-92134108D01*
X23699500Y-92265892D01*
X23718825Y-92338015D01*
X23733609Y-92393190D01*
X23799496Y-92507309D01*
X23799498Y-92507311D01*
X23799500Y-92507314D01*
X23892686Y-92600500D01*
X23892688Y-92600501D01*
X23892690Y-92600503D01*
X24006810Y-92666390D01*
X24006808Y-92666390D01*
X24006812Y-92666391D01*
X24006814Y-92666392D01*
X24134108Y-92700500D01*
X24134110Y-92700500D01*
X24265890Y-92700500D01*
X24265892Y-92700500D01*
X24393186Y-92666392D01*
X24393188Y-92666390D01*
X24393190Y-92666390D01*
X24507309Y-92600503D01*
X24507309Y-92600502D01*
X24507314Y-92600500D01*
X24600500Y-92507314D01*
X24604723Y-92500000D01*
X24666390Y-92393190D01*
X24666390Y-92393188D01*
X24666392Y-92393186D01*
X24700500Y-92265892D01*
X24700500Y-92134108D01*
X24666392Y-92006814D01*
X24624415Y-91934108D01*
X39099500Y-91934108D01*
X39099500Y-92065892D01*
X39128702Y-92174877D01*
X39133609Y-92193190D01*
X39199496Y-92307309D01*
X39199498Y-92307311D01*
X39199500Y-92307314D01*
X39292686Y-92400500D01*
X39292688Y-92400501D01*
X39292690Y-92400503D01*
X39406810Y-92466390D01*
X39406808Y-92466390D01*
X39406812Y-92466391D01*
X39406814Y-92466392D01*
X39534108Y-92500500D01*
X39534110Y-92500500D01*
X39665890Y-92500500D01*
X39665892Y-92500500D01*
X39793186Y-92466392D01*
X39793188Y-92466390D01*
X39793190Y-92466390D01*
X39907309Y-92400503D01*
X39907309Y-92400502D01*
X39907314Y-92400500D01*
X40000500Y-92307314D01*
X40014264Y-92283474D01*
X40059733Y-92242534D01*
X40120583Y-92236138D01*
X40173571Y-92266731D01*
X40185734Y-92283471D01*
X40199500Y-92307314D01*
X40292686Y-92400500D01*
X40292688Y-92400501D01*
X40292690Y-92400503D01*
X40406810Y-92466390D01*
X40406808Y-92466390D01*
X40406812Y-92466391D01*
X40406814Y-92466392D01*
X40534108Y-92500500D01*
X40534110Y-92500500D01*
X40665890Y-92500500D01*
X40665892Y-92500500D01*
X40793186Y-92466392D01*
X40793188Y-92466390D01*
X40793190Y-92466390D01*
X40907309Y-92400503D01*
X40907309Y-92400502D01*
X40907314Y-92400500D01*
X41000500Y-92307314D01*
X41014264Y-92283474D01*
X41059733Y-92242534D01*
X41120583Y-92236138D01*
X41173571Y-92266731D01*
X41185734Y-92283471D01*
X41199500Y-92307314D01*
X41292686Y-92400500D01*
X41292688Y-92400501D01*
X41292690Y-92400503D01*
X41406810Y-92466390D01*
X41406808Y-92466390D01*
X41406812Y-92466391D01*
X41406814Y-92466392D01*
X41534108Y-92500500D01*
X41534110Y-92500500D01*
X41665890Y-92500500D01*
X41665892Y-92500500D01*
X41793186Y-92466392D01*
X41793188Y-92466390D01*
X41793190Y-92466390D01*
X41907309Y-92400503D01*
X41907309Y-92400502D01*
X41907314Y-92400500D01*
X42000500Y-92307314D01*
X42014264Y-92283474D01*
X42059733Y-92242534D01*
X42120583Y-92236138D01*
X42173571Y-92266731D01*
X42185734Y-92283471D01*
X42194989Y-92299500D01*
X42199500Y-92307314D01*
X42199501Y-92307315D01*
X42222183Y-92329998D01*
X42249959Y-92384515D01*
X42240387Y-92444947D01*
X42222183Y-92470002D01*
X42199501Y-92492684D01*
X42199496Y-92492690D01*
X42133609Y-92606809D01*
X42124044Y-92642507D01*
X42099500Y-92734108D01*
X42099500Y-92865892D01*
X42117778Y-92934108D01*
X42133609Y-92993190D01*
X42199496Y-93107309D01*
X42199498Y-93107311D01*
X42199500Y-93107314D01*
X42292686Y-93200500D01*
X42292688Y-93200501D01*
X42292690Y-93200503D01*
X42406810Y-93266390D01*
X42406808Y-93266390D01*
X42406812Y-93266391D01*
X42406814Y-93266392D01*
X42534108Y-93300500D01*
X42534110Y-93300500D01*
X42665890Y-93300500D01*
X42665892Y-93300500D01*
X42793186Y-93266392D01*
X42793188Y-93266390D01*
X42793190Y-93266390D01*
X42907309Y-93200503D01*
X42907309Y-93200502D01*
X42907314Y-93200500D01*
X43000500Y-93107314D01*
X43000503Y-93107309D01*
X43066390Y-92993190D01*
X43066390Y-92993188D01*
X43066392Y-92993186D01*
X43100500Y-92865892D01*
X43100500Y-92734108D01*
X43066392Y-92606814D01*
X43066390Y-92606811D01*
X43066390Y-92606809D01*
X43000503Y-92492690D01*
X43000501Y-92492688D01*
X43000500Y-92492686D01*
X42977815Y-92470001D01*
X42950040Y-92415487D01*
X42959611Y-92355055D01*
X42977816Y-92329998D01*
X43000500Y-92307314D01*
X43014264Y-92283474D01*
X43059733Y-92242534D01*
X43120583Y-92236138D01*
X43173571Y-92266731D01*
X43185734Y-92283471D01*
X43199500Y-92307314D01*
X43292686Y-92400500D01*
X43326976Y-92420297D01*
X43367918Y-92465766D01*
X43374314Y-92526616D01*
X43363214Y-92555533D01*
X43333609Y-92606810D01*
X43333608Y-92606814D01*
X43299500Y-92734108D01*
X43299500Y-92865892D01*
X43317778Y-92934108D01*
X43333609Y-92993190D01*
X43399496Y-93107309D01*
X43399498Y-93107311D01*
X43399500Y-93107314D01*
X43492686Y-93200500D01*
X43492688Y-93200501D01*
X43492690Y-93200503D01*
X43606810Y-93266390D01*
X43606808Y-93266390D01*
X43606812Y-93266391D01*
X43606814Y-93266392D01*
X43734108Y-93300500D01*
X43734110Y-93300500D01*
X43865890Y-93300500D01*
X43865892Y-93300500D01*
X43993186Y-93266392D01*
X43993188Y-93266390D01*
X43993190Y-93266390D01*
X44107309Y-93200503D01*
X44107309Y-93200502D01*
X44107314Y-93200500D01*
X44200500Y-93107314D01*
X44200503Y-93107309D01*
X44266390Y-92993190D01*
X44266390Y-92993188D01*
X44266392Y-92993186D01*
X44300500Y-92865892D01*
X44300500Y-92734108D01*
X44266392Y-92606814D01*
X44259308Y-92594545D01*
X44246587Y-92534698D01*
X44271473Y-92478802D01*
X44324460Y-92448209D01*
X44385311Y-92454603D01*
X44394545Y-92459308D01*
X44406814Y-92466392D01*
X44534108Y-92500500D01*
X44534110Y-92500500D01*
X44665890Y-92500500D01*
X44665892Y-92500500D01*
X44793186Y-92466392D01*
X44793188Y-92466390D01*
X44793190Y-92466390D01*
X44907309Y-92400503D01*
X44907309Y-92400502D01*
X44907314Y-92400500D01*
X45000500Y-92307314D01*
X45014264Y-92283474D01*
X45059733Y-92242534D01*
X45120583Y-92236138D01*
X45173571Y-92266731D01*
X45185734Y-92283471D01*
X45194989Y-92299500D01*
X45199500Y-92307314D01*
X45199501Y-92307315D01*
X45222183Y-92329998D01*
X45249959Y-92384515D01*
X45240387Y-92444947D01*
X45222183Y-92470002D01*
X45199501Y-92492684D01*
X45199496Y-92492690D01*
X45133609Y-92606809D01*
X45124044Y-92642507D01*
X45099500Y-92734108D01*
X45099500Y-92865892D01*
X45117778Y-92934108D01*
X45133609Y-92993190D01*
X45199496Y-93107309D01*
X45199498Y-93107311D01*
X45199500Y-93107314D01*
X45292686Y-93200500D01*
X45292688Y-93200501D01*
X45292690Y-93200503D01*
X45406810Y-93266390D01*
X45406808Y-93266390D01*
X45406812Y-93266391D01*
X45406814Y-93266392D01*
X45534108Y-93300500D01*
X45534110Y-93300500D01*
X45665890Y-93300500D01*
X45665892Y-93300500D01*
X45793186Y-93266392D01*
X45793188Y-93266390D01*
X45793190Y-93266390D01*
X45907309Y-93200503D01*
X45907309Y-93200502D01*
X45907314Y-93200500D01*
X46000500Y-93107314D01*
X46014264Y-93083474D01*
X46059733Y-93042534D01*
X46120583Y-93036138D01*
X46173571Y-93066731D01*
X46185734Y-93083471D01*
X46199500Y-93107314D01*
X46292686Y-93200500D01*
X46292688Y-93200501D01*
X46292690Y-93200503D01*
X46406810Y-93266390D01*
X46406808Y-93266390D01*
X46406812Y-93266391D01*
X46406814Y-93266392D01*
X46534108Y-93300500D01*
X46534110Y-93300500D01*
X46665890Y-93300500D01*
X46665892Y-93300500D01*
X46793186Y-93266392D01*
X46793188Y-93266390D01*
X46793190Y-93266390D01*
X46907309Y-93200503D01*
X46907309Y-93200502D01*
X46907314Y-93200500D01*
X47000500Y-93107314D01*
X47000503Y-93107309D01*
X47066390Y-92993190D01*
X47066390Y-92993188D01*
X47066392Y-92993186D01*
X47100500Y-92865892D01*
X47100500Y-92734108D01*
X47066392Y-92606814D01*
X47066390Y-92606811D01*
X47066390Y-92606809D01*
X47000503Y-92492690D01*
X47000501Y-92492688D01*
X47000500Y-92492686D01*
X46977815Y-92470001D01*
X46950040Y-92415487D01*
X46959611Y-92355055D01*
X46977816Y-92329998D01*
X47000500Y-92307314D01*
X47014264Y-92283474D01*
X47059733Y-92242534D01*
X47120583Y-92236138D01*
X47173571Y-92266731D01*
X47185734Y-92283471D01*
X47199500Y-92307314D01*
X47292686Y-92400500D01*
X47292688Y-92400501D01*
X47292690Y-92400503D01*
X47406810Y-92466390D01*
X47406808Y-92466390D01*
X47406812Y-92466391D01*
X47406814Y-92466392D01*
X47534108Y-92500500D01*
X47534110Y-92500500D01*
X47665890Y-92500500D01*
X47665892Y-92500500D01*
X47793186Y-92466392D01*
X47793188Y-92466390D01*
X47793190Y-92466390D01*
X47907309Y-92400503D01*
X47907309Y-92400502D01*
X47907314Y-92400500D01*
X47998829Y-92308984D01*
X48053343Y-92281208D01*
X48113776Y-92290779D01*
X48154565Y-92329485D01*
X48159487Y-92338010D01*
X48159489Y-92338012D01*
X48159491Y-92338015D01*
X48261985Y-92440509D01*
X48261987Y-92440510D01*
X48261989Y-92440512D01*
X48387511Y-92512982D01*
X48387512Y-92512982D01*
X48387515Y-92512984D01*
X48527525Y-92550500D01*
X48527526Y-92550500D01*
X48672474Y-92550500D01*
X48672475Y-92550500D01*
X48812485Y-92512984D01*
X48812487Y-92512982D01*
X48812489Y-92512982D01*
X48938010Y-92440512D01*
X48938010Y-92440511D01*
X48938015Y-92440509D01*
X49029998Y-92348525D01*
X49084513Y-92320750D01*
X49144945Y-92330321D01*
X49170000Y-92348524D01*
X49251474Y-92429998D01*
X49279250Y-92484513D01*
X49269679Y-92544945D01*
X49251475Y-92570000D01*
X49196353Y-92625123D01*
X49159488Y-92661988D01*
X49159487Y-92661989D01*
X49087017Y-92787510D01*
X49066015Y-92865890D01*
X49049500Y-92927525D01*
X49049500Y-93072475D01*
X49058834Y-93107309D01*
X49087017Y-93212489D01*
X49159487Y-93338010D01*
X49159489Y-93338012D01*
X49159491Y-93338015D01*
X49261985Y-93440509D01*
X49261987Y-93440510D01*
X49261989Y-93440512D01*
X49387511Y-93512982D01*
X49387512Y-93512982D01*
X49387515Y-93512984D01*
X49527525Y-93550500D01*
X49527526Y-93550500D01*
X49672474Y-93550500D01*
X49672475Y-93550500D01*
X49733650Y-93534108D01*
X67099500Y-93534108D01*
X67099500Y-93665892D01*
X67129579Y-93778151D01*
X67133609Y-93793190D01*
X67199496Y-93907309D01*
X67199498Y-93907311D01*
X67199500Y-93907314D01*
X67292686Y-94000500D01*
X67292688Y-94000501D01*
X67292690Y-94000503D01*
X67406810Y-94066390D01*
X67406808Y-94066390D01*
X67406812Y-94066391D01*
X67406814Y-94066392D01*
X67534108Y-94100500D01*
X67534110Y-94100500D01*
X67665890Y-94100500D01*
X67665892Y-94100500D01*
X67793186Y-94066392D01*
X67793188Y-94066390D01*
X67793190Y-94066390D01*
X67907309Y-94000503D01*
X67907309Y-94000502D01*
X67907314Y-94000500D01*
X68000500Y-93907314D01*
X68066392Y-93793186D01*
X68100500Y-93665892D01*
X68100500Y-93534108D01*
X68066392Y-93406814D01*
X68066390Y-93406811D01*
X68066390Y-93406809D01*
X68000503Y-93292690D01*
X68000501Y-93292688D01*
X68000500Y-93292686D01*
X67907314Y-93199500D01*
X67907311Y-93199498D01*
X67907309Y-93199496D01*
X67793189Y-93133609D01*
X67793191Y-93133609D01*
X67743799Y-93120375D01*
X67665892Y-93099500D01*
X67534108Y-93099500D01*
X67456200Y-93120375D01*
X67406809Y-93133609D01*
X67292690Y-93199496D01*
X67199496Y-93292690D01*
X67133609Y-93406809D01*
X67124579Y-93440512D01*
X67099500Y-93534108D01*
X49733650Y-93534108D01*
X49812485Y-93512984D01*
X49812487Y-93512982D01*
X49812489Y-93512982D01*
X49938010Y-93440512D01*
X49938010Y-93440511D01*
X49938015Y-93440509D01*
X50040509Y-93338015D01*
X50058237Y-93307309D01*
X50112982Y-93212489D01*
X50112982Y-93212487D01*
X50112984Y-93212485D01*
X50150500Y-93072475D01*
X50150500Y-92927525D01*
X50112984Y-92787515D01*
X50112982Y-92787512D01*
X50112982Y-92787510D01*
X50040512Y-92661989D01*
X50040510Y-92661987D01*
X50040509Y-92661985D01*
X49948525Y-92570001D01*
X49920750Y-92515487D01*
X49930321Y-92455055D01*
X49948524Y-92429999D01*
X50029998Y-92348525D01*
X50084513Y-92320750D01*
X50144945Y-92330321D01*
X50170000Y-92348524D01*
X50261985Y-92440509D01*
X50261987Y-92440510D01*
X50261989Y-92440512D01*
X50387511Y-92512982D01*
X50387512Y-92512982D01*
X50387515Y-92512984D01*
X50527525Y-92550500D01*
X50527526Y-92550500D01*
X50672474Y-92550500D01*
X50672475Y-92550500D01*
X50812485Y-92512984D01*
X50812487Y-92512982D01*
X50812489Y-92512982D01*
X50938010Y-92440512D01*
X50938010Y-92440511D01*
X50938015Y-92440509D01*
X51040509Y-92338015D01*
X51045431Y-92329490D01*
X51090900Y-92288548D01*
X51151750Y-92282152D01*
X51201169Y-92308983D01*
X51292686Y-92400500D01*
X51292688Y-92400501D01*
X51292690Y-92400503D01*
X51406810Y-92466390D01*
X51406808Y-92466390D01*
X51406812Y-92466391D01*
X51406814Y-92466392D01*
X51534108Y-92500500D01*
X51534110Y-92500500D01*
X51665890Y-92500500D01*
X51665892Y-92500500D01*
X51793186Y-92466392D01*
X51793188Y-92466390D01*
X51793190Y-92466390D01*
X51907309Y-92400503D01*
X51907309Y-92400502D01*
X51907314Y-92400500D01*
X52000500Y-92307314D01*
X52014264Y-92283474D01*
X52059733Y-92242534D01*
X52120583Y-92236138D01*
X52173571Y-92266731D01*
X52185734Y-92283471D01*
X52199500Y-92307314D01*
X52292686Y-92400500D01*
X52292688Y-92400501D01*
X52292690Y-92400503D01*
X52406810Y-92466390D01*
X52406808Y-92466390D01*
X52406812Y-92466391D01*
X52406814Y-92466392D01*
X52534108Y-92500500D01*
X52534110Y-92500500D01*
X52665890Y-92500500D01*
X52665892Y-92500500D01*
X52754054Y-92476877D01*
X52815152Y-92480079D01*
X52862702Y-92518584D01*
X52878538Y-92577685D01*
X52856612Y-92634806D01*
X52849678Y-92642507D01*
X52799500Y-92692684D01*
X52799496Y-92692690D01*
X52733609Y-92806809D01*
X52733608Y-92806814D01*
X52699500Y-92934108D01*
X52699500Y-93065892D01*
X52710599Y-93107314D01*
X52733609Y-93193190D01*
X52799496Y-93307309D01*
X52799498Y-93307311D01*
X52799500Y-93307314D01*
X52892686Y-93400500D01*
X52892688Y-93400501D01*
X52892690Y-93400503D01*
X53006810Y-93466390D01*
X53006808Y-93466390D01*
X53006812Y-93466391D01*
X53006814Y-93466392D01*
X53134108Y-93500500D01*
X53134110Y-93500500D01*
X53265890Y-93500500D01*
X53265892Y-93500500D01*
X53393186Y-93466392D01*
X53393188Y-93466390D01*
X53393190Y-93466390D01*
X53435638Y-93441883D01*
X53507309Y-93400503D01*
X53507309Y-93400502D01*
X53507314Y-93400500D01*
X53600500Y-93307314D01*
X53608946Y-93292686D01*
X53666390Y-93193190D01*
X53666390Y-93193188D01*
X53666392Y-93193186D01*
X53700500Y-93065892D01*
X53700500Y-92934108D01*
X53666392Y-92806814D01*
X53666390Y-92806811D01*
X53666390Y-92806809D01*
X53600503Y-92692690D01*
X53600501Y-92692688D01*
X53600500Y-92692686D01*
X53577315Y-92669501D01*
X53549540Y-92614987D01*
X53559111Y-92554555D01*
X53602376Y-92511290D01*
X53647321Y-92500500D01*
X53665890Y-92500500D01*
X53665892Y-92500500D01*
X53793186Y-92466392D01*
X53793188Y-92466390D01*
X53793190Y-92466390D01*
X53907309Y-92400503D01*
X53907309Y-92400502D01*
X53907314Y-92400500D01*
X54000500Y-92307314D01*
X54014264Y-92283474D01*
X54059733Y-92242534D01*
X54120583Y-92236138D01*
X54173571Y-92266731D01*
X54185734Y-92283471D01*
X54199500Y-92307314D01*
X54292686Y-92400500D01*
X54292688Y-92400501D01*
X54292690Y-92400503D01*
X54406810Y-92466390D01*
X54406808Y-92466390D01*
X54406812Y-92466391D01*
X54406814Y-92466392D01*
X54534108Y-92500500D01*
X54534110Y-92500500D01*
X54665890Y-92500500D01*
X54665892Y-92500500D01*
X54793186Y-92466392D01*
X54793188Y-92466390D01*
X54793190Y-92466390D01*
X54907309Y-92400503D01*
X54907309Y-92400502D01*
X54907314Y-92400500D01*
X55000500Y-92307314D01*
X55014264Y-92283474D01*
X55059733Y-92242534D01*
X55120583Y-92236138D01*
X55173571Y-92266731D01*
X55185734Y-92283471D01*
X55199500Y-92307314D01*
X55292686Y-92400500D01*
X55292688Y-92400501D01*
X55292690Y-92400503D01*
X55406810Y-92466390D01*
X55406808Y-92466390D01*
X55406812Y-92466391D01*
X55406814Y-92466392D01*
X55534108Y-92500500D01*
X55534110Y-92500500D01*
X55633076Y-92500500D01*
X55691267Y-92519407D01*
X55727231Y-92568907D01*
X55728702Y-92625120D01*
X55699500Y-92734108D01*
X55699500Y-92865892D01*
X55717778Y-92934108D01*
X55733609Y-92993190D01*
X55799496Y-93107309D01*
X55799498Y-93107311D01*
X55799500Y-93107314D01*
X55892686Y-93200500D01*
X55892688Y-93200501D01*
X55892690Y-93200503D01*
X56006810Y-93266390D01*
X56006808Y-93266390D01*
X56006812Y-93266391D01*
X56006814Y-93266392D01*
X56134108Y-93300500D01*
X56134110Y-93300500D01*
X56265890Y-93300500D01*
X56265892Y-93300500D01*
X56393186Y-93266392D01*
X56393188Y-93266390D01*
X56393190Y-93266390D01*
X56507309Y-93200503D01*
X56507309Y-93200502D01*
X56507314Y-93200500D01*
X56600500Y-93107314D01*
X56600503Y-93107309D01*
X56666390Y-92993190D01*
X56666390Y-92993188D01*
X56666392Y-92993186D01*
X56700500Y-92865892D01*
X56700500Y-92734108D01*
X56666392Y-92606814D01*
X56666390Y-92606811D01*
X56666390Y-92606809D01*
X56600503Y-92492690D01*
X56600501Y-92492688D01*
X56600500Y-92492686D01*
X56507314Y-92399500D01*
X56507311Y-92399498D01*
X56507309Y-92399496D01*
X56393189Y-92333609D01*
X56393191Y-92333609D01*
X56343799Y-92320375D01*
X56265892Y-92299500D01*
X56166924Y-92299500D01*
X56108733Y-92280593D01*
X56072769Y-92231093D01*
X56071297Y-92174879D01*
X56100500Y-92065892D01*
X56100500Y-91934108D01*
X56066392Y-91806814D01*
X56066390Y-91806811D01*
X56066390Y-91806809D01*
X56000503Y-91692690D01*
X56000501Y-91692688D01*
X56000500Y-91692686D01*
X55907314Y-91599500D01*
X55907311Y-91599498D01*
X55907309Y-91599496D01*
X55794053Y-91534108D01*
X63899500Y-91534108D01*
X63899500Y-91665892D01*
X63913067Y-91716525D01*
X63933609Y-91793190D01*
X63999496Y-91907309D01*
X63999498Y-91907311D01*
X63999500Y-91907314D01*
X64092686Y-92000500D01*
X64092688Y-92000501D01*
X64092690Y-92000503D01*
X64206810Y-92066390D01*
X64206808Y-92066390D01*
X64206812Y-92066391D01*
X64206814Y-92066392D01*
X64334108Y-92100500D01*
X64334110Y-92100500D01*
X64465890Y-92100500D01*
X64465892Y-92100500D01*
X64593186Y-92066392D01*
X64593188Y-92066390D01*
X64593190Y-92066390D01*
X64707309Y-92000503D01*
X64707309Y-92000502D01*
X64707314Y-92000500D01*
X64800500Y-91907314D01*
X64866392Y-91793186D01*
X64900500Y-91665892D01*
X64900500Y-91534108D01*
X64866392Y-91406814D01*
X64866390Y-91406811D01*
X64866390Y-91406809D01*
X64800503Y-91292690D01*
X64800501Y-91292688D01*
X64800500Y-91292686D01*
X64707314Y-91199500D01*
X64707311Y-91199498D01*
X64707309Y-91199496D01*
X64593189Y-91133609D01*
X64593191Y-91133609D01*
X64543799Y-91120375D01*
X64465892Y-91099500D01*
X64334108Y-91099500D01*
X64256200Y-91120375D01*
X64206809Y-91133609D01*
X64092690Y-91199496D01*
X63999496Y-91292690D01*
X63933609Y-91406809D01*
X63933608Y-91406814D01*
X63899500Y-91534108D01*
X55794053Y-91534108D01*
X55793189Y-91533609D01*
X55793191Y-91533609D01*
X55743799Y-91520375D01*
X55665892Y-91499500D01*
X55534108Y-91499500D01*
X55456200Y-91520375D01*
X55406809Y-91533609D01*
X55292690Y-91599496D01*
X55199498Y-91692688D01*
X55185736Y-91716525D01*
X55140266Y-91757465D01*
X55079416Y-91763860D01*
X55026428Y-91733267D01*
X55014264Y-91716525D01*
X55000501Y-91692688D01*
X55000500Y-91692686D01*
X54907314Y-91599500D01*
X54907311Y-91599498D01*
X54907309Y-91599496D01*
X54793189Y-91533609D01*
X54793191Y-91533609D01*
X54743799Y-91520375D01*
X54665892Y-91499500D01*
X54534108Y-91499500D01*
X54456200Y-91520375D01*
X54406809Y-91533609D01*
X54292690Y-91599496D01*
X54199498Y-91692688D01*
X54185736Y-91716525D01*
X54140266Y-91757465D01*
X54079416Y-91763860D01*
X54026428Y-91733267D01*
X54014264Y-91716525D01*
X54000501Y-91692688D01*
X54000500Y-91692686D01*
X53907314Y-91599500D01*
X53907311Y-91599498D01*
X53907309Y-91599496D01*
X53793189Y-91533609D01*
X53793191Y-91533609D01*
X53743799Y-91520375D01*
X53665892Y-91499500D01*
X53534108Y-91499500D01*
X53456200Y-91520375D01*
X53406809Y-91533609D01*
X53292690Y-91599496D01*
X53199498Y-91692688D01*
X53185736Y-91716525D01*
X53140266Y-91757465D01*
X53079416Y-91763860D01*
X53026428Y-91733267D01*
X53014264Y-91716525D01*
X53000501Y-91692688D01*
X53000500Y-91692686D01*
X52907314Y-91599500D01*
X52907311Y-91599498D01*
X52907309Y-91599496D01*
X52793189Y-91533609D01*
X52793191Y-91533609D01*
X52743799Y-91520375D01*
X52665892Y-91499500D01*
X52534108Y-91499500D01*
X52456200Y-91520375D01*
X52406809Y-91533609D01*
X52292690Y-91599496D01*
X52199498Y-91692688D01*
X52185736Y-91716525D01*
X52140266Y-91757465D01*
X52079416Y-91763860D01*
X52026428Y-91733267D01*
X52014264Y-91716525D01*
X52000501Y-91692688D01*
X52000500Y-91692686D01*
X51907314Y-91599500D01*
X51907311Y-91599498D01*
X51907309Y-91599496D01*
X51793189Y-91533609D01*
X51793191Y-91533609D01*
X51743799Y-91520375D01*
X51665892Y-91499500D01*
X51534108Y-91499500D01*
X51456200Y-91520375D01*
X51406809Y-91533609D01*
X51292690Y-91599496D01*
X51292685Y-91599500D01*
X51201171Y-91691014D01*
X51146655Y-91718791D01*
X51086222Y-91709219D01*
X51045432Y-91670512D01*
X51044951Y-91669679D01*
X51040509Y-91661985D01*
X50938015Y-91559491D01*
X50938012Y-91559489D01*
X50938010Y-91559487D01*
X50812488Y-91487017D01*
X50812489Y-91487017D01*
X50735516Y-91466392D01*
X50672475Y-91449500D01*
X50527525Y-91449500D01*
X50465790Y-91466041D01*
X50387510Y-91487017D01*
X50261989Y-91559487D01*
X50261988Y-91559488D01*
X50261985Y-91559490D01*
X50261985Y-91559491D01*
X50170001Y-91651474D01*
X50115487Y-91679250D01*
X50055055Y-91669679D01*
X50029999Y-91651475D01*
X49938015Y-91559491D01*
X49938012Y-91559489D01*
X49938010Y-91559487D01*
X49812488Y-91487017D01*
X49812489Y-91487017D01*
X49735516Y-91466392D01*
X49672475Y-91449500D01*
X49527525Y-91449500D01*
X49465790Y-91466041D01*
X49387510Y-91487017D01*
X49261989Y-91559487D01*
X49261988Y-91559488D01*
X49261985Y-91559490D01*
X49261985Y-91559491D01*
X49170001Y-91651474D01*
X49115487Y-91679250D01*
X49055055Y-91669679D01*
X49029999Y-91651475D01*
X48938015Y-91559491D01*
X48938012Y-91559489D01*
X48938010Y-91559487D01*
X48812488Y-91487017D01*
X48812489Y-91487017D01*
X48735516Y-91466392D01*
X48672475Y-91449500D01*
X48527525Y-91449500D01*
X48465790Y-91466041D01*
X48387510Y-91487017D01*
X48261989Y-91559487D01*
X48159487Y-91661989D01*
X48154564Y-91670516D01*
X48109091Y-91711454D01*
X48048241Y-91717845D01*
X47998829Y-91691015D01*
X47907314Y-91599500D01*
X47907311Y-91599498D01*
X47907309Y-91599496D01*
X47793189Y-91533609D01*
X47793191Y-91533609D01*
X47743799Y-91520375D01*
X47665892Y-91499500D01*
X47534108Y-91499500D01*
X47456200Y-91520375D01*
X47406809Y-91533609D01*
X47292690Y-91599496D01*
X47199498Y-91692688D01*
X47185736Y-91716525D01*
X47140266Y-91757465D01*
X47079416Y-91763860D01*
X47026428Y-91733267D01*
X47014264Y-91716525D01*
X47000501Y-91692688D01*
X47000500Y-91692686D01*
X46907314Y-91599500D01*
X46907311Y-91599498D01*
X46907309Y-91599496D01*
X46793189Y-91533609D01*
X46793191Y-91533609D01*
X46743799Y-91520375D01*
X46665892Y-91499500D01*
X46534108Y-91499500D01*
X46456200Y-91520375D01*
X46406809Y-91533609D01*
X46292690Y-91599496D01*
X46199498Y-91692688D01*
X46185736Y-91716525D01*
X46140266Y-91757465D01*
X46079416Y-91763860D01*
X46026428Y-91733267D01*
X46014264Y-91716525D01*
X46000501Y-91692688D01*
X46000500Y-91692686D01*
X45907314Y-91599500D01*
X45907311Y-91599498D01*
X45907309Y-91599496D01*
X45793189Y-91533609D01*
X45793191Y-91533609D01*
X45743799Y-91520375D01*
X45665892Y-91499500D01*
X45534108Y-91499500D01*
X45456200Y-91520375D01*
X45406809Y-91533609D01*
X45292690Y-91599496D01*
X45199498Y-91692688D01*
X45185736Y-91716525D01*
X45140266Y-91757465D01*
X45079416Y-91763860D01*
X45026428Y-91733267D01*
X45014264Y-91716525D01*
X45000501Y-91692688D01*
X45000500Y-91692686D01*
X44907314Y-91599500D01*
X44907311Y-91599498D01*
X44907309Y-91599496D01*
X44793189Y-91533609D01*
X44793191Y-91533609D01*
X44743799Y-91520375D01*
X44665892Y-91499500D01*
X44534108Y-91499500D01*
X44456200Y-91520375D01*
X44406809Y-91533609D01*
X44292690Y-91599496D01*
X44199498Y-91692688D01*
X44185736Y-91716525D01*
X44140266Y-91757465D01*
X44079416Y-91763860D01*
X44026428Y-91733267D01*
X44014264Y-91716525D01*
X44000501Y-91692688D01*
X44000500Y-91692686D01*
X43907314Y-91599500D01*
X43907311Y-91599498D01*
X43907309Y-91599496D01*
X43793189Y-91533609D01*
X43793191Y-91533609D01*
X43743799Y-91520375D01*
X43665892Y-91499500D01*
X43534108Y-91499500D01*
X43456200Y-91520375D01*
X43406809Y-91533609D01*
X43292690Y-91599496D01*
X43199498Y-91692688D01*
X43185736Y-91716525D01*
X43140266Y-91757465D01*
X43079416Y-91763860D01*
X43026428Y-91733267D01*
X43014264Y-91716525D01*
X43000501Y-91692688D01*
X43000500Y-91692686D01*
X42907314Y-91599500D01*
X42907311Y-91599498D01*
X42907309Y-91599496D01*
X42793189Y-91533609D01*
X42793191Y-91533609D01*
X42743799Y-91520375D01*
X42665892Y-91499500D01*
X42534108Y-91499500D01*
X42456200Y-91520375D01*
X42406809Y-91533609D01*
X42292690Y-91599496D01*
X42199498Y-91692688D01*
X42185736Y-91716525D01*
X42140266Y-91757465D01*
X42079416Y-91763860D01*
X42026428Y-91733267D01*
X42014264Y-91716525D01*
X42000501Y-91692688D01*
X42000500Y-91692686D01*
X41907314Y-91599500D01*
X41907311Y-91599498D01*
X41907309Y-91599496D01*
X41793189Y-91533609D01*
X41793191Y-91533609D01*
X41743799Y-91520375D01*
X41665892Y-91499500D01*
X41534108Y-91499500D01*
X41456200Y-91520375D01*
X41406809Y-91533609D01*
X41292690Y-91599496D01*
X41199498Y-91692688D01*
X41185736Y-91716525D01*
X41140266Y-91757465D01*
X41079416Y-91763860D01*
X41026428Y-91733267D01*
X41014264Y-91716525D01*
X41000501Y-91692688D01*
X41000500Y-91692686D01*
X40907314Y-91599500D01*
X40907311Y-91599498D01*
X40907309Y-91599496D01*
X40793189Y-91533609D01*
X40793191Y-91533609D01*
X40743799Y-91520375D01*
X40665892Y-91499500D01*
X40534108Y-91499500D01*
X40456200Y-91520375D01*
X40406809Y-91533609D01*
X40292690Y-91599496D01*
X40199498Y-91692688D01*
X40185736Y-91716525D01*
X40140266Y-91757465D01*
X40079416Y-91763860D01*
X40026428Y-91733267D01*
X40014264Y-91716525D01*
X40000501Y-91692688D01*
X40000500Y-91692686D01*
X39907314Y-91599500D01*
X39907311Y-91599498D01*
X39907309Y-91599496D01*
X39793189Y-91533609D01*
X39793191Y-91533609D01*
X39743799Y-91520375D01*
X39665892Y-91499500D01*
X39534108Y-91499500D01*
X39456200Y-91520375D01*
X39406809Y-91533609D01*
X39292690Y-91599496D01*
X39199496Y-91692690D01*
X39133609Y-91806809D01*
X39133608Y-91806814D01*
X39099500Y-91934108D01*
X24624415Y-91934108D01*
X24600500Y-91892686D01*
X24507314Y-91799500D01*
X24507311Y-91799498D01*
X24507309Y-91799496D01*
X24393189Y-91733609D01*
X24393191Y-91733609D01*
X24334357Y-91717845D01*
X24265892Y-91699500D01*
X24134108Y-91699500D01*
X24065643Y-91717845D01*
X24006809Y-91733609D01*
X23892690Y-91799496D01*
X23799496Y-91892690D01*
X23733609Y-92006809D01*
X23733608Y-92006814D01*
X23699500Y-92134108D01*
X20500500Y-92134108D01*
X20500500Y-89517525D01*
X21649500Y-89517525D01*
X21649500Y-89662475D01*
X21675495Y-89759487D01*
X21687017Y-89802489D01*
X21759487Y-89928010D01*
X21759489Y-89928012D01*
X21759491Y-89928015D01*
X21861985Y-90030509D01*
X21861987Y-90030510D01*
X21861989Y-90030512D01*
X21987511Y-90102982D01*
X21987512Y-90102982D01*
X21987515Y-90102984D01*
X22127525Y-90140500D01*
X22127526Y-90140500D01*
X22272474Y-90140500D01*
X22272475Y-90140500D01*
X22412485Y-90102984D01*
X22412487Y-90102982D01*
X22412489Y-90102982D01*
X22538010Y-90030512D01*
X22538010Y-90030511D01*
X22538015Y-90030509D01*
X22640509Y-89928015D01*
X22640792Y-89927525D01*
X28049500Y-89927525D01*
X28049500Y-90072475D01*
X28079087Y-90182896D01*
X28087017Y-90212489D01*
X28159487Y-90338010D01*
X28159489Y-90338012D01*
X28159491Y-90338015D01*
X28261985Y-90440509D01*
X28261987Y-90440510D01*
X28261989Y-90440512D01*
X28387511Y-90512982D01*
X28387512Y-90512982D01*
X28387515Y-90512984D01*
X28527525Y-90550500D01*
X28527526Y-90550500D01*
X28672474Y-90550500D01*
X28672475Y-90550500D01*
X28812485Y-90512984D01*
X28812487Y-90512982D01*
X28812489Y-90512982D01*
X28938010Y-90440512D01*
X28938010Y-90440511D01*
X28938015Y-90440509D01*
X29040509Y-90338015D01*
X29047090Y-90326616D01*
X29112982Y-90212489D01*
X29112982Y-90212487D01*
X29112984Y-90212485D01*
X29139461Y-90113668D01*
X29172784Y-90062358D01*
X29229905Y-90040431D01*
X29284587Y-90053559D01*
X29387511Y-90112982D01*
X29387512Y-90112982D01*
X29387515Y-90112984D01*
X29527525Y-90150500D01*
X29527526Y-90150500D01*
X29672474Y-90150500D01*
X29672475Y-90150500D01*
X29812485Y-90112984D01*
X29812487Y-90112982D01*
X29812489Y-90112982D01*
X29938010Y-90040512D01*
X29938010Y-90040511D01*
X29938015Y-90040509D01*
X30040509Y-89938015D01*
X30046283Y-89928015D01*
X30114764Y-89809403D01*
X30160233Y-89768462D01*
X30221083Y-89762066D01*
X30274071Y-89792659D01*
X30298958Y-89848555D01*
X30299500Y-89858903D01*
X30299500Y-89865892D01*
X30316146Y-89928015D01*
X30333609Y-89993190D01*
X30399496Y-90107309D01*
X30399498Y-90107311D01*
X30399500Y-90107314D01*
X30492686Y-90200500D01*
X30526976Y-90220297D01*
X30567918Y-90265766D01*
X30574314Y-90326616D01*
X30563214Y-90355533D01*
X30533609Y-90406810D01*
X30533608Y-90406814D01*
X30499500Y-90534108D01*
X30499500Y-90665892D01*
X30529579Y-90778151D01*
X30533609Y-90793190D01*
X30599496Y-90907309D01*
X30599498Y-90907311D01*
X30599500Y-90907314D01*
X30692686Y-91000500D01*
X30692688Y-91000501D01*
X30692690Y-91000503D01*
X30806810Y-91066390D01*
X30806808Y-91066390D01*
X30806812Y-91066391D01*
X30806814Y-91066392D01*
X30934108Y-91100500D01*
X30934110Y-91100500D01*
X31065890Y-91100500D01*
X31065892Y-91100500D01*
X31193186Y-91066392D01*
X31193188Y-91066390D01*
X31193190Y-91066390D01*
X31307309Y-91000503D01*
X31307309Y-91000502D01*
X31307314Y-91000500D01*
X31373706Y-90934108D01*
X37499500Y-90934108D01*
X37499500Y-91065892D01*
X37508773Y-91100500D01*
X37533609Y-91193190D01*
X37599496Y-91307309D01*
X37599498Y-91307311D01*
X37599500Y-91307314D01*
X37692686Y-91400500D01*
X37692688Y-91400501D01*
X37692690Y-91400503D01*
X37806810Y-91466390D01*
X37806808Y-91466390D01*
X37806812Y-91466391D01*
X37806814Y-91466392D01*
X37934108Y-91500500D01*
X37934110Y-91500500D01*
X38065890Y-91500500D01*
X38065892Y-91500500D01*
X38193186Y-91466392D01*
X38193188Y-91466390D01*
X38193190Y-91466390D01*
X38307309Y-91400503D01*
X38307309Y-91400502D01*
X38307314Y-91400500D01*
X38400500Y-91307314D01*
X38466392Y-91193186D01*
X38500500Y-91065892D01*
X38500500Y-90934108D01*
X38466392Y-90806814D01*
X38466390Y-90806811D01*
X38466390Y-90806809D01*
X38400503Y-90692690D01*
X38400501Y-90692688D01*
X38400500Y-90692686D01*
X38307314Y-90599500D01*
X38307311Y-90599498D01*
X38307309Y-90599496D01*
X38193189Y-90533609D01*
X38193191Y-90533609D01*
X38116215Y-90512984D01*
X38065892Y-90499500D01*
X37934108Y-90499500D01*
X37883785Y-90512984D01*
X37806809Y-90533609D01*
X37692690Y-90599496D01*
X37599496Y-90692690D01*
X37533609Y-90806809D01*
X37533608Y-90806814D01*
X37499500Y-90934108D01*
X31373706Y-90934108D01*
X31400500Y-90907314D01*
X31409504Y-90891717D01*
X31417357Y-90878118D01*
X31458524Y-90806814D01*
X31466392Y-90793186D01*
X31500500Y-90665892D01*
X31500500Y-90534108D01*
X31466392Y-90406814D01*
X31466390Y-90406810D01*
X31466390Y-90406809D01*
X31400503Y-90292690D01*
X31400501Y-90292688D01*
X31400500Y-90292686D01*
X31307314Y-90199500D01*
X31271176Y-90178635D01*
X31269395Y-90177503D01*
X31251200Y-90155466D01*
X31232081Y-90134232D01*
X31232068Y-90134108D01*
X43499500Y-90134108D01*
X43499500Y-90265892D01*
X43515771Y-90326616D01*
X43533609Y-90393190D01*
X43599496Y-90507309D01*
X43599498Y-90507311D01*
X43599500Y-90507314D01*
X43692686Y-90600500D01*
X43692688Y-90600501D01*
X43692690Y-90600503D01*
X43806810Y-90666390D01*
X43806808Y-90666390D01*
X43806812Y-90666391D01*
X43806814Y-90666392D01*
X43934108Y-90700500D01*
X43934110Y-90700500D01*
X44065890Y-90700500D01*
X44065892Y-90700500D01*
X44193186Y-90666392D01*
X44193188Y-90666390D01*
X44193190Y-90666390D01*
X44307309Y-90600503D01*
X44307309Y-90600502D01*
X44307314Y-90600500D01*
X44400500Y-90507314D01*
X44400503Y-90507309D01*
X44466390Y-90393190D01*
X44466390Y-90393188D01*
X44466392Y-90393186D01*
X44500500Y-90265892D01*
X44500500Y-90134108D01*
X46499500Y-90134108D01*
X46499500Y-90265892D01*
X46515771Y-90326616D01*
X46533609Y-90393190D01*
X46599496Y-90507309D01*
X46599498Y-90507311D01*
X46599500Y-90507314D01*
X46692686Y-90600500D01*
X46692688Y-90600501D01*
X46692690Y-90600503D01*
X46806810Y-90666390D01*
X46806808Y-90666390D01*
X46806812Y-90666391D01*
X46806814Y-90666392D01*
X46934108Y-90700500D01*
X46934110Y-90700500D01*
X47065890Y-90700500D01*
X47065892Y-90700500D01*
X47193186Y-90666392D01*
X47193188Y-90666390D01*
X47193190Y-90666390D01*
X47307309Y-90600503D01*
X47307309Y-90600502D01*
X47307314Y-90600500D01*
X47400500Y-90507314D01*
X47400503Y-90507309D01*
X47466390Y-90393190D01*
X47466390Y-90393188D01*
X47466392Y-90393186D01*
X47500500Y-90265892D01*
X47500500Y-90134108D01*
X47899500Y-90134108D01*
X47899500Y-90265892D01*
X47915771Y-90326616D01*
X47933609Y-90393190D01*
X47999496Y-90507309D01*
X47999498Y-90507311D01*
X47999500Y-90507314D01*
X48092686Y-90600500D01*
X48092688Y-90600501D01*
X48092690Y-90600503D01*
X48206810Y-90666390D01*
X48206808Y-90666390D01*
X48206812Y-90666391D01*
X48206814Y-90666392D01*
X48334108Y-90700500D01*
X48334110Y-90700500D01*
X48465890Y-90700500D01*
X48465892Y-90700500D01*
X48593186Y-90666392D01*
X48593188Y-90666390D01*
X48593190Y-90666390D01*
X48707309Y-90600503D01*
X48707309Y-90600502D01*
X48707314Y-90600500D01*
X48800500Y-90507314D01*
X48800503Y-90507309D01*
X48866390Y-90393190D01*
X48866390Y-90393188D01*
X48866392Y-90393186D01*
X48900500Y-90265892D01*
X48900500Y-90134108D01*
X48898736Y-90127525D01*
X49249500Y-90127525D01*
X49249500Y-90272474D01*
X49287017Y-90412489D01*
X49359487Y-90538010D01*
X49359489Y-90538012D01*
X49359491Y-90538015D01*
X49461985Y-90640509D01*
X49461987Y-90640510D01*
X49461989Y-90640512D01*
X49587511Y-90712982D01*
X49587512Y-90712982D01*
X49587515Y-90712984D01*
X49727525Y-90750500D01*
X49727526Y-90750500D01*
X49872474Y-90750500D01*
X49872475Y-90750500D01*
X50012485Y-90712984D01*
X50012487Y-90712982D01*
X50012489Y-90712982D01*
X50138010Y-90640512D01*
X50138010Y-90640511D01*
X50138015Y-90640509D01*
X50240509Y-90538015D01*
X50243053Y-90533609D01*
X50312982Y-90412489D01*
X50312982Y-90412487D01*
X50312984Y-90412485D01*
X50350500Y-90272475D01*
X50350500Y-90134108D01*
X57499500Y-90134108D01*
X57499500Y-90265892D01*
X57515771Y-90326616D01*
X57533609Y-90393190D01*
X57599496Y-90507309D01*
X57599498Y-90507311D01*
X57599500Y-90507314D01*
X57692686Y-90600500D01*
X57692688Y-90600501D01*
X57692690Y-90600503D01*
X57806810Y-90666390D01*
X57806808Y-90666390D01*
X57806812Y-90666391D01*
X57806814Y-90666392D01*
X57934108Y-90700500D01*
X57934110Y-90700500D01*
X58065890Y-90700500D01*
X58065892Y-90700500D01*
X58193186Y-90666392D01*
X58193188Y-90666390D01*
X58193190Y-90666390D01*
X58307309Y-90600503D01*
X58307309Y-90600502D01*
X58307314Y-90600500D01*
X58400500Y-90507314D01*
X58400503Y-90507309D01*
X58466390Y-90393190D01*
X58466390Y-90393188D01*
X58466392Y-90393186D01*
X58500500Y-90265892D01*
X58500500Y-90134108D01*
X58466392Y-90006814D01*
X58466390Y-90006811D01*
X58466390Y-90006809D01*
X58400503Y-89892690D01*
X58400501Y-89892688D01*
X58400500Y-89892686D01*
X58307314Y-89799500D01*
X58307311Y-89799498D01*
X58307309Y-89799496D01*
X58193189Y-89733609D01*
X58193191Y-89733609D01*
X58143799Y-89720375D01*
X58065892Y-89699500D01*
X57934108Y-89699500D01*
X57856200Y-89720375D01*
X57806809Y-89733609D01*
X57692690Y-89799496D01*
X57599496Y-89892690D01*
X57533609Y-90006809D01*
X57524579Y-90040512D01*
X57499500Y-90134108D01*
X50350500Y-90134108D01*
X50350500Y-90127525D01*
X50312984Y-89987515D01*
X50312982Y-89987512D01*
X50312982Y-89987510D01*
X50240512Y-89861989D01*
X50240510Y-89861987D01*
X50240509Y-89861985D01*
X50138015Y-89759491D01*
X50138012Y-89759489D01*
X50138010Y-89759487D01*
X50012488Y-89687017D01*
X50012489Y-89687017D01*
X49933650Y-89665892D01*
X49872475Y-89649500D01*
X49727525Y-89649500D01*
X49680931Y-89661985D01*
X49587510Y-89687017D01*
X49461989Y-89759487D01*
X49359487Y-89861989D01*
X49287017Y-89987510D01*
X49249500Y-90127525D01*
X48898736Y-90127525D01*
X48866392Y-90006814D01*
X48866390Y-90006811D01*
X48866390Y-90006809D01*
X48800503Y-89892690D01*
X48800501Y-89892688D01*
X48800500Y-89892686D01*
X48707314Y-89799500D01*
X48707311Y-89799498D01*
X48707309Y-89799496D01*
X48593189Y-89733609D01*
X48593191Y-89733609D01*
X48543799Y-89720375D01*
X48465892Y-89699500D01*
X48334108Y-89699500D01*
X48256200Y-89720375D01*
X48206809Y-89733609D01*
X48092690Y-89799496D01*
X47999496Y-89892690D01*
X47933609Y-90006809D01*
X47924579Y-90040512D01*
X47899500Y-90134108D01*
X47500500Y-90134108D01*
X47466392Y-90006814D01*
X47466390Y-90006811D01*
X47466390Y-90006809D01*
X47400503Y-89892690D01*
X47400501Y-89892688D01*
X47400500Y-89892686D01*
X47307314Y-89799500D01*
X47307311Y-89799498D01*
X47307309Y-89799496D01*
X47193189Y-89733609D01*
X47193191Y-89733609D01*
X47143799Y-89720375D01*
X47065892Y-89699500D01*
X46934108Y-89699500D01*
X46856200Y-89720375D01*
X46806809Y-89733609D01*
X46692690Y-89799496D01*
X46599496Y-89892690D01*
X46533609Y-90006809D01*
X46524579Y-90040512D01*
X46499500Y-90134108D01*
X44500500Y-90134108D01*
X44466392Y-90006814D01*
X44466390Y-90006811D01*
X44466390Y-90006809D01*
X44400503Y-89892690D01*
X44400501Y-89892688D01*
X44400500Y-89892686D01*
X44307314Y-89799500D01*
X44307311Y-89799498D01*
X44307309Y-89799496D01*
X44193189Y-89733609D01*
X44193191Y-89733609D01*
X44143799Y-89720375D01*
X44065892Y-89699500D01*
X43934108Y-89699500D01*
X43856200Y-89720375D01*
X43806809Y-89733609D01*
X43692690Y-89799496D01*
X43599496Y-89892690D01*
X43533609Y-90006809D01*
X43524579Y-90040512D01*
X43499500Y-90134108D01*
X31232068Y-90134108D01*
X31231849Y-90132029D01*
X31230439Y-90130321D01*
X31228672Y-90101803D01*
X31225685Y-90073382D01*
X31226741Y-90070630D01*
X31226656Y-90069253D01*
X31228205Y-90066817D01*
X31236784Y-90044466D01*
X31266392Y-89993186D01*
X31300500Y-89865892D01*
X31300500Y-89734108D01*
X31266392Y-89606814D01*
X31224415Y-89534108D01*
X65899500Y-89534108D01*
X65899500Y-89665892D01*
X65924580Y-89759491D01*
X65933609Y-89793190D01*
X65999496Y-89907309D01*
X65999498Y-89907311D01*
X65999500Y-89907314D01*
X66092686Y-90000500D01*
X66092688Y-90000501D01*
X66092690Y-90000503D01*
X66206810Y-90066390D01*
X66206808Y-90066390D01*
X66206812Y-90066391D01*
X66206814Y-90066392D01*
X66334108Y-90100500D01*
X66334110Y-90100500D01*
X66465890Y-90100500D01*
X66465892Y-90100500D01*
X66593186Y-90066392D01*
X66593188Y-90066390D01*
X66593190Y-90066390D01*
X66707309Y-90000503D01*
X66707309Y-90000502D01*
X66707314Y-90000500D01*
X66800500Y-89907314D01*
X66808946Y-89892686D01*
X66866390Y-89793190D01*
X66866390Y-89793188D01*
X66866392Y-89793186D01*
X66900500Y-89665892D01*
X66900500Y-89534108D01*
X66866392Y-89406814D01*
X66866390Y-89406811D01*
X66866390Y-89406809D01*
X66800503Y-89292690D01*
X66800501Y-89292688D01*
X66800500Y-89292686D01*
X66707314Y-89199500D01*
X66707311Y-89199498D01*
X66707309Y-89199496D01*
X66593189Y-89133609D01*
X66593191Y-89133609D01*
X66543799Y-89120375D01*
X66465892Y-89099500D01*
X66334108Y-89099500D01*
X66256200Y-89120375D01*
X66206809Y-89133609D01*
X66092690Y-89199496D01*
X65999496Y-89292690D01*
X65933609Y-89406809D01*
X65933608Y-89406814D01*
X65899500Y-89534108D01*
X31224415Y-89534108D01*
X31200500Y-89492686D01*
X31107314Y-89399500D01*
X31107311Y-89399498D01*
X31107309Y-89399496D01*
X30993189Y-89333609D01*
X30993191Y-89333609D01*
X30943799Y-89320375D01*
X30865892Y-89299500D01*
X30734108Y-89299500D01*
X30656200Y-89320375D01*
X30606809Y-89333609D01*
X30492690Y-89399496D01*
X30399496Y-89492690D01*
X30335236Y-89603992D01*
X30289766Y-89644933D01*
X30228916Y-89651329D01*
X30175928Y-89620736D01*
X30151042Y-89564840D01*
X30150500Y-89554492D01*
X30150500Y-89527525D01*
X30139646Y-89487017D01*
X30112984Y-89387515D01*
X30112982Y-89387511D01*
X30112982Y-89387510D01*
X30040512Y-89261989D01*
X30040510Y-89261987D01*
X30040509Y-89261985D01*
X29938015Y-89159491D01*
X29938012Y-89159489D01*
X29938010Y-89159487D01*
X29812488Y-89087017D01*
X29812489Y-89087017D01*
X29775165Y-89077016D01*
X29672475Y-89049500D01*
X29527525Y-89049500D01*
X29465790Y-89066041D01*
X29387510Y-89087017D01*
X29261989Y-89159487D01*
X29159487Y-89261989D01*
X29087017Y-89387511D01*
X29087015Y-89387515D01*
X29060538Y-89486328D01*
X29027214Y-89537642D01*
X28970092Y-89559568D01*
X28915412Y-89546441D01*
X28812486Y-89487016D01*
X28742480Y-89468258D01*
X28672475Y-89449500D01*
X28527525Y-89449500D01*
X28465790Y-89466041D01*
X28387510Y-89487017D01*
X28261989Y-89559487D01*
X28159487Y-89661989D01*
X28087017Y-89787510D01*
X28066015Y-89865890D01*
X28049500Y-89927525D01*
X22640792Y-89927525D01*
X22660904Y-89892690D01*
X22673118Y-89871536D01*
X22712982Y-89802489D01*
X22712982Y-89802487D01*
X22712984Y-89802485D01*
X22750500Y-89662475D01*
X22750500Y-89517525D01*
X22712984Y-89377515D01*
X22712982Y-89377512D01*
X22712982Y-89377510D01*
X22640512Y-89251989D01*
X22640510Y-89251987D01*
X22640509Y-89251985D01*
X22538015Y-89149491D01*
X22538012Y-89149489D01*
X22538010Y-89149487D01*
X22412488Y-89077017D01*
X22412489Y-89077017D01*
X22382896Y-89069087D01*
X22272475Y-89039500D01*
X22127525Y-89039500D01*
X22090205Y-89049500D01*
X21987510Y-89077017D01*
X21861989Y-89149487D01*
X21759487Y-89251989D01*
X21687017Y-89377510D01*
X21679165Y-89406814D01*
X21649500Y-89517525D01*
X20500500Y-89517525D01*
X20500500Y-88334108D01*
X30099500Y-88334108D01*
X30099500Y-88465892D01*
X30110598Y-88507309D01*
X30133609Y-88593190D01*
X30199496Y-88707309D01*
X30199498Y-88707311D01*
X30199500Y-88707314D01*
X30292686Y-88800500D01*
X30292688Y-88800501D01*
X30292690Y-88800503D01*
X30406810Y-88866390D01*
X30406808Y-88866390D01*
X30406812Y-88866391D01*
X30406814Y-88866392D01*
X30534108Y-88900500D01*
X30534110Y-88900500D01*
X30665890Y-88900500D01*
X30665892Y-88900500D01*
X30793186Y-88866392D01*
X30793188Y-88866390D01*
X30793190Y-88866390D01*
X30907309Y-88800503D01*
X30907309Y-88800502D01*
X30907314Y-88800500D01*
X31000500Y-88707314D01*
X31004434Y-88700500D01*
X31066390Y-88593190D01*
X31066390Y-88593188D01*
X31066392Y-88593186D01*
X31100500Y-88465892D01*
X31100500Y-88334108D01*
X44299500Y-88334108D01*
X44299500Y-88465892D01*
X44310598Y-88507309D01*
X44333609Y-88593190D01*
X44399496Y-88707309D01*
X44399498Y-88707311D01*
X44399500Y-88707314D01*
X44492686Y-88800500D01*
X44492688Y-88800501D01*
X44492690Y-88800503D01*
X44606810Y-88866390D01*
X44606808Y-88866390D01*
X44606812Y-88866391D01*
X44606814Y-88866392D01*
X44734108Y-88900500D01*
X44734110Y-88900500D01*
X44865890Y-88900500D01*
X44865892Y-88900500D01*
X44993186Y-88866392D01*
X44993188Y-88866390D01*
X44993190Y-88866390D01*
X45107309Y-88800503D01*
X45107309Y-88800502D01*
X45107314Y-88800500D01*
X45200500Y-88707314D01*
X45204434Y-88700500D01*
X45266390Y-88593190D01*
X45266390Y-88593188D01*
X45266392Y-88593186D01*
X45300500Y-88465892D01*
X45300500Y-88334108D01*
X45266392Y-88206814D01*
X45224415Y-88134108D01*
X55499500Y-88134108D01*
X55499500Y-88265892D01*
X55517778Y-88334108D01*
X55533609Y-88393190D01*
X55599496Y-88507309D01*
X55599498Y-88507311D01*
X55599500Y-88507314D01*
X55692686Y-88600500D01*
X55692688Y-88600501D01*
X55692690Y-88600503D01*
X55806810Y-88666390D01*
X55806808Y-88666390D01*
X55806812Y-88666391D01*
X55806814Y-88666392D01*
X55934108Y-88700500D01*
X55934110Y-88700500D01*
X56065890Y-88700500D01*
X56065892Y-88700500D01*
X56193186Y-88666392D01*
X56193188Y-88666390D01*
X56193190Y-88666390D01*
X56307309Y-88600503D01*
X56307309Y-88600502D01*
X56307314Y-88600500D01*
X56400500Y-88507314D01*
X56466392Y-88393186D01*
X56500500Y-88265892D01*
X56500500Y-88134108D01*
X56466392Y-88006814D01*
X56466390Y-88006811D01*
X56466390Y-88006809D01*
X56400503Y-87892690D01*
X56400501Y-87892688D01*
X56400500Y-87892686D01*
X56307314Y-87799500D01*
X56307311Y-87799498D01*
X56307309Y-87799496D01*
X56193189Y-87733609D01*
X56193191Y-87733609D01*
X56143799Y-87720375D01*
X56065892Y-87699500D01*
X55934108Y-87699500D01*
X55856200Y-87720375D01*
X55806809Y-87733609D01*
X55692690Y-87799496D01*
X55599496Y-87892690D01*
X55533609Y-88006809D01*
X55533608Y-88006814D01*
X55499500Y-88134108D01*
X45224415Y-88134108D01*
X45200500Y-88092686D01*
X45107314Y-87999500D01*
X45107311Y-87999498D01*
X45107309Y-87999496D01*
X44993189Y-87933609D01*
X44993191Y-87933609D01*
X44943799Y-87920375D01*
X44865892Y-87899500D01*
X44734108Y-87899500D01*
X44656200Y-87920375D01*
X44606809Y-87933609D01*
X44492690Y-87999496D01*
X44399496Y-88092690D01*
X44333609Y-88206809D01*
X44333608Y-88206814D01*
X44299500Y-88334108D01*
X31100500Y-88334108D01*
X31066392Y-88206814D01*
X31066390Y-88206811D01*
X31066390Y-88206809D01*
X31000503Y-88092690D01*
X31000501Y-88092688D01*
X31000500Y-88092686D01*
X30907314Y-87999500D01*
X30907311Y-87999498D01*
X30907309Y-87999496D01*
X30793189Y-87933609D01*
X30793191Y-87933609D01*
X30743799Y-87920375D01*
X30665892Y-87899500D01*
X30534108Y-87899500D01*
X30456200Y-87920375D01*
X30406809Y-87933609D01*
X30292690Y-87999496D01*
X30199496Y-88092690D01*
X30133609Y-88206809D01*
X30133608Y-88206814D01*
X30099500Y-88334108D01*
X20500500Y-88334108D01*
X20500500Y-86927525D01*
X26449500Y-86927525D01*
X26449500Y-87072474D01*
X26487017Y-87212489D01*
X26559487Y-87338010D01*
X26559489Y-87338012D01*
X26559491Y-87338015D01*
X26661985Y-87440509D01*
X26661987Y-87440510D01*
X26661989Y-87440512D01*
X26787511Y-87512982D01*
X26787512Y-87512982D01*
X26787515Y-87512984D01*
X26927525Y-87550500D01*
X26927526Y-87550500D01*
X27072474Y-87550500D01*
X27072475Y-87550500D01*
X27212485Y-87512984D01*
X27212487Y-87512982D01*
X27212489Y-87512982D01*
X27338010Y-87440512D01*
X27338010Y-87440511D01*
X27338015Y-87440509D01*
X27440509Y-87338015D01*
X27512984Y-87212485D01*
X27550500Y-87072475D01*
X27550500Y-86934108D01*
X29299500Y-86934108D01*
X29299500Y-87065892D01*
X29301264Y-87072474D01*
X29333609Y-87193190D01*
X29399496Y-87307309D01*
X29399498Y-87307311D01*
X29399500Y-87307314D01*
X29492686Y-87400500D01*
X29492688Y-87400501D01*
X29492690Y-87400503D01*
X29606810Y-87466390D01*
X29606808Y-87466390D01*
X29606812Y-87466391D01*
X29606814Y-87466392D01*
X29734108Y-87500500D01*
X29734110Y-87500500D01*
X29865890Y-87500500D01*
X29865892Y-87500500D01*
X29993186Y-87466392D01*
X29993188Y-87466390D01*
X29993190Y-87466390D01*
X30107309Y-87400503D01*
X30107309Y-87400502D01*
X30107314Y-87400500D01*
X30200500Y-87307314D01*
X30200503Y-87307309D01*
X30266390Y-87193190D01*
X30266390Y-87193188D01*
X30266392Y-87193186D01*
X30300500Y-87065892D01*
X30300500Y-86934108D01*
X30266392Y-86806814D01*
X30266390Y-86806811D01*
X30266390Y-86806809D01*
X30200503Y-86692690D01*
X30200501Y-86692688D01*
X30200500Y-86692686D01*
X30107314Y-86599500D01*
X30107311Y-86599498D01*
X30107309Y-86599496D01*
X29993189Y-86533609D01*
X29993191Y-86533609D01*
X29943799Y-86520375D01*
X29865892Y-86499500D01*
X29734108Y-86499500D01*
X29656200Y-86520375D01*
X29606809Y-86533609D01*
X29492690Y-86599496D01*
X29399496Y-86692690D01*
X29333609Y-86806809D01*
X29333608Y-86806814D01*
X29299500Y-86934108D01*
X27550500Y-86934108D01*
X27550500Y-86927525D01*
X27512984Y-86787515D01*
X27512982Y-86787512D01*
X27512982Y-86787510D01*
X27440512Y-86661989D01*
X27440510Y-86661987D01*
X27440509Y-86661985D01*
X27338015Y-86559491D01*
X27338012Y-86559489D01*
X27338010Y-86559487D01*
X27212488Y-86487017D01*
X27212489Y-86487017D01*
X27135516Y-86466392D01*
X27072475Y-86449500D01*
X26927525Y-86449500D01*
X26865790Y-86466041D01*
X26787510Y-86487017D01*
X26661989Y-86559487D01*
X26559487Y-86661989D01*
X26487017Y-86787510D01*
X26449500Y-86927525D01*
X20500500Y-86927525D01*
X20500500Y-85734108D01*
X27499500Y-85734108D01*
X27499500Y-85865892D01*
X27502776Y-85878118D01*
X27533609Y-85993190D01*
X27599496Y-86107309D01*
X27599498Y-86107311D01*
X27599500Y-86107314D01*
X27692686Y-86200500D01*
X27692688Y-86200501D01*
X27692690Y-86200503D01*
X27806810Y-86266390D01*
X27806808Y-86266390D01*
X27806812Y-86266391D01*
X27806814Y-86266392D01*
X27934108Y-86300500D01*
X27934110Y-86300500D01*
X28065890Y-86300500D01*
X28065892Y-86300500D01*
X28193186Y-86266392D01*
X28193188Y-86266390D01*
X28193190Y-86266390D01*
X28307309Y-86200503D01*
X28307309Y-86200502D01*
X28307314Y-86200500D01*
X28400500Y-86107314D01*
X28456153Y-86010919D01*
X28501622Y-85969979D01*
X28562472Y-85963583D01*
X28611890Y-85990414D01*
X28661985Y-86040509D01*
X28661987Y-86040510D01*
X28661989Y-86040512D01*
X28787511Y-86112982D01*
X28787512Y-86112982D01*
X28787515Y-86112984D01*
X28927525Y-86150500D01*
X28927526Y-86150500D01*
X29072474Y-86150500D01*
X29072475Y-86150500D01*
X29212485Y-86112984D01*
X29212487Y-86112982D01*
X29212489Y-86112982D01*
X29338010Y-86040512D01*
X29338010Y-86040511D01*
X29338015Y-86040509D01*
X29440509Y-85938015D01*
X29475091Y-85878118D01*
X29512982Y-85812489D01*
X29512982Y-85812487D01*
X29512984Y-85812485D01*
X29550500Y-85672475D01*
X29550500Y-85534108D01*
X52899500Y-85534108D01*
X52899500Y-85665892D01*
X52917778Y-85734108D01*
X52933609Y-85793190D01*
X52999496Y-85907309D01*
X52999498Y-85907311D01*
X52999500Y-85907314D01*
X53092686Y-86000500D01*
X53092688Y-86000501D01*
X53092690Y-86000503D01*
X53206810Y-86066390D01*
X53206808Y-86066390D01*
X53206812Y-86066391D01*
X53206814Y-86066392D01*
X53334108Y-86100500D01*
X53334110Y-86100500D01*
X53465890Y-86100500D01*
X53465892Y-86100500D01*
X53593186Y-86066392D01*
X53593188Y-86066390D01*
X53593190Y-86066390D01*
X53707309Y-86000503D01*
X53707309Y-86000502D01*
X53707314Y-86000500D01*
X53773706Y-85934108D01*
X63499500Y-85934108D01*
X63499500Y-86065892D01*
X63529579Y-86178151D01*
X63533609Y-86193190D01*
X63599496Y-86307309D01*
X63599498Y-86307311D01*
X63599500Y-86307314D01*
X63692686Y-86400500D01*
X63692688Y-86400501D01*
X63692690Y-86400503D01*
X63806810Y-86466390D01*
X63806808Y-86466390D01*
X63806812Y-86466391D01*
X63806814Y-86466392D01*
X63934108Y-86500500D01*
X63934110Y-86500500D01*
X64065890Y-86500500D01*
X64065892Y-86500500D01*
X64193186Y-86466392D01*
X64193188Y-86466390D01*
X64193190Y-86466390D01*
X64307309Y-86400503D01*
X64307309Y-86400502D01*
X64307314Y-86400500D01*
X64400500Y-86307314D01*
X64404434Y-86300500D01*
X64466390Y-86193190D01*
X64466390Y-86193188D01*
X64466392Y-86193186D01*
X64500500Y-86065892D01*
X64500500Y-85934108D01*
X64466392Y-85806814D01*
X64466390Y-85806811D01*
X64466390Y-85806809D01*
X64400503Y-85692690D01*
X64400501Y-85692688D01*
X64400500Y-85692686D01*
X64307314Y-85599500D01*
X64307311Y-85599498D01*
X64307309Y-85599496D01*
X64193189Y-85533609D01*
X64193191Y-85533609D01*
X64108818Y-85511002D01*
X64065892Y-85499500D01*
X63934108Y-85499500D01*
X63891182Y-85511002D01*
X63806809Y-85533609D01*
X63692690Y-85599496D01*
X63599496Y-85692690D01*
X63533609Y-85806809D01*
X63533608Y-85806814D01*
X63499500Y-85934108D01*
X53773706Y-85934108D01*
X53800500Y-85907314D01*
X53809504Y-85891717D01*
X53817357Y-85878118D01*
X53858524Y-85806814D01*
X53866392Y-85793186D01*
X53900500Y-85665892D01*
X53900500Y-85534108D01*
X53866392Y-85406814D01*
X53866390Y-85406811D01*
X53866390Y-85406809D01*
X53800503Y-85292690D01*
X53800501Y-85292688D01*
X53800500Y-85292686D01*
X53707314Y-85199500D01*
X53707311Y-85199498D01*
X53707309Y-85199496D01*
X53593189Y-85133609D01*
X53593191Y-85133609D01*
X53543799Y-85120375D01*
X53465892Y-85099500D01*
X53334108Y-85099500D01*
X53256200Y-85120375D01*
X53206809Y-85133609D01*
X53092690Y-85199496D01*
X52999496Y-85292690D01*
X52933609Y-85406809D01*
X52933608Y-85406814D01*
X52899500Y-85534108D01*
X29550500Y-85534108D01*
X29550500Y-85527525D01*
X29546073Y-85511002D01*
X29549274Y-85449900D01*
X29587779Y-85402350D01*
X29646880Y-85386514D01*
X29691199Y-85399642D01*
X29806810Y-85466390D01*
X29806808Y-85466390D01*
X29806812Y-85466391D01*
X29806814Y-85466392D01*
X29934108Y-85500500D01*
X29934110Y-85500500D01*
X30065890Y-85500500D01*
X30065892Y-85500500D01*
X30193186Y-85466392D01*
X30193188Y-85466390D01*
X30193190Y-85466390D01*
X30235638Y-85441883D01*
X30307309Y-85400503D01*
X30307309Y-85400502D01*
X30307314Y-85400500D01*
X30400500Y-85307314D01*
X30400503Y-85307309D01*
X30466390Y-85193190D01*
X30466390Y-85193188D01*
X30466392Y-85193186D01*
X30500500Y-85065892D01*
X30500500Y-84934108D01*
X30466392Y-84806814D01*
X30466390Y-84806811D01*
X30466390Y-84806809D01*
X30400503Y-84692690D01*
X30400501Y-84692688D01*
X30400500Y-84692686D01*
X30307314Y-84599500D01*
X30307311Y-84599498D01*
X30307309Y-84599496D01*
X30194053Y-84534108D01*
X62099500Y-84534108D01*
X62099500Y-84665892D01*
X62118825Y-84738015D01*
X62133609Y-84793190D01*
X62199496Y-84907309D01*
X62199498Y-84907311D01*
X62199500Y-84907314D01*
X62292686Y-85000500D01*
X62292688Y-85000501D01*
X62292690Y-85000503D01*
X62406810Y-85066390D01*
X62406808Y-85066390D01*
X62406812Y-85066391D01*
X62406814Y-85066392D01*
X62534108Y-85100500D01*
X62534110Y-85100500D01*
X62665890Y-85100500D01*
X62665892Y-85100500D01*
X62793186Y-85066392D01*
X62793188Y-85066390D01*
X62793190Y-85066390D01*
X62907309Y-85000503D01*
X62907309Y-85000502D01*
X62907314Y-85000500D01*
X63000500Y-84907314D01*
X63011537Y-84888198D01*
X63066390Y-84793190D01*
X63066390Y-84793188D01*
X63066392Y-84793186D01*
X63100500Y-84665892D01*
X63100500Y-84534108D01*
X63066392Y-84406814D01*
X63066390Y-84406811D01*
X63066390Y-84406809D01*
X63000503Y-84292690D01*
X63000501Y-84292688D01*
X63000500Y-84292686D01*
X62907314Y-84199500D01*
X62907311Y-84199498D01*
X62907309Y-84199496D01*
X62793189Y-84133609D01*
X62793191Y-84133609D01*
X62737888Y-84118791D01*
X62665892Y-84099500D01*
X62534108Y-84099500D01*
X62462112Y-84118791D01*
X62406809Y-84133609D01*
X62292690Y-84199496D01*
X62199496Y-84292690D01*
X62133609Y-84406809D01*
X62117778Y-84465892D01*
X62099500Y-84534108D01*
X30194053Y-84534108D01*
X30193189Y-84533609D01*
X30193191Y-84533609D01*
X30111800Y-84511801D01*
X30065892Y-84499500D01*
X29999500Y-84499500D01*
X29941309Y-84480593D01*
X29905345Y-84431093D01*
X29900500Y-84400500D01*
X29900500Y-84334109D01*
X29874118Y-84235649D01*
X29866392Y-84206814D01*
X29866390Y-84206811D01*
X29866390Y-84206809D01*
X29800503Y-84092690D01*
X29800501Y-84092688D01*
X29800500Y-84092686D01*
X29707314Y-83999500D01*
X29707311Y-83999498D01*
X29707309Y-83999496D01*
X29593189Y-83933609D01*
X29593191Y-83933609D01*
X29516215Y-83912984D01*
X29465892Y-83899500D01*
X29334108Y-83899500D01*
X29283785Y-83912984D01*
X29206809Y-83933609D01*
X29092690Y-83999496D01*
X29092685Y-83999500D01*
X29001171Y-84091014D01*
X28946655Y-84118791D01*
X28886222Y-84109219D01*
X28845432Y-84070512D01*
X28840511Y-84061989D01*
X28840509Y-84061985D01*
X28738015Y-83959491D01*
X28738012Y-83959489D01*
X28738010Y-83959487D01*
X28612488Y-83887017D01*
X28612489Y-83887017D01*
X28582896Y-83879087D01*
X28472475Y-83849500D01*
X28327525Y-83849500D01*
X28265790Y-83866041D01*
X28187510Y-83887017D01*
X28061989Y-83959487D01*
X27959487Y-84061989D01*
X27887017Y-84187510D01*
X27874118Y-84235649D01*
X27849500Y-84327525D01*
X27849500Y-84472475D01*
X27865881Y-84533608D01*
X27887017Y-84612489D01*
X27959487Y-84738010D01*
X27959489Y-84738012D01*
X27959491Y-84738015D01*
X28061985Y-84840509D01*
X28061987Y-84840510D01*
X28061989Y-84840512D01*
X28187511Y-84912982D01*
X28187512Y-84912982D01*
X28187515Y-84912984D01*
X28327525Y-84950500D01*
X28327526Y-84950500D01*
X28472474Y-84950500D01*
X28472475Y-84950500D01*
X28612485Y-84912984D01*
X28612487Y-84912982D01*
X28612489Y-84912982D01*
X28738010Y-84840512D01*
X28738010Y-84840511D01*
X28738015Y-84840509D01*
X28840509Y-84738015D01*
X28845431Y-84729490D01*
X28890900Y-84688548D01*
X28951750Y-84682152D01*
X29001169Y-84708983D01*
X29092686Y-84800500D01*
X29092688Y-84800501D01*
X29092690Y-84800503D01*
X29206810Y-84866390D01*
X29206808Y-84866390D01*
X29206812Y-84866391D01*
X29206814Y-84866392D01*
X29334108Y-84900500D01*
X29334110Y-84900500D01*
X29400500Y-84900500D01*
X29458691Y-84919407D01*
X29494655Y-84968907D01*
X29499500Y-84999500D01*
X29499500Y-85065891D01*
X29500157Y-85070881D01*
X29489007Y-85131042D01*
X29444626Y-85173159D01*
X29383964Y-85181146D01*
X29341739Y-85162348D01*
X29338013Y-85159489D01*
X29212488Y-85087017D01*
X29212489Y-85087017D01*
X29135516Y-85066392D01*
X29072475Y-85049500D01*
X28927525Y-85049500D01*
X28866357Y-85065890D01*
X28787510Y-85087017D01*
X28661989Y-85159487D01*
X28559487Y-85261989D01*
X28483771Y-85393134D01*
X28482337Y-85392306D01*
X28447818Y-85432708D01*
X28388320Y-85446979D01*
X28331797Y-85423553D01*
X28326116Y-85418302D01*
X28307314Y-85399500D01*
X28307311Y-85399498D01*
X28307309Y-85399496D01*
X28193189Y-85333609D01*
X28193191Y-85333609D01*
X28143799Y-85320375D01*
X28065892Y-85299500D01*
X27934108Y-85299500D01*
X27856200Y-85320375D01*
X27806809Y-85333609D01*
X27692690Y-85399496D01*
X27599496Y-85492690D01*
X27533609Y-85606809D01*
X27533608Y-85606814D01*
X27499500Y-85734108D01*
X20500500Y-85734108D01*
X20500500Y-83127525D01*
X22449500Y-83127525D01*
X22449500Y-83272475D01*
X22464251Y-83327525D01*
X22487017Y-83412489D01*
X22559487Y-83538010D01*
X22559489Y-83538012D01*
X22559491Y-83538015D01*
X22661985Y-83640509D01*
X22661987Y-83640510D01*
X22661989Y-83640512D01*
X22787511Y-83712982D01*
X22787512Y-83712982D01*
X22787515Y-83712984D01*
X22927525Y-83750500D01*
X22927526Y-83750500D01*
X23072474Y-83750500D01*
X23072475Y-83750500D01*
X23212485Y-83712984D01*
X23212487Y-83712982D01*
X23212489Y-83712982D01*
X23338010Y-83640512D01*
X23338010Y-83640511D01*
X23338015Y-83640509D01*
X23440509Y-83538015D01*
X23512984Y-83412485D01*
X23535749Y-83327525D01*
X29649500Y-83327525D01*
X29649500Y-83472474D01*
X29687017Y-83612489D01*
X29759487Y-83738010D01*
X29759489Y-83738012D01*
X29759491Y-83738015D01*
X29861985Y-83840509D01*
X29861987Y-83840510D01*
X29861989Y-83840512D01*
X29987511Y-83912982D01*
X29987512Y-83912982D01*
X29987515Y-83912984D01*
X30127525Y-83950500D01*
X30127526Y-83950500D01*
X30272474Y-83950500D01*
X30272475Y-83950500D01*
X30412485Y-83912984D01*
X30412487Y-83912982D01*
X30412489Y-83912982D01*
X30538010Y-83840512D01*
X30538010Y-83840511D01*
X30538015Y-83840509D01*
X30640509Y-83738015D01*
X30696803Y-83640512D01*
X30712982Y-83612489D01*
X30712982Y-83612487D01*
X30712984Y-83612485D01*
X30750500Y-83472475D01*
X30750500Y-83327525D01*
X30712984Y-83187515D01*
X30712982Y-83187512D01*
X30712982Y-83187510D01*
X30640512Y-83061989D01*
X30640510Y-83061987D01*
X30640509Y-83061985D01*
X30538015Y-82959491D01*
X30538012Y-82959489D01*
X30538010Y-82959487D01*
X30412488Y-82887017D01*
X30412489Y-82887017D01*
X30333650Y-82865892D01*
X30272475Y-82849500D01*
X30127525Y-82849500D01*
X30080931Y-82861985D01*
X29987510Y-82887017D01*
X29861989Y-82959487D01*
X29759487Y-83061989D01*
X29687017Y-83187510D01*
X29649500Y-83327525D01*
X23535749Y-83327525D01*
X23550500Y-83272475D01*
X23550500Y-83127525D01*
X23512984Y-82987515D01*
X23512982Y-82987512D01*
X23512982Y-82987510D01*
X23440512Y-82861989D01*
X23440510Y-82861987D01*
X23440509Y-82861985D01*
X23338015Y-82759491D01*
X23338012Y-82759489D01*
X23338010Y-82759487D01*
X23212488Y-82687017D01*
X23212489Y-82687017D01*
X23182896Y-82679087D01*
X23072475Y-82649500D01*
X22927525Y-82649500D01*
X22865790Y-82666041D01*
X22787510Y-82687017D01*
X22661989Y-82759487D01*
X22559487Y-82861989D01*
X22487017Y-82987510D01*
X22454917Y-83107309D01*
X22449500Y-83127525D01*
X20500500Y-83127525D01*
X20500500Y-82434108D01*
X28499500Y-82434108D01*
X28499500Y-82565892D01*
X28529579Y-82678151D01*
X28533609Y-82693190D01*
X28599496Y-82807309D01*
X28599498Y-82807311D01*
X28599500Y-82807314D01*
X28692686Y-82900500D01*
X28692688Y-82900501D01*
X28692690Y-82900503D01*
X28806810Y-82966390D01*
X28806808Y-82966390D01*
X28806812Y-82966391D01*
X28806814Y-82966392D01*
X28934108Y-83000500D01*
X28934110Y-83000500D01*
X29065890Y-83000500D01*
X29065892Y-83000500D01*
X29193186Y-82966392D01*
X29193188Y-82966390D01*
X29193190Y-82966390D01*
X29307309Y-82900503D01*
X29307309Y-82900502D01*
X29307314Y-82900500D01*
X29400500Y-82807314D01*
X29446566Y-82727525D01*
X58649500Y-82727525D01*
X58649500Y-82872475D01*
X58657010Y-82900503D01*
X58687017Y-83012489D01*
X58759487Y-83138010D01*
X58759489Y-83138012D01*
X58759491Y-83138015D01*
X58861985Y-83240509D01*
X58861987Y-83240510D01*
X58861989Y-83240512D01*
X58987511Y-83312982D01*
X58987512Y-83312982D01*
X58987515Y-83312984D01*
X59127525Y-83350500D01*
X59127526Y-83350500D01*
X59272474Y-83350500D01*
X59272475Y-83350500D01*
X59412485Y-83312984D01*
X59412487Y-83312982D01*
X59412489Y-83312982D01*
X59538010Y-83240512D01*
X59538010Y-83240511D01*
X59538015Y-83240509D01*
X59640509Y-83138015D01*
X59640512Y-83138010D01*
X59712982Y-83012489D01*
X59712982Y-83012487D01*
X59712984Y-83012485D01*
X59750500Y-82872475D01*
X59750500Y-82734108D01*
X62299500Y-82734108D01*
X62299500Y-82865892D01*
X62324580Y-82959491D01*
X62333609Y-82993190D01*
X62399496Y-83107309D01*
X62399498Y-83107311D01*
X62399500Y-83107314D01*
X62492686Y-83200500D01*
X62492688Y-83200501D01*
X62492690Y-83200503D01*
X62606810Y-83266390D01*
X62606808Y-83266390D01*
X62606812Y-83266391D01*
X62606814Y-83266392D01*
X62734108Y-83300500D01*
X62734110Y-83300500D01*
X62865890Y-83300500D01*
X62865892Y-83300500D01*
X62993186Y-83266392D01*
X62993188Y-83266390D01*
X62993190Y-83266390D01*
X63107309Y-83200503D01*
X63107309Y-83200502D01*
X63107314Y-83200500D01*
X63200500Y-83107314D01*
X63200503Y-83107309D01*
X63266390Y-82993190D01*
X63266390Y-82993188D01*
X63266392Y-82993186D01*
X63300500Y-82865892D01*
X63300500Y-82734108D01*
X63266392Y-82606814D01*
X63266390Y-82606811D01*
X63266390Y-82606809D01*
X63200503Y-82492690D01*
X63200501Y-82492688D01*
X63200500Y-82492686D01*
X63107314Y-82399500D01*
X63107311Y-82399498D01*
X63107309Y-82399496D01*
X62993189Y-82333609D01*
X62993191Y-82333609D01*
X62916215Y-82312984D01*
X62865892Y-82299500D01*
X62734108Y-82299500D01*
X62683785Y-82312984D01*
X62606809Y-82333609D01*
X62492690Y-82399496D01*
X62399496Y-82492690D01*
X62333609Y-82606809D01*
X62333608Y-82606814D01*
X62299500Y-82734108D01*
X59750500Y-82734108D01*
X59750500Y-82727525D01*
X59712984Y-82587515D01*
X59712982Y-82587512D01*
X59712982Y-82587510D01*
X59640512Y-82461989D01*
X59640510Y-82461987D01*
X59640509Y-82461985D01*
X59538015Y-82359491D01*
X59538012Y-82359489D01*
X59538010Y-82359487D01*
X59412488Y-82287017D01*
X59412489Y-82287017D01*
X59382896Y-82279087D01*
X59272475Y-82249500D01*
X59127525Y-82249500D01*
X59065790Y-82266041D01*
X58987510Y-82287017D01*
X58861989Y-82359487D01*
X58759487Y-82461989D01*
X58687017Y-82587510D01*
X58670407Y-82649500D01*
X58649500Y-82727525D01*
X29446566Y-82727525D01*
X29466392Y-82693186D01*
X29500500Y-82565892D01*
X29500500Y-82434108D01*
X29466392Y-82306814D01*
X29466390Y-82306810D01*
X29466156Y-82305937D01*
X29469358Y-82244836D01*
X29507864Y-82197286D01*
X29566964Y-82181450D01*
X29624086Y-82203376D01*
X29631776Y-82210300D01*
X29661985Y-82240509D01*
X29661987Y-82240510D01*
X29661989Y-82240512D01*
X29787511Y-82312982D01*
X29787512Y-82312982D01*
X29787515Y-82312984D01*
X29927525Y-82350500D01*
X29927526Y-82350500D01*
X30072474Y-82350500D01*
X30072475Y-82350500D01*
X30212485Y-82312984D01*
X30212487Y-82312982D01*
X30212489Y-82312982D01*
X30338010Y-82240512D01*
X30338010Y-82240511D01*
X30338015Y-82240509D01*
X30440509Y-82138015D01*
X30440512Y-82138010D01*
X30512982Y-82012489D01*
X30512982Y-82012487D01*
X30512984Y-82012485D01*
X30550500Y-81872475D01*
X30550500Y-81727525D01*
X30512984Y-81587515D01*
X30512982Y-81587512D01*
X30512982Y-81587510D01*
X30440512Y-81461989D01*
X30440510Y-81461987D01*
X30440509Y-81461985D01*
X30338015Y-81359491D01*
X30338012Y-81359489D01*
X30338010Y-81359487D01*
X30212488Y-81287017D01*
X30212489Y-81287017D01*
X30182896Y-81279087D01*
X30072475Y-81249500D01*
X29927525Y-81249500D01*
X29865790Y-81266041D01*
X29787510Y-81287017D01*
X29661989Y-81359487D01*
X29559487Y-81461989D01*
X29487017Y-81587510D01*
X29449500Y-81727525D01*
X29449500Y-81872474D01*
X29488696Y-82018753D01*
X29486056Y-82019460D01*
X29489945Y-82068994D01*
X29457965Y-82121157D01*
X29401433Y-82144560D01*
X29341941Y-82130265D01*
X29323685Y-82115871D01*
X29307314Y-82099500D01*
X29307311Y-82099498D01*
X29307309Y-82099496D01*
X29193189Y-82033609D01*
X29193191Y-82033609D01*
X29137746Y-82018753D01*
X29065892Y-81999500D01*
X28934108Y-81999500D01*
X28862254Y-82018753D01*
X28806809Y-82033609D01*
X28692690Y-82099496D01*
X28599496Y-82192690D01*
X28533609Y-82306809D01*
X28526428Y-82333609D01*
X28499500Y-82434108D01*
X20500500Y-82434108D01*
X20500500Y-79599000D01*
X20519407Y-79540809D01*
X20568907Y-79504845D01*
X20599500Y-79500000D01*
X26683034Y-79500000D01*
X26741225Y-79518907D01*
X26777189Y-79568407D01*
X26777189Y-79629593D01*
X26761576Y-79659267D01*
X26759489Y-79661985D01*
X26687017Y-79787510D01*
X26683536Y-79800503D01*
X26649500Y-79927525D01*
X26649500Y-80072475D01*
X26666015Y-80134108D01*
X26687017Y-80212489D01*
X26759487Y-80338010D01*
X26759489Y-80338012D01*
X26759491Y-80338015D01*
X26861985Y-80440509D01*
X26861987Y-80440510D01*
X26861989Y-80440512D01*
X26987511Y-80512982D01*
X26987512Y-80512982D01*
X26987515Y-80512984D01*
X27127525Y-80550500D01*
X27127526Y-80550500D01*
X27272474Y-80550500D01*
X27272475Y-80550500D01*
X27412485Y-80512984D01*
X27515412Y-80453558D01*
X27575260Y-80440837D01*
X27631155Y-80465723D01*
X27660538Y-80513669D01*
X27687016Y-80612485D01*
X27687017Y-80612487D01*
X27687018Y-80612490D01*
X27759487Y-80738010D01*
X27759489Y-80738012D01*
X27759491Y-80738015D01*
X27861985Y-80840509D01*
X27861987Y-80840510D01*
X27861989Y-80840512D01*
X27987511Y-80912982D01*
X27987512Y-80912982D01*
X27987515Y-80912984D01*
X28127525Y-80950500D01*
X28127526Y-80950500D01*
X28272474Y-80950500D01*
X28272475Y-80950500D01*
X28333650Y-80934108D01*
X61099500Y-80934108D01*
X61099500Y-81065892D01*
X61129579Y-81178151D01*
X61133609Y-81193190D01*
X61199496Y-81307309D01*
X61199498Y-81307311D01*
X61199500Y-81307314D01*
X61292686Y-81400500D01*
X61292688Y-81400501D01*
X61292690Y-81400503D01*
X61406810Y-81466390D01*
X61406808Y-81466390D01*
X61406812Y-81466391D01*
X61406814Y-81466392D01*
X61534108Y-81500500D01*
X61534110Y-81500500D01*
X61665890Y-81500500D01*
X61665892Y-81500500D01*
X61793186Y-81466392D01*
X61793188Y-81466390D01*
X61793190Y-81466390D01*
X61907309Y-81400503D01*
X61907309Y-81400502D01*
X61907314Y-81400500D01*
X62000500Y-81307314D01*
X62066392Y-81193186D01*
X62100500Y-81065892D01*
X62100500Y-80934108D01*
X62066392Y-80806814D01*
X62066390Y-80806811D01*
X62066390Y-80806809D01*
X62000503Y-80692690D01*
X62000501Y-80692688D01*
X62000500Y-80692686D01*
X61907314Y-80599500D01*
X61907311Y-80599498D01*
X61907309Y-80599496D01*
X61793189Y-80533609D01*
X61793191Y-80533609D01*
X61716215Y-80512984D01*
X61665892Y-80499500D01*
X61534108Y-80499500D01*
X61483785Y-80512984D01*
X61406809Y-80533609D01*
X61292690Y-80599496D01*
X61199496Y-80692690D01*
X61133609Y-80806809D01*
X61124579Y-80840512D01*
X61099500Y-80934108D01*
X28333650Y-80934108D01*
X28412485Y-80912984D01*
X28412487Y-80912982D01*
X28412489Y-80912982D01*
X28475630Y-80876526D01*
X28538015Y-80840509D01*
X28640509Y-80738015D01*
X28640512Y-80738010D01*
X28712982Y-80612489D01*
X28712982Y-80612487D01*
X28712984Y-80612485D01*
X28750500Y-80472475D01*
X28750500Y-80327525D01*
X28712984Y-80187515D01*
X28712982Y-80187511D01*
X28706982Y-80177118D01*
X28706981Y-80177116D01*
X28682150Y-80134108D01*
X68299500Y-80134108D01*
X68299500Y-80265892D01*
X68318824Y-80338010D01*
X68333609Y-80393190D01*
X68399496Y-80507309D01*
X68399498Y-80507311D01*
X68399500Y-80507314D01*
X68492686Y-80600500D01*
X68492688Y-80600501D01*
X68492690Y-80600503D01*
X68606810Y-80666390D01*
X68606808Y-80666390D01*
X68606812Y-80666391D01*
X68606814Y-80666392D01*
X68734108Y-80700500D01*
X68734110Y-80700500D01*
X68865890Y-80700500D01*
X68865892Y-80700500D01*
X68993186Y-80666392D01*
X68993188Y-80666390D01*
X68993190Y-80666390D01*
X69107309Y-80600503D01*
X69107309Y-80600502D01*
X69107314Y-80600500D01*
X69200500Y-80507314D01*
X69200503Y-80507309D01*
X69266390Y-80393190D01*
X69266390Y-80393188D01*
X69266392Y-80393186D01*
X69300500Y-80265892D01*
X69300500Y-80134108D01*
X69266392Y-80006814D01*
X69266390Y-80006811D01*
X69266390Y-80006809D01*
X69200503Y-79892690D01*
X69200501Y-79892688D01*
X69200500Y-79892686D01*
X69107314Y-79799500D01*
X69107311Y-79799498D01*
X69107309Y-79799496D01*
X68993189Y-79733609D01*
X68993191Y-79733609D01*
X68916215Y-79712984D01*
X68865892Y-79699500D01*
X68734108Y-79699500D01*
X68683785Y-79712984D01*
X68606809Y-79733609D01*
X68492690Y-79799496D01*
X68399496Y-79892690D01*
X68333609Y-80006809D01*
X68333608Y-80006814D01*
X68299500Y-80134108D01*
X28682150Y-80134108D01*
X28640512Y-80061989D01*
X28640510Y-80061987D01*
X28640509Y-80061985D01*
X28538015Y-79959491D01*
X28538012Y-79959489D01*
X28538010Y-79959487D01*
X28412488Y-79887017D01*
X28412489Y-79887017D01*
X28335516Y-79866392D01*
X28272475Y-79849500D01*
X28127525Y-79849500D01*
X28080855Y-79862005D01*
X27987513Y-79887016D01*
X27884587Y-79946441D01*
X27824738Y-79959162D01*
X27768843Y-79934275D01*
X27739461Y-79886329D01*
X27712984Y-79787515D01*
X27712982Y-79787512D01*
X27712982Y-79787510D01*
X27640510Y-79661985D01*
X27638424Y-79659267D01*
X27637604Y-79656953D01*
X27637265Y-79656365D01*
X27637374Y-79656302D01*
X27618000Y-79601591D01*
X27635378Y-79542926D01*
X27683919Y-79505678D01*
X27716966Y-79500000D01*
X28299999Y-79500000D01*
X28300000Y-79500000D01*
X28300000Y-79334108D01*
X28499500Y-79334108D01*
X28499500Y-79465892D01*
X28510161Y-79505678D01*
X28533609Y-79593190D01*
X28599496Y-79707309D01*
X28599498Y-79707311D01*
X28599500Y-79707314D01*
X28692686Y-79800500D01*
X28692688Y-79800501D01*
X28692690Y-79800503D01*
X28806810Y-79866390D01*
X28806808Y-79866390D01*
X28806812Y-79866391D01*
X28806814Y-79866392D01*
X28934108Y-79900500D01*
X28934110Y-79900500D01*
X29065890Y-79900500D01*
X29065892Y-79900500D01*
X29193186Y-79866392D01*
X29193188Y-79866390D01*
X29193190Y-79866390D01*
X29307309Y-79800503D01*
X29307309Y-79800502D01*
X29307314Y-79800500D01*
X29400500Y-79707314D01*
X29400503Y-79707309D01*
X29466390Y-79593190D01*
X29466390Y-79593188D01*
X29466392Y-79593186D01*
X29500500Y-79465892D01*
X29500500Y-79334108D01*
X29466392Y-79206814D01*
X29445447Y-79170536D01*
X29445446Y-79170533D01*
X29420615Y-79127525D01*
X61249500Y-79127525D01*
X61249500Y-79272474D01*
X61287017Y-79412489D01*
X61359487Y-79538010D01*
X61359489Y-79538012D01*
X61359491Y-79538015D01*
X61461985Y-79640509D01*
X61461987Y-79640510D01*
X61461989Y-79640512D01*
X61587511Y-79712982D01*
X61587512Y-79712982D01*
X61587515Y-79712984D01*
X61727525Y-79750500D01*
X61727526Y-79750500D01*
X61872474Y-79750500D01*
X61872475Y-79750500D01*
X62012485Y-79712984D01*
X62012487Y-79712982D01*
X62012489Y-79712982D01*
X62138010Y-79640512D01*
X62138010Y-79640511D01*
X62138015Y-79640509D01*
X62240509Y-79538015D01*
X62262458Y-79499999D01*
X62312982Y-79412489D01*
X62312982Y-79412487D01*
X62312984Y-79412485D01*
X62350500Y-79272475D01*
X62350500Y-79127525D01*
X62312984Y-78987515D01*
X62312982Y-78987512D01*
X62312982Y-78987510D01*
X62240512Y-78861989D01*
X62240510Y-78861987D01*
X62240509Y-78861985D01*
X62138015Y-78759491D01*
X62138012Y-78759489D01*
X62138010Y-78759487D01*
X62012488Y-78687017D01*
X62012489Y-78687017D01*
X61933650Y-78665892D01*
X61872475Y-78649500D01*
X61727525Y-78649500D01*
X61666357Y-78665890D01*
X61587510Y-78687017D01*
X61461989Y-78759487D01*
X61359487Y-78861989D01*
X61287017Y-78987510D01*
X61249500Y-79127525D01*
X29420615Y-79127525D01*
X29400503Y-79092690D01*
X29400501Y-79092688D01*
X29400500Y-79092686D01*
X29307314Y-78999500D01*
X29307311Y-78999498D01*
X29307309Y-78999496D01*
X29193189Y-78933609D01*
X29193191Y-78933609D01*
X29116215Y-78912984D01*
X29065892Y-78899500D01*
X28934108Y-78899500D01*
X28883785Y-78912984D01*
X28806809Y-78933609D01*
X28692690Y-78999496D01*
X28599496Y-79092690D01*
X28533609Y-79206809D01*
X28533608Y-79206814D01*
X28499500Y-79334108D01*
X28300000Y-79334108D01*
X28300000Y-78327525D01*
X30049500Y-78327525D01*
X30049500Y-78472474D01*
X30087017Y-78612489D01*
X30159487Y-78738010D01*
X30159489Y-78738012D01*
X30159491Y-78738015D01*
X30261985Y-78840509D01*
X30261987Y-78840510D01*
X30261989Y-78840512D01*
X30387511Y-78912982D01*
X30387512Y-78912982D01*
X30387515Y-78912984D01*
X30527525Y-78950500D01*
X30527526Y-78950500D01*
X30672474Y-78950500D01*
X30672475Y-78950500D01*
X30812485Y-78912984D01*
X30812487Y-78912982D01*
X30812489Y-78912982D01*
X30938010Y-78840512D01*
X30938010Y-78840511D01*
X30938015Y-78840509D01*
X31040509Y-78738015D01*
X31069953Y-78687017D01*
X31112982Y-78612489D01*
X31112982Y-78612487D01*
X31112984Y-78612485D01*
X31133985Y-78534108D01*
X65899500Y-78534108D01*
X65899500Y-78665892D01*
X65924580Y-78759491D01*
X65933609Y-78793190D01*
X65999496Y-78907309D01*
X65999498Y-78907311D01*
X65999500Y-78907314D01*
X66092686Y-79000500D01*
X66092688Y-79000501D01*
X66092690Y-79000503D01*
X66206810Y-79066390D01*
X66206808Y-79066390D01*
X66206812Y-79066391D01*
X66206814Y-79066392D01*
X66334108Y-79100500D01*
X66334110Y-79100500D01*
X66465890Y-79100500D01*
X66465892Y-79100500D01*
X66593186Y-79066392D01*
X66593188Y-79066390D01*
X66593190Y-79066390D01*
X66707309Y-79000503D01*
X66707309Y-79000502D01*
X66707314Y-79000500D01*
X66800500Y-78907314D01*
X66800503Y-78907309D01*
X66866390Y-78793190D01*
X66866390Y-78793188D01*
X66866392Y-78793186D01*
X66900500Y-78665892D01*
X66900500Y-78534108D01*
X66866392Y-78406814D01*
X66866390Y-78406811D01*
X66866390Y-78406809D01*
X66800503Y-78292690D01*
X66800501Y-78292688D01*
X66800500Y-78292686D01*
X66707314Y-78199500D01*
X66707311Y-78199498D01*
X66707309Y-78199496D01*
X66593189Y-78133609D01*
X66593191Y-78133609D01*
X66543799Y-78120375D01*
X66465892Y-78099500D01*
X66334108Y-78099500D01*
X66256200Y-78120375D01*
X66206809Y-78133609D01*
X66092690Y-78199496D01*
X65999496Y-78292690D01*
X65933609Y-78406809D01*
X65933608Y-78406814D01*
X65899500Y-78534108D01*
X31133985Y-78534108D01*
X31150500Y-78472475D01*
X31150500Y-78327525D01*
X31112984Y-78187515D01*
X31112982Y-78187512D01*
X31112982Y-78187510D01*
X31040512Y-78061989D01*
X31040510Y-78061987D01*
X31040509Y-78061985D01*
X30938015Y-77959491D01*
X30938012Y-77959489D01*
X30938010Y-77959487D01*
X30812488Y-77887017D01*
X30812489Y-77887017D01*
X30782896Y-77879087D01*
X30672475Y-77849500D01*
X30527525Y-77849500D01*
X30465790Y-77866041D01*
X30387510Y-77887017D01*
X30261989Y-77959487D01*
X30159487Y-78061989D01*
X30087017Y-78187510D01*
X30049500Y-78327525D01*
X28300000Y-78327525D01*
X28300000Y-77134108D01*
X68299500Y-77134108D01*
X68299500Y-77265892D01*
X68329579Y-77378151D01*
X68333609Y-77393190D01*
X68399496Y-77507309D01*
X68399498Y-77507311D01*
X68399500Y-77507314D01*
X68492686Y-77600500D01*
X68492688Y-77600501D01*
X68492690Y-77600503D01*
X68606810Y-77666390D01*
X68606808Y-77666390D01*
X68606812Y-77666391D01*
X68606814Y-77666392D01*
X68734108Y-77700500D01*
X68734110Y-77700500D01*
X68865890Y-77700500D01*
X68865892Y-77700500D01*
X68993186Y-77666392D01*
X68993188Y-77666390D01*
X68993190Y-77666390D01*
X69107309Y-77600503D01*
X69107309Y-77600502D01*
X69107314Y-77600500D01*
X69200500Y-77507314D01*
X69266392Y-77393186D01*
X69300500Y-77265892D01*
X69300500Y-77134108D01*
X69266392Y-77006814D01*
X69266390Y-77006811D01*
X69266390Y-77006809D01*
X69200503Y-76892690D01*
X69200501Y-76892688D01*
X69200500Y-76892686D01*
X69107314Y-76799500D01*
X69107311Y-76799498D01*
X69107309Y-76799496D01*
X68993189Y-76733609D01*
X68993191Y-76733609D01*
X68916215Y-76712984D01*
X68865892Y-76699500D01*
X68734108Y-76699500D01*
X68683785Y-76712984D01*
X68606809Y-76733609D01*
X68492690Y-76799496D01*
X68399496Y-76892690D01*
X68333609Y-77006809D01*
X68333608Y-77006814D01*
X68299500Y-77134108D01*
X28300000Y-77134108D01*
X28300000Y-76127525D01*
X31849500Y-76127525D01*
X31849500Y-76272474D01*
X31887017Y-76412489D01*
X31959487Y-76538010D01*
X31959489Y-76538012D01*
X31959491Y-76538015D01*
X32061985Y-76640509D01*
X32061987Y-76640510D01*
X32061989Y-76640512D01*
X32187511Y-76712982D01*
X32187512Y-76712982D01*
X32187515Y-76712984D01*
X32327525Y-76750500D01*
X32327526Y-76750500D01*
X32472474Y-76750500D01*
X32472475Y-76750500D01*
X32612485Y-76712984D01*
X32612487Y-76712982D01*
X32612489Y-76712982D01*
X32738010Y-76640512D01*
X32738010Y-76640511D01*
X32738015Y-76640509D01*
X32840509Y-76538015D01*
X32912984Y-76412485D01*
X32950500Y-76272475D01*
X32950500Y-76127525D01*
X32912984Y-75987515D01*
X32912982Y-75987512D01*
X32912982Y-75987510D01*
X32840512Y-75861989D01*
X32840510Y-75861987D01*
X32840509Y-75861985D01*
X32738015Y-75759491D01*
X32738012Y-75759489D01*
X32738010Y-75759487D01*
X32612488Y-75687017D01*
X32612489Y-75687017D01*
X32582896Y-75679087D01*
X32472475Y-75649500D01*
X32327525Y-75649500D01*
X32265790Y-75666041D01*
X32187510Y-75687017D01*
X32061989Y-75759487D01*
X31959487Y-75861989D01*
X31887017Y-75987510D01*
X31849500Y-76127525D01*
X28300000Y-76127525D01*
X28300000Y-73934108D01*
X66699500Y-73934108D01*
X66699500Y-74065892D01*
X66729579Y-74178151D01*
X66733609Y-74193190D01*
X66799496Y-74307309D01*
X66799498Y-74307311D01*
X66799500Y-74307314D01*
X66892686Y-74400500D01*
X66892688Y-74400501D01*
X66892690Y-74400503D01*
X67006810Y-74466390D01*
X67006808Y-74466390D01*
X67006812Y-74466391D01*
X67006814Y-74466392D01*
X67134108Y-74500500D01*
X67134110Y-74500500D01*
X67265890Y-74500500D01*
X67265892Y-74500500D01*
X67393186Y-74466392D01*
X67393188Y-74466390D01*
X67393190Y-74466390D01*
X67507309Y-74400503D01*
X67507309Y-74400502D01*
X67507314Y-74400500D01*
X67600500Y-74307314D01*
X67666392Y-74193186D01*
X67700500Y-74065892D01*
X67700500Y-73934108D01*
X67666392Y-73806814D01*
X67666390Y-73806811D01*
X67666390Y-73806809D01*
X67600503Y-73692690D01*
X67600501Y-73692688D01*
X67600500Y-73692686D01*
X67507314Y-73599500D01*
X67507311Y-73599498D01*
X67507309Y-73599496D01*
X67393189Y-73533609D01*
X67393191Y-73533609D01*
X67343799Y-73520375D01*
X67265892Y-73499500D01*
X67134108Y-73499500D01*
X67056200Y-73520375D01*
X67006809Y-73533609D01*
X66892690Y-73599496D01*
X66799496Y-73692690D01*
X66733609Y-73806809D01*
X66733608Y-73806814D01*
X66699500Y-73934108D01*
X28300000Y-73934108D01*
X28300000Y-73134108D01*
X68899500Y-73134108D01*
X68899500Y-73265892D01*
X68929579Y-73378151D01*
X68933609Y-73393190D01*
X68999496Y-73507309D01*
X68999498Y-73507311D01*
X68999500Y-73507314D01*
X69092686Y-73600500D01*
X69092688Y-73600501D01*
X69092690Y-73600503D01*
X69206810Y-73666390D01*
X69206808Y-73666390D01*
X69206812Y-73666391D01*
X69206814Y-73666392D01*
X69334108Y-73700500D01*
X69334110Y-73700500D01*
X69465890Y-73700500D01*
X69465892Y-73700500D01*
X69593186Y-73666392D01*
X69593188Y-73666390D01*
X69593190Y-73666390D01*
X69707309Y-73600503D01*
X69707309Y-73600502D01*
X69707314Y-73600500D01*
X69800500Y-73507314D01*
X69800503Y-73507309D01*
X69866390Y-73393190D01*
X69866390Y-73393188D01*
X69866392Y-73393186D01*
X69900500Y-73265892D01*
X69900500Y-73134108D01*
X69866392Y-73006814D01*
X69866390Y-73006811D01*
X69866390Y-73006809D01*
X69800503Y-72892690D01*
X69800501Y-72892688D01*
X69800500Y-72892686D01*
X69741728Y-72833914D01*
X69713953Y-72779400D01*
X69723524Y-72718968D01*
X69766789Y-72675703D01*
X69786105Y-72668289D01*
X69793186Y-72666392D01*
X69907314Y-72600500D01*
X70000500Y-72507314D01*
X70066392Y-72393186D01*
X70100500Y-72265892D01*
X70100500Y-72134108D01*
X70066392Y-72006814D01*
X70066390Y-72006811D01*
X70066390Y-72006809D01*
X70000503Y-71892690D01*
X70000501Y-71892688D01*
X70000500Y-71892686D01*
X69907314Y-71799500D01*
X69907311Y-71799498D01*
X69907309Y-71799496D01*
X69793189Y-71733609D01*
X69793191Y-71733609D01*
X69743799Y-71720375D01*
X69665892Y-71699500D01*
X69534108Y-71699500D01*
X69456200Y-71720375D01*
X69406809Y-71733609D01*
X69292690Y-71799496D01*
X69199496Y-71892690D01*
X69133609Y-72006809D01*
X69133608Y-72006814D01*
X69099500Y-72134108D01*
X69099500Y-72265892D01*
X69129579Y-72378151D01*
X69133609Y-72393190D01*
X69199496Y-72507309D01*
X69199498Y-72507311D01*
X69199500Y-72507314D01*
X69258270Y-72566084D01*
X69286046Y-72620599D01*
X69276475Y-72681031D01*
X69233210Y-72724296D01*
X69213891Y-72731711D01*
X69209836Y-72732798D01*
X69206809Y-72733609D01*
X69092690Y-72799496D01*
X68999496Y-72892690D01*
X68933609Y-73006809D01*
X68933608Y-73006814D01*
X68899500Y-73134108D01*
X28300000Y-73134108D01*
X28300000Y-70934108D01*
X29099500Y-70934108D01*
X29099500Y-71065892D01*
X29129579Y-71178151D01*
X29133609Y-71193190D01*
X29199496Y-71307309D01*
X29199498Y-71307311D01*
X29199500Y-71307314D01*
X29292686Y-71400500D01*
X29292688Y-71400501D01*
X29292690Y-71400503D01*
X29406810Y-71466390D01*
X29406808Y-71466390D01*
X29406812Y-71466391D01*
X29406814Y-71466392D01*
X29534108Y-71500500D01*
X29534110Y-71500500D01*
X29665890Y-71500500D01*
X29665892Y-71500500D01*
X29793186Y-71466392D01*
X29793188Y-71466390D01*
X29793190Y-71466390D01*
X29907309Y-71400503D01*
X29907309Y-71400502D01*
X29907314Y-71400500D01*
X30000500Y-71307314D01*
X30066392Y-71193186D01*
X30100500Y-71065892D01*
X30100500Y-70934108D01*
X30066392Y-70806814D01*
X30066390Y-70806811D01*
X30066390Y-70806809D01*
X30000503Y-70692690D01*
X30000501Y-70692688D01*
X30000500Y-70692686D01*
X29907314Y-70599500D01*
X29907311Y-70599498D01*
X29907309Y-70599496D01*
X29793189Y-70533609D01*
X29793191Y-70533609D01*
X29743799Y-70520375D01*
X29665892Y-70499500D01*
X29534108Y-70499500D01*
X29456200Y-70520375D01*
X29406809Y-70533609D01*
X29292690Y-70599496D01*
X29199496Y-70692690D01*
X29133609Y-70806809D01*
X29133608Y-70806814D01*
X29099500Y-70934108D01*
X28300000Y-70934108D01*
X28300000Y-69849500D01*
X28318907Y-69791309D01*
X28368407Y-69755345D01*
X28399000Y-69750500D01*
X28801679Y-69750500D01*
X28859870Y-69769407D01*
X28871676Y-69779490D01*
X28892686Y-69800500D01*
X28892688Y-69800501D01*
X28892690Y-69800503D01*
X29006810Y-69866390D01*
X29006808Y-69866390D01*
X29006812Y-69866391D01*
X29006814Y-69866392D01*
X29134108Y-69900500D01*
X29134110Y-69900500D01*
X29265890Y-69900500D01*
X29265892Y-69900500D01*
X29393186Y-69866392D01*
X29393188Y-69866390D01*
X29393190Y-69866390D01*
X29507309Y-69800503D01*
X29507309Y-69800502D01*
X29507314Y-69800500D01*
X29600500Y-69707314D01*
X29666392Y-69593186D01*
X29700500Y-69465892D01*
X29700500Y-69334108D01*
X29666392Y-69206814D01*
X29666390Y-69206811D01*
X29666390Y-69206809D01*
X29600503Y-69092690D01*
X29600501Y-69092688D01*
X29600500Y-69092686D01*
X29507314Y-68999500D01*
X29507311Y-68999498D01*
X29507309Y-68999496D01*
X29393189Y-68933609D01*
X29393191Y-68933609D01*
X29343799Y-68920375D01*
X29265892Y-68899500D01*
X29134108Y-68899500D01*
X29056200Y-68920375D01*
X29006809Y-68933609D01*
X28892690Y-68999496D01*
X28892689Y-68999497D01*
X28892686Y-68999499D01*
X28892686Y-68999500D01*
X28871680Y-69020505D01*
X28817166Y-69048281D01*
X28801679Y-69049500D01*
X28399000Y-69049500D01*
X28340809Y-69030593D01*
X28304845Y-68981093D01*
X28300000Y-68950500D01*
X28300000Y-68334108D01*
X69899500Y-68334108D01*
X69899500Y-68465892D01*
X69929579Y-68578151D01*
X69933609Y-68593190D01*
X69999496Y-68707309D01*
X69999498Y-68707311D01*
X69999500Y-68707314D01*
X70092686Y-68800500D01*
X70092688Y-68800501D01*
X70092690Y-68800503D01*
X70206810Y-68866390D01*
X70206808Y-68866390D01*
X70206812Y-68866391D01*
X70206814Y-68866392D01*
X70334108Y-68900500D01*
X70334110Y-68900500D01*
X70465890Y-68900500D01*
X70465892Y-68900500D01*
X70593186Y-68866392D01*
X70593188Y-68866390D01*
X70593190Y-68866390D01*
X70707309Y-68800503D01*
X70707309Y-68800502D01*
X70707314Y-68800500D01*
X70800500Y-68707314D01*
X70866392Y-68593186D01*
X70900500Y-68465892D01*
X70900500Y-68334108D01*
X70866392Y-68206814D01*
X70866390Y-68206811D01*
X70866390Y-68206809D01*
X70800503Y-68092690D01*
X70800501Y-68092688D01*
X70800500Y-68092686D01*
X70707314Y-67999500D01*
X70707311Y-67999498D01*
X70707309Y-67999496D01*
X70593189Y-67933609D01*
X70593191Y-67933609D01*
X70543799Y-67920375D01*
X70465892Y-67899500D01*
X70334108Y-67899500D01*
X70256200Y-67920375D01*
X70206809Y-67933609D01*
X70092690Y-67999496D01*
X69999496Y-68092690D01*
X69933609Y-68206809D01*
X69933608Y-68206814D01*
X69899500Y-68334108D01*
X28300000Y-68334108D01*
X28300000Y-67534108D01*
X65899500Y-67534108D01*
X65899500Y-67665892D01*
X65929579Y-67778151D01*
X65933609Y-67793190D01*
X65999496Y-67907309D01*
X65999498Y-67907311D01*
X65999500Y-67907314D01*
X66092686Y-68000500D01*
X66092688Y-68000501D01*
X66092690Y-68000503D01*
X66206810Y-68066390D01*
X66206808Y-68066390D01*
X66206812Y-68066391D01*
X66206814Y-68066392D01*
X66334108Y-68100500D01*
X66334110Y-68100500D01*
X66465890Y-68100500D01*
X66465892Y-68100500D01*
X66593186Y-68066392D01*
X66593188Y-68066390D01*
X66593190Y-68066390D01*
X66707309Y-68000503D01*
X66707309Y-68000502D01*
X66707314Y-68000500D01*
X66800500Y-67907314D01*
X66800503Y-67907309D01*
X66866390Y-67793190D01*
X66866390Y-67793188D01*
X66866392Y-67793186D01*
X66900500Y-67665892D01*
X66900500Y-67534108D01*
X66866392Y-67406814D01*
X66866390Y-67406811D01*
X66866390Y-67406809D01*
X66800503Y-67292690D01*
X66800501Y-67292688D01*
X66800500Y-67292686D01*
X66707314Y-67199500D01*
X66707311Y-67199498D01*
X66707309Y-67199496D01*
X66593189Y-67133609D01*
X66593191Y-67133609D01*
X66543799Y-67120375D01*
X66465892Y-67099500D01*
X66334108Y-67099500D01*
X66256200Y-67120375D01*
X66206809Y-67133609D01*
X66092690Y-67199496D01*
X65999496Y-67292690D01*
X65933609Y-67406809D01*
X65933608Y-67406814D01*
X65899500Y-67534108D01*
X28300000Y-67534108D01*
X28300000Y-66134108D01*
X65899500Y-66134108D01*
X65899500Y-66265892D01*
X65929579Y-66378151D01*
X65933609Y-66393190D01*
X65999496Y-66507309D01*
X65999498Y-66507311D01*
X65999500Y-66507314D01*
X66092686Y-66600500D01*
X66092688Y-66600501D01*
X66092690Y-66600503D01*
X66206810Y-66666390D01*
X66206808Y-66666390D01*
X66206812Y-66666391D01*
X66206814Y-66666392D01*
X66334108Y-66700500D01*
X66334110Y-66700500D01*
X66465890Y-66700500D01*
X66465892Y-66700500D01*
X66593186Y-66666392D01*
X66593188Y-66666390D01*
X66593190Y-66666390D01*
X66707309Y-66600503D01*
X66707309Y-66600502D01*
X66707314Y-66600500D01*
X66800500Y-66507314D01*
X66866392Y-66393186D01*
X66900500Y-66265892D01*
X66900500Y-66134108D01*
X66866392Y-66006814D01*
X66866390Y-66006811D01*
X66866390Y-66006809D01*
X66800503Y-65892690D01*
X66800501Y-65892688D01*
X66800500Y-65892686D01*
X66707314Y-65799500D01*
X66707311Y-65799498D01*
X66707309Y-65799496D01*
X66593189Y-65733609D01*
X66593191Y-65733609D01*
X66543799Y-65720375D01*
X66465892Y-65699500D01*
X66334108Y-65699500D01*
X66256200Y-65720375D01*
X66206809Y-65733609D01*
X66092690Y-65799496D01*
X65999496Y-65892690D01*
X65933609Y-66006809D01*
X65933608Y-66006814D01*
X65899500Y-66134108D01*
X28300000Y-66134108D01*
X28300000Y-64927525D01*
X57449500Y-64927525D01*
X57449500Y-65072474D01*
X57487017Y-65212489D01*
X57559487Y-65338010D01*
X57559489Y-65338012D01*
X57559491Y-65338015D01*
X57661985Y-65440509D01*
X57661987Y-65440510D01*
X57661989Y-65440512D01*
X57787511Y-65512982D01*
X57787512Y-65512982D01*
X57787515Y-65512984D01*
X57927525Y-65550500D01*
X57927526Y-65550500D01*
X58072474Y-65550500D01*
X58072475Y-65550500D01*
X58212485Y-65512984D01*
X58212487Y-65512982D01*
X58212489Y-65512982D01*
X58338010Y-65440512D01*
X58338010Y-65440511D01*
X58338015Y-65440509D01*
X58440509Y-65338015D01*
X58440512Y-65338010D01*
X58512982Y-65212489D01*
X58512982Y-65212487D01*
X58512984Y-65212485D01*
X58533985Y-65134108D01*
X64499500Y-65134108D01*
X64499500Y-65265892D01*
X64518824Y-65338010D01*
X64533609Y-65393190D01*
X64599496Y-65507309D01*
X64599498Y-65507311D01*
X64599500Y-65507314D01*
X64692686Y-65600500D01*
X64692688Y-65600501D01*
X64692690Y-65600503D01*
X64806810Y-65666390D01*
X64806808Y-65666390D01*
X64806812Y-65666391D01*
X64806814Y-65666392D01*
X64934108Y-65700500D01*
X64934110Y-65700500D01*
X65065890Y-65700500D01*
X65065892Y-65700500D01*
X65193186Y-65666392D01*
X65193188Y-65666390D01*
X65193190Y-65666390D01*
X65307309Y-65600503D01*
X65307309Y-65600502D01*
X65307314Y-65600500D01*
X65400500Y-65507314D01*
X65466392Y-65393186D01*
X65500500Y-65265892D01*
X65500500Y-65134108D01*
X65466392Y-65006814D01*
X65466390Y-65006811D01*
X65466390Y-65006809D01*
X65400503Y-64892690D01*
X65400501Y-64892688D01*
X65400500Y-64892686D01*
X65307314Y-64799500D01*
X65307311Y-64799498D01*
X65307309Y-64799496D01*
X65193189Y-64733609D01*
X65193191Y-64733609D01*
X65143799Y-64720375D01*
X65065892Y-64699500D01*
X64934108Y-64699500D01*
X64856200Y-64720375D01*
X64806809Y-64733609D01*
X64692690Y-64799496D01*
X64599496Y-64892690D01*
X64533609Y-65006809D01*
X64533608Y-65006814D01*
X64499500Y-65134108D01*
X58533985Y-65134108D01*
X58550500Y-65072475D01*
X58550500Y-64927525D01*
X58512984Y-64787515D01*
X58512982Y-64787512D01*
X58512982Y-64787510D01*
X58440512Y-64661989D01*
X58440510Y-64661987D01*
X58440509Y-64661985D01*
X58338015Y-64559491D01*
X58338012Y-64559489D01*
X58338010Y-64559487D01*
X58212488Y-64487017D01*
X58212489Y-64487017D01*
X58133650Y-64465892D01*
X58072475Y-64449500D01*
X57927525Y-64449500D01*
X57866357Y-64465890D01*
X57787510Y-64487017D01*
X57661989Y-64559487D01*
X57559487Y-64661989D01*
X57487017Y-64787510D01*
X57449500Y-64927525D01*
X28300000Y-64927525D01*
X28300000Y-64334108D01*
X28899500Y-64334108D01*
X28899500Y-64465892D01*
X28924580Y-64559491D01*
X28933609Y-64593190D01*
X28999496Y-64707309D01*
X28999498Y-64707311D01*
X28999500Y-64707314D01*
X29092686Y-64800500D01*
X29092688Y-64800501D01*
X29092690Y-64800503D01*
X29206810Y-64866390D01*
X29206808Y-64866390D01*
X29206812Y-64866391D01*
X29206814Y-64866392D01*
X29334108Y-64900500D01*
X29334110Y-64900500D01*
X29465890Y-64900500D01*
X29465892Y-64900500D01*
X29593186Y-64866392D01*
X29593188Y-64866390D01*
X29593190Y-64866390D01*
X29647040Y-64835300D01*
X29707309Y-64800503D01*
X29707309Y-64800502D01*
X29707314Y-64800500D01*
X29800500Y-64707314D01*
X29804434Y-64700500D01*
X29866390Y-64593190D01*
X29866390Y-64593188D01*
X29866392Y-64593186D01*
X29900500Y-64465892D01*
X29900500Y-64334108D01*
X29866392Y-64206814D01*
X29824415Y-64134108D01*
X66699500Y-64134108D01*
X66699500Y-64265892D01*
X66717778Y-64334108D01*
X66733609Y-64393190D01*
X66799496Y-64507309D01*
X66799498Y-64507311D01*
X66799500Y-64507314D01*
X66892686Y-64600500D01*
X66892688Y-64600501D01*
X66892690Y-64600503D01*
X67006810Y-64666390D01*
X67006808Y-64666390D01*
X67006812Y-64666391D01*
X67006814Y-64666392D01*
X67134108Y-64700500D01*
X67134110Y-64700500D01*
X67265890Y-64700500D01*
X67265892Y-64700500D01*
X67393186Y-64666392D01*
X67393188Y-64666390D01*
X67393190Y-64666390D01*
X67507309Y-64600503D01*
X67507309Y-64600502D01*
X67507314Y-64600500D01*
X67600500Y-64507314D01*
X67666392Y-64393186D01*
X67700500Y-64265892D01*
X67700500Y-64134108D01*
X67666392Y-64006814D01*
X67666390Y-64006811D01*
X67666390Y-64006809D01*
X67600503Y-63892690D01*
X67600501Y-63892688D01*
X67600500Y-63892686D01*
X67507314Y-63799500D01*
X67507311Y-63799498D01*
X67507309Y-63799496D01*
X67393189Y-63733609D01*
X67393191Y-63733609D01*
X67343799Y-63720375D01*
X67265892Y-63699500D01*
X67134108Y-63699500D01*
X67056200Y-63720375D01*
X67006809Y-63733609D01*
X66892690Y-63799496D01*
X66799496Y-63892690D01*
X66733609Y-64006809D01*
X66733608Y-64006814D01*
X66699500Y-64134108D01*
X29824415Y-64134108D01*
X29800500Y-64092686D01*
X29707314Y-63999500D01*
X29707311Y-63999498D01*
X29707309Y-63999496D01*
X29593189Y-63933609D01*
X29593191Y-63933609D01*
X29543799Y-63920375D01*
X29465892Y-63899500D01*
X29334108Y-63899500D01*
X29256200Y-63920375D01*
X29206809Y-63933609D01*
X29092690Y-63999496D01*
X28999496Y-64092690D01*
X28933609Y-64206809D01*
X28933608Y-64206814D01*
X28899500Y-64334108D01*
X28300000Y-64334108D01*
X28300000Y-62999500D01*
X28318907Y-62941309D01*
X28368407Y-62905345D01*
X28399000Y-62900500D01*
X28465890Y-62900500D01*
X28465892Y-62900500D01*
X28593186Y-62866392D01*
X28593188Y-62866390D01*
X28593190Y-62866390D01*
X28707309Y-62800503D01*
X28707309Y-62800502D01*
X28707314Y-62800500D01*
X28773706Y-62734108D01*
X66499500Y-62734108D01*
X66499500Y-62865892D01*
X66519708Y-62941309D01*
X66533609Y-62993190D01*
X66599496Y-63107309D01*
X66599498Y-63107311D01*
X66599500Y-63107314D01*
X66692686Y-63200500D01*
X66692688Y-63200501D01*
X66692690Y-63200503D01*
X66806810Y-63266390D01*
X66806808Y-63266390D01*
X66806812Y-63266391D01*
X66806814Y-63266392D01*
X66934108Y-63300500D01*
X66934110Y-63300500D01*
X67065890Y-63300500D01*
X67065892Y-63300500D01*
X67193186Y-63266392D01*
X67193188Y-63266390D01*
X67193190Y-63266390D01*
X67307309Y-63200503D01*
X67307309Y-63200502D01*
X67307314Y-63200500D01*
X67400500Y-63107314D01*
X67466392Y-62993186D01*
X67500500Y-62865892D01*
X67500500Y-62734108D01*
X67466392Y-62606814D01*
X67466390Y-62606811D01*
X67466390Y-62606809D01*
X67400503Y-62492690D01*
X67400501Y-62492688D01*
X67400500Y-62492686D01*
X67307314Y-62399500D01*
X67307311Y-62399498D01*
X67307309Y-62399496D01*
X67193189Y-62333609D01*
X67193191Y-62333609D01*
X67143799Y-62320375D01*
X67065892Y-62299500D01*
X66934108Y-62299500D01*
X66856200Y-62320375D01*
X66806809Y-62333609D01*
X66692690Y-62399496D01*
X66599496Y-62492690D01*
X66533609Y-62606809D01*
X66533608Y-62606814D01*
X66499500Y-62734108D01*
X28773706Y-62734108D01*
X28800500Y-62707314D01*
X28809504Y-62691717D01*
X28817357Y-62678118D01*
X28858524Y-62606814D01*
X28866392Y-62593186D01*
X28900500Y-62465892D01*
X28900500Y-62334108D01*
X28866392Y-62206814D01*
X28866390Y-62206811D01*
X28866390Y-62206809D01*
X28800503Y-62092690D01*
X28800501Y-62092688D01*
X28800500Y-62092686D01*
X28707314Y-61999500D01*
X28707311Y-61999498D01*
X28707309Y-61999496D01*
X28593189Y-61933609D01*
X28593191Y-61933609D01*
X28543799Y-61920375D01*
X28465892Y-61899500D01*
X28399000Y-61899500D01*
X28340809Y-61880593D01*
X28304845Y-61831093D01*
X28300000Y-61800500D01*
X28300000Y-61249500D01*
X28318907Y-61191309D01*
X28368407Y-61155345D01*
X28399000Y-61150500D01*
X28801679Y-61150500D01*
X28859870Y-61169407D01*
X28871676Y-61179490D01*
X28892686Y-61200500D01*
X28892688Y-61200501D01*
X28892690Y-61200503D01*
X29006810Y-61266390D01*
X29006808Y-61266390D01*
X29006812Y-61266391D01*
X29006814Y-61266392D01*
X29064594Y-61281874D01*
X29115907Y-61315197D01*
X29137834Y-61372318D01*
X29134597Y-61403123D01*
X29133608Y-61406813D01*
X29133608Y-61406814D01*
X29099500Y-61534108D01*
X29099500Y-61665892D01*
X29101264Y-61672474D01*
X29133609Y-61793190D01*
X29199496Y-61907309D01*
X29199498Y-61907311D01*
X29199500Y-61907314D01*
X29292686Y-62000500D01*
X29292688Y-62000501D01*
X29292690Y-62000503D01*
X29406810Y-62066390D01*
X29406808Y-62066390D01*
X29406812Y-62066391D01*
X29406814Y-62066392D01*
X29534108Y-62100500D01*
X29534110Y-62100500D01*
X29665890Y-62100500D01*
X29665892Y-62100500D01*
X29793186Y-62066392D01*
X29793188Y-62066390D01*
X29793190Y-62066390D01*
X29907309Y-62000503D01*
X29907309Y-62000502D01*
X29907314Y-62000500D01*
X30000500Y-61907314D01*
X30000503Y-61907309D01*
X30066390Y-61793190D01*
X30066390Y-61793188D01*
X30066392Y-61793186D01*
X30100500Y-61665892D01*
X30100500Y-61534108D01*
X30098736Y-61527525D01*
X60849500Y-61527525D01*
X60849500Y-61672474D01*
X60887017Y-61812489D01*
X60959487Y-61938010D01*
X60959489Y-61938012D01*
X60959491Y-61938015D01*
X61061985Y-62040509D01*
X61061987Y-62040510D01*
X61061989Y-62040512D01*
X61187511Y-62112982D01*
X61187512Y-62112982D01*
X61187515Y-62112984D01*
X61327525Y-62150500D01*
X61327526Y-62150500D01*
X61472474Y-62150500D01*
X61472475Y-62150500D01*
X61612485Y-62112984D01*
X61612487Y-62112982D01*
X61612489Y-62112982D01*
X61738010Y-62040512D01*
X61738010Y-62040511D01*
X61738015Y-62040509D01*
X61840509Y-61938015D01*
X61843053Y-61933609D01*
X61912982Y-61812489D01*
X61912982Y-61812487D01*
X61912984Y-61812485D01*
X61950500Y-61672475D01*
X61950500Y-61527525D01*
X61912984Y-61387515D01*
X61912982Y-61387512D01*
X61912982Y-61387510D01*
X61840512Y-61261989D01*
X61840510Y-61261987D01*
X61840509Y-61261985D01*
X61738015Y-61159491D01*
X61738012Y-61159489D01*
X61738010Y-61159487D01*
X61612488Y-61087017D01*
X61612489Y-61087017D01*
X61582896Y-61079087D01*
X61472475Y-61049500D01*
X61327525Y-61049500D01*
X61265790Y-61066041D01*
X61187510Y-61087017D01*
X61061989Y-61159487D01*
X60959487Y-61261989D01*
X60887017Y-61387510D01*
X60849500Y-61527525D01*
X30098736Y-61527525D01*
X30066392Y-61406814D01*
X30066390Y-61406811D01*
X30066390Y-61406809D01*
X30000503Y-61292690D01*
X30000501Y-61292688D01*
X30000500Y-61292686D01*
X29907314Y-61199500D01*
X29907311Y-61199498D01*
X29907309Y-61199496D01*
X29793191Y-61133610D01*
X29793188Y-61133609D01*
X29793186Y-61133608D01*
X29735404Y-61118125D01*
X29684091Y-61084801D01*
X29662165Y-61027680D01*
X29665402Y-60996876D01*
X29666389Y-60993190D01*
X29666392Y-60993186D01*
X29700500Y-60865892D01*
X29700500Y-60734108D01*
X29666392Y-60606814D01*
X29666390Y-60606811D01*
X29666390Y-60606809D01*
X29600503Y-60492690D01*
X29600501Y-60492688D01*
X29600500Y-60492686D01*
X29507314Y-60399500D01*
X29507311Y-60399498D01*
X29507309Y-60399496D01*
X29393189Y-60333609D01*
X29393191Y-60333609D01*
X29343799Y-60320375D01*
X29265892Y-60299500D01*
X29134108Y-60299500D01*
X29056200Y-60320375D01*
X29006809Y-60333609D01*
X28892690Y-60399496D01*
X28892689Y-60399497D01*
X28892686Y-60399499D01*
X28892686Y-60399500D01*
X28871680Y-60420505D01*
X28817166Y-60448281D01*
X28801679Y-60449500D01*
X28399000Y-60449500D01*
X28340809Y-60430593D01*
X28304845Y-60381093D01*
X28300000Y-60350500D01*
X28300000Y-58134108D01*
X45499500Y-58134108D01*
X45499500Y-58265892D01*
X45529579Y-58378151D01*
X45533609Y-58393190D01*
X45599496Y-58507309D01*
X45599498Y-58507311D01*
X45599500Y-58507314D01*
X45692686Y-58600500D01*
X45692688Y-58600501D01*
X45692690Y-58600503D01*
X45806810Y-58666390D01*
X45806808Y-58666390D01*
X45806812Y-58666391D01*
X45806814Y-58666392D01*
X45934108Y-58700500D01*
X45934110Y-58700500D01*
X46065890Y-58700500D01*
X46065892Y-58700500D01*
X46193186Y-58666392D01*
X46193188Y-58666390D01*
X46193190Y-58666390D01*
X46307309Y-58600503D01*
X46307309Y-58600502D01*
X46307314Y-58600500D01*
X46400500Y-58507314D01*
X46466392Y-58393186D01*
X46500500Y-58265892D01*
X46500500Y-58134108D01*
X46466392Y-58006814D01*
X46466390Y-58006811D01*
X46466390Y-58006809D01*
X46400503Y-57892690D01*
X46400501Y-57892688D01*
X46400500Y-57892686D01*
X46307314Y-57799500D01*
X46307311Y-57799498D01*
X46307309Y-57799496D01*
X46193189Y-57733609D01*
X46193191Y-57733609D01*
X46143799Y-57720375D01*
X46065892Y-57699500D01*
X45934108Y-57699500D01*
X45856200Y-57720375D01*
X45806809Y-57733609D01*
X45692690Y-57799496D01*
X45599496Y-57892690D01*
X45533609Y-58006809D01*
X45533608Y-58006814D01*
X45499500Y-58134108D01*
X28300000Y-58134108D01*
X28300000Y-55934108D01*
X28899500Y-55934108D01*
X28899500Y-56065892D01*
X28908773Y-56100500D01*
X28933609Y-56193190D01*
X28999496Y-56307309D01*
X28999498Y-56307311D01*
X28999500Y-56307314D01*
X29092686Y-56400500D01*
X29092688Y-56400501D01*
X29092690Y-56400503D01*
X29206810Y-56466390D01*
X29206808Y-56466390D01*
X29206812Y-56466391D01*
X29206814Y-56466392D01*
X29334108Y-56500500D01*
X29334110Y-56500500D01*
X29465890Y-56500500D01*
X29465892Y-56500500D01*
X29593186Y-56466392D01*
X29593188Y-56466390D01*
X29593190Y-56466390D01*
X29707309Y-56400503D01*
X29707309Y-56400502D01*
X29707314Y-56400500D01*
X29800500Y-56307314D01*
X29866392Y-56193186D01*
X29900500Y-56065892D01*
X29900500Y-56047321D01*
X29919407Y-55989130D01*
X29968907Y-55953166D01*
X30030093Y-55953166D01*
X30069501Y-55977315D01*
X30092686Y-56000500D01*
X30092688Y-56000501D01*
X30092690Y-56000503D01*
X30206810Y-56066390D01*
X30206808Y-56066390D01*
X30206812Y-56066391D01*
X30206814Y-56066392D01*
X30334108Y-56100500D01*
X30334110Y-56100500D01*
X30465890Y-56100500D01*
X30465892Y-56100500D01*
X30593186Y-56066392D01*
X30593188Y-56066390D01*
X30593190Y-56066390D01*
X30707309Y-56000503D01*
X30707309Y-56000502D01*
X30707314Y-56000500D01*
X30800500Y-55907314D01*
X30821194Y-55871471D01*
X30866390Y-55793190D01*
X30866390Y-55793188D01*
X30866392Y-55793186D01*
X30900500Y-55665892D01*
X30900500Y-55534108D01*
X30866392Y-55406814D01*
X30824415Y-55334108D01*
X31099500Y-55334108D01*
X31099500Y-55465892D01*
X31110598Y-55507309D01*
X31133609Y-55593190D01*
X31199496Y-55707309D01*
X31199498Y-55707311D01*
X31199500Y-55707314D01*
X31292686Y-55800500D01*
X31292688Y-55800501D01*
X31292690Y-55800503D01*
X31406810Y-55866390D01*
X31406808Y-55866390D01*
X31406812Y-55866391D01*
X31406814Y-55866392D01*
X31534108Y-55900500D01*
X31534110Y-55900500D01*
X31665890Y-55900500D01*
X31665892Y-55900500D01*
X31793186Y-55866392D01*
X31805453Y-55859309D01*
X31865298Y-55846587D01*
X31921195Y-55871471D01*
X31951790Y-55924458D01*
X31945397Y-55985308D01*
X31940692Y-55994543D01*
X31933609Y-56006811D01*
X31933608Y-56006813D01*
X31933608Y-56006814D01*
X31899500Y-56134108D01*
X31899500Y-56265892D01*
X31910598Y-56307309D01*
X31933609Y-56393190D01*
X31999496Y-56507309D01*
X31999498Y-56507311D01*
X31999500Y-56507314D01*
X32092686Y-56600500D01*
X32092688Y-56600501D01*
X32092690Y-56600503D01*
X32206810Y-56666390D01*
X32206808Y-56666390D01*
X32206812Y-56666391D01*
X32206814Y-56666392D01*
X32334108Y-56700500D01*
X32334110Y-56700500D01*
X32465890Y-56700500D01*
X32465892Y-56700500D01*
X32593186Y-56666392D01*
X32593188Y-56666390D01*
X32593190Y-56666390D01*
X32707309Y-56600503D01*
X32707309Y-56600502D01*
X32707314Y-56600500D01*
X32800500Y-56507314D01*
X32804434Y-56500500D01*
X32866390Y-56393190D01*
X32866390Y-56393188D01*
X32866392Y-56393186D01*
X32900500Y-56265892D01*
X32900500Y-56134108D01*
X32866392Y-56006814D01*
X32824415Y-55934108D01*
X46299500Y-55934108D01*
X46299500Y-56065892D01*
X46308773Y-56100500D01*
X46333609Y-56193190D01*
X46399496Y-56307309D01*
X46399498Y-56307311D01*
X46399500Y-56307314D01*
X46492686Y-56400500D01*
X46492688Y-56400501D01*
X46492690Y-56400503D01*
X46606810Y-56466390D01*
X46606808Y-56466390D01*
X46606812Y-56466391D01*
X46606814Y-56466392D01*
X46734108Y-56500500D01*
X46734110Y-56500500D01*
X46865890Y-56500500D01*
X46865892Y-56500500D01*
X46993186Y-56466392D01*
X46993188Y-56466390D01*
X46993190Y-56466390D01*
X47107309Y-56400503D01*
X47107309Y-56400502D01*
X47107314Y-56400500D01*
X47200500Y-56307314D01*
X47266392Y-56193186D01*
X47300500Y-56065892D01*
X47300500Y-55934108D01*
X47266392Y-55806814D01*
X47266390Y-55806811D01*
X47266390Y-55806809D01*
X47200503Y-55692690D01*
X47200501Y-55692688D01*
X47200500Y-55692686D01*
X47107314Y-55599500D01*
X47107311Y-55599498D01*
X47107309Y-55599496D01*
X46993189Y-55533609D01*
X46993191Y-55533609D01*
X46943799Y-55520375D01*
X46865892Y-55499500D01*
X46734108Y-55499500D01*
X46656200Y-55520375D01*
X46606809Y-55533609D01*
X46492690Y-55599496D01*
X46399496Y-55692690D01*
X46333609Y-55806809D01*
X46317644Y-55866392D01*
X46299500Y-55934108D01*
X32824415Y-55934108D01*
X32800500Y-55892686D01*
X32707314Y-55799500D01*
X32707311Y-55799498D01*
X32707309Y-55799496D01*
X32593189Y-55733609D01*
X32593191Y-55733609D01*
X32543799Y-55720375D01*
X32465892Y-55699500D01*
X32334108Y-55699500D01*
X32206814Y-55733608D01*
X32206813Y-55733608D01*
X32206811Y-55733609D01*
X32194543Y-55740692D01*
X32134694Y-55753411D01*
X32078799Y-55728524D01*
X32048208Y-55675535D01*
X32054605Y-55614685D01*
X32059304Y-55605462D01*
X32066392Y-55593186D01*
X32100500Y-55465892D01*
X32100500Y-55334108D01*
X32066392Y-55206814D01*
X32024415Y-55134108D01*
X64499500Y-55134108D01*
X64499500Y-55265892D01*
X64517778Y-55334108D01*
X64533609Y-55393190D01*
X64599496Y-55507309D01*
X64599498Y-55507311D01*
X64599500Y-55507314D01*
X64692686Y-55600500D01*
X64692688Y-55600501D01*
X64692690Y-55600503D01*
X64806810Y-55666390D01*
X64806808Y-55666390D01*
X64806812Y-55666391D01*
X64806814Y-55666392D01*
X64934108Y-55700500D01*
X64934110Y-55700500D01*
X65065890Y-55700500D01*
X65065892Y-55700500D01*
X65193186Y-55666392D01*
X65193188Y-55666390D01*
X65193190Y-55666390D01*
X65307309Y-55600503D01*
X65307309Y-55600502D01*
X65307314Y-55600500D01*
X65400500Y-55507314D01*
X65400503Y-55507309D01*
X65466390Y-55393190D01*
X65466390Y-55393188D01*
X65466392Y-55393186D01*
X65500500Y-55265892D01*
X65500500Y-55134108D01*
X65466392Y-55006814D01*
X65466390Y-55006811D01*
X65466390Y-55006809D01*
X65400503Y-54892690D01*
X65400501Y-54892688D01*
X65400500Y-54892686D01*
X65307314Y-54799500D01*
X65307311Y-54799498D01*
X65307309Y-54799496D01*
X65193189Y-54733609D01*
X65193191Y-54733609D01*
X65143799Y-54720375D01*
X65065892Y-54699500D01*
X64934108Y-54699500D01*
X64856200Y-54720375D01*
X64806809Y-54733609D01*
X64692690Y-54799496D01*
X64599496Y-54892690D01*
X64533609Y-55006809D01*
X64533608Y-55006814D01*
X64499500Y-55134108D01*
X32024415Y-55134108D01*
X32000500Y-55092686D01*
X31907314Y-54999500D01*
X31907311Y-54999498D01*
X31907309Y-54999496D01*
X31793189Y-54933609D01*
X31793191Y-54933609D01*
X31743799Y-54920375D01*
X31665892Y-54899500D01*
X31534108Y-54899500D01*
X31456200Y-54920375D01*
X31406809Y-54933609D01*
X31292690Y-54999496D01*
X31199496Y-55092690D01*
X31133609Y-55206809D01*
X31133608Y-55206814D01*
X31099500Y-55334108D01*
X30824415Y-55334108D01*
X30800500Y-55292686D01*
X30707314Y-55199500D01*
X30707311Y-55199498D01*
X30707309Y-55199496D01*
X30593189Y-55133609D01*
X30593191Y-55133609D01*
X30543799Y-55120375D01*
X30465892Y-55099500D01*
X30334108Y-55099500D01*
X30256200Y-55120375D01*
X30206809Y-55133609D01*
X30092690Y-55199496D01*
X29999496Y-55292690D01*
X29933609Y-55406809D01*
X29933608Y-55406814D01*
X29906680Y-55507314D01*
X29899500Y-55534109D01*
X29899500Y-55552679D01*
X29880593Y-55610870D01*
X29831093Y-55646834D01*
X29769907Y-55646834D01*
X29730498Y-55622684D01*
X29707314Y-55599500D01*
X29707311Y-55599498D01*
X29707309Y-55599496D01*
X29593189Y-55533609D01*
X29593191Y-55533609D01*
X29543799Y-55520375D01*
X29465892Y-55499500D01*
X29334108Y-55499500D01*
X29256200Y-55520375D01*
X29206809Y-55533609D01*
X29092690Y-55599496D01*
X28999496Y-55692690D01*
X28933609Y-55806809D01*
X28917644Y-55866392D01*
X28899500Y-55934108D01*
X28300000Y-55934108D01*
X28300000Y-55366790D01*
X28318907Y-55308599D01*
X28368407Y-55272635D01*
X28424620Y-55271163D01*
X28534108Y-55300500D01*
X28534110Y-55300500D01*
X28665890Y-55300500D01*
X28665892Y-55300500D01*
X28793186Y-55266392D01*
X28793188Y-55266390D01*
X28793190Y-55266390D01*
X28907309Y-55200503D01*
X28907309Y-55200502D01*
X28907314Y-55200500D01*
X29000500Y-55107314D01*
X29000503Y-55107309D01*
X29066390Y-54993190D01*
X29066390Y-54993188D01*
X29066392Y-54993186D01*
X29100500Y-54865892D01*
X29100500Y-54734108D01*
X29066392Y-54606814D01*
X29066390Y-54606811D01*
X29066390Y-54606809D01*
X29000503Y-54492690D01*
X29000501Y-54492688D01*
X29000500Y-54492686D01*
X28977315Y-54469501D01*
X28949540Y-54414987D01*
X28959111Y-54354555D01*
X29002376Y-54311290D01*
X29047321Y-54300500D01*
X29065890Y-54300500D01*
X29065892Y-54300500D01*
X29193186Y-54266392D01*
X29193188Y-54266390D01*
X29193190Y-54266390D01*
X29307309Y-54200503D01*
X29307309Y-54200502D01*
X29307314Y-54200500D01*
X29373706Y-54134108D01*
X30899500Y-54134108D01*
X30899500Y-54265892D01*
X30916366Y-54328836D01*
X30933609Y-54393190D01*
X30999496Y-54507309D01*
X30999498Y-54507311D01*
X30999500Y-54507314D01*
X31092686Y-54600500D01*
X31092688Y-54600501D01*
X31092690Y-54600503D01*
X31206810Y-54666390D01*
X31206808Y-54666390D01*
X31206812Y-54666391D01*
X31206814Y-54666392D01*
X31334108Y-54700500D01*
X31334110Y-54700500D01*
X31465890Y-54700500D01*
X31465892Y-54700500D01*
X31593186Y-54666392D01*
X31593188Y-54666390D01*
X31593190Y-54666390D01*
X31707309Y-54600503D01*
X31707309Y-54600502D01*
X31707314Y-54600500D01*
X31800500Y-54507314D01*
X31822330Y-54469504D01*
X31866390Y-54393190D01*
X31866390Y-54393188D01*
X31866392Y-54393186D01*
X31882222Y-54334108D01*
X39899500Y-54334108D01*
X39899500Y-54465892D01*
X39908773Y-54500500D01*
X39933609Y-54593190D01*
X39999496Y-54707309D01*
X39999498Y-54707311D01*
X39999500Y-54707314D01*
X40092686Y-54800500D01*
X40092688Y-54800501D01*
X40092690Y-54800503D01*
X40206810Y-54866390D01*
X40206808Y-54866390D01*
X40206812Y-54866391D01*
X40206814Y-54866392D01*
X40334108Y-54900500D01*
X40334110Y-54900500D01*
X40465890Y-54900500D01*
X40465892Y-54900500D01*
X40593186Y-54866392D01*
X40593188Y-54866390D01*
X40593190Y-54866390D01*
X40707309Y-54800503D01*
X40707309Y-54800502D01*
X40707314Y-54800500D01*
X40800500Y-54707314D01*
X40804434Y-54700500D01*
X40866390Y-54593190D01*
X40866390Y-54593188D01*
X40866392Y-54593186D01*
X40900500Y-54465892D01*
X40900500Y-54334108D01*
X40866392Y-54206814D01*
X40866390Y-54206811D01*
X40866390Y-54206809D01*
X40800503Y-54092690D01*
X40800501Y-54092688D01*
X40800500Y-54092686D01*
X40707314Y-53999500D01*
X40707311Y-53999498D01*
X40707309Y-53999496D01*
X40594053Y-53934108D01*
X48299500Y-53934108D01*
X48299500Y-54065892D01*
X48329579Y-54178151D01*
X48333609Y-54193190D01*
X48399496Y-54307309D01*
X48399498Y-54307311D01*
X48399500Y-54307314D01*
X48492686Y-54400500D01*
X48492688Y-54400501D01*
X48492690Y-54400503D01*
X48606810Y-54466390D01*
X48606808Y-54466390D01*
X48606812Y-54466391D01*
X48606814Y-54466392D01*
X48734108Y-54500500D01*
X48734110Y-54500500D01*
X48865890Y-54500500D01*
X48865892Y-54500500D01*
X48993186Y-54466392D01*
X48993188Y-54466390D01*
X48993190Y-54466390D01*
X49107309Y-54400503D01*
X49107309Y-54400502D01*
X49107314Y-54400500D01*
X49200500Y-54307314D01*
X49204434Y-54300500D01*
X49266390Y-54193190D01*
X49266390Y-54193188D01*
X49266392Y-54193186D01*
X49300500Y-54065892D01*
X49300500Y-53934108D01*
X49266392Y-53806814D01*
X49266390Y-53806811D01*
X49266390Y-53806809D01*
X49200503Y-53692690D01*
X49200501Y-53692688D01*
X49200500Y-53692686D01*
X49107314Y-53599500D01*
X49107311Y-53599498D01*
X49107309Y-53599496D01*
X48993189Y-53533609D01*
X48993191Y-53533609D01*
X48943799Y-53520375D01*
X48865892Y-53499500D01*
X48734108Y-53499500D01*
X48656200Y-53520375D01*
X48606809Y-53533609D01*
X48492690Y-53599496D01*
X48399496Y-53692690D01*
X48333609Y-53806809D01*
X48333608Y-53806814D01*
X48299500Y-53934108D01*
X40594053Y-53934108D01*
X40593189Y-53933609D01*
X40593191Y-53933609D01*
X40543799Y-53920375D01*
X40465892Y-53899500D01*
X40334108Y-53899500D01*
X40256200Y-53920375D01*
X40206809Y-53933609D01*
X40092690Y-53999496D01*
X39999496Y-54092690D01*
X39933609Y-54206809D01*
X39917778Y-54265892D01*
X39899500Y-54334108D01*
X31882222Y-54334108D01*
X31900500Y-54265892D01*
X31900500Y-54134108D01*
X31866392Y-54006814D01*
X31866390Y-54006811D01*
X31866390Y-54006809D01*
X31800503Y-53892690D01*
X31800501Y-53892688D01*
X31800500Y-53892686D01*
X31707314Y-53799500D01*
X31707311Y-53799498D01*
X31707309Y-53799496D01*
X31593189Y-53733609D01*
X31593191Y-53733609D01*
X31543799Y-53720375D01*
X31465892Y-53699500D01*
X31334108Y-53699500D01*
X31256200Y-53720375D01*
X31206809Y-53733609D01*
X31092690Y-53799496D01*
X30999496Y-53892690D01*
X30933609Y-54006809D01*
X30924579Y-54040512D01*
X30899500Y-54134108D01*
X29373706Y-54134108D01*
X29400500Y-54107314D01*
X29409504Y-54091717D01*
X29417357Y-54078118D01*
X29458524Y-54006814D01*
X29466392Y-53993186D01*
X29500500Y-53865892D01*
X29500500Y-53734108D01*
X29466392Y-53606814D01*
X29445447Y-53570536D01*
X29445446Y-53570533D01*
X29420615Y-53527525D01*
X32849500Y-53527525D01*
X32849500Y-53672475D01*
X32865881Y-53733608D01*
X32887017Y-53812489D01*
X32959487Y-53938010D01*
X32959489Y-53938012D01*
X32959491Y-53938015D01*
X33061985Y-54040509D01*
X33061987Y-54040510D01*
X33061989Y-54040512D01*
X33187511Y-54112982D01*
X33187512Y-54112982D01*
X33187515Y-54112984D01*
X33327525Y-54150500D01*
X33327526Y-54150500D01*
X33472474Y-54150500D01*
X33472475Y-54150500D01*
X33612485Y-54112984D01*
X33612487Y-54112982D01*
X33612489Y-54112982D01*
X33738010Y-54040512D01*
X33738010Y-54040511D01*
X33738015Y-54040509D01*
X33840509Y-53938015D01*
X33843053Y-53933609D01*
X33912982Y-53812489D01*
X33912982Y-53812487D01*
X33912984Y-53812485D01*
X33950500Y-53672475D01*
X33950500Y-53527525D01*
X33912984Y-53387515D01*
X33912982Y-53387512D01*
X33912982Y-53387510D01*
X33840512Y-53261989D01*
X33840510Y-53261987D01*
X33840509Y-53261985D01*
X33738015Y-53159491D01*
X33738012Y-53159489D01*
X33738010Y-53159487D01*
X33612488Y-53087017D01*
X33612489Y-53087017D01*
X33533650Y-53065892D01*
X33472475Y-53049500D01*
X33327525Y-53049500D01*
X33266357Y-53065890D01*
X33187510Y-53087017D01*
X33061989Y-53159487D01*
X32959487Y-53261989D01*
X32887017Y-53387510D01*
X32883536Y-53400503D01*
X32849500Y-53527525D01*
X29420615Y-53527525D01*
X29400503Y-53492690D01*
X29400501Y-53492688D01*
X29400500Y-53492686D01*
X29307314Y-53399500D01*
X29307311Y-53399498D01*
X29307309Y-53399496D01*
X29193189Y-53333609D01*
X29193191Y-53333609D01*
X29143799Y-53320375D01*
X29065892Y-53299500D01*
X28934108Y-53299500D01*
X28856200Y-53320375D01*
X28806809Y-53333609D01*
X28692690Y-53399496D01*
X28599496Y-53492690D01*
X28533609Y-53606809D01*
X28533608Y-53606814D01*
X28499500Y-53734108D01*
X28499500Y-53865892D01*
X28517644Y-53933608D01*
X28533609Y-53993190D01*
X28599496Y-54107309D01*
X28599498Y-54107311D01*
X28599500Y-54107314D01*
X28622684Y-54130498D01*
X28650460Y-54185013D01*
X28640889Y-54245445D01*
X28597624Y-54288710D01*
X28552679Y-54299500D01*
X28534108Y-54299500D01*
X28490590Y-54311160D01*
X28424622Y-54328836D01*
X28363521Y-54325633D01*
X28315971Y-54287128D01*
X28300000Y-54233209D01*
X28300000Y-52334108D01*
X29099500Y-52334108D01*
X29099500Y-52465892D01*
X29108773Y-52500500D01*
X29133609Y-52593190D01*
X29199496Y-52707309D01*
X29199498Y-52707311D01*
X29199500Y-52707314D01*
X29292686Y-52800500D01*
X29292688Y-52800501D01*
X29292690Y-52800503D01*
X29406810Y-52866390D01*
X29406808Y-52866390D01*
X29406812Y-52866391D01*
X29406814Y-52866392D01*
X29534108Y-52900500D01*
X29534110Y-52900500D01*
X29665890Y-52900500D01*
X29665892Y-52900500D01*
X29793186Y-52866392D01*
X29793190Y-52866389D01*
X29796876Y-52865402D01*
X29857977Y-52868604D01*
X29905527Y-52907109D01*
X29918125Y-52935403D01*
X29933608Y-52993186D01*
X29933609Y-52993188D01*
X29933610Y-52993191D01*
X29999496Y-53107309D01*
X29999498Y-53107311D01*
X29999500Y-53107314D01*
X30092686Y-53200500D01*
X30092688Y-53200501D01*
X30092690Y-53200503D01*
X30206810Y-53266390D01*
X30206808Y-53266390D01*
X30206812Y-53266391D01*
X30206814Y-53266392D01*
X30334108Y-53300500D01*
X30334110Y-53300500D01*
X30465890Y-53300500D01*
X30465892Y-53300500D01*
X30593186Y-53266392D01*
X30593188Y-53266390D01*
X30593190Y-53266390D01*
X30707309Y-53200503D01*
X30707309Y-53200502D01*
X30707314Y-53200500D01*
X30800500Y-53107314D01*
X30866392Y-52993186D01*
X30882222Y-52934108D01*
X49299500Y-52934108D01*
X49299500Y-53065892D01*
X49324580Y-53159491D01*
X49333609Y-53193190D01*
X49399496Y-53307309D01*
X49399498Y-53307311D01*
X49399500Y-53307314D01*
X49492686Y-53400500D01*
X49492688Y-53400501D01*
X49492690Y-53400503D01*
X49606810Y-53466390D01*
X49606808Y-53466390D01*
X49606812Y-53466391D01*
X49606814Y-53466392D01*
X49734108Y-53500500D01*
X49734110Y-53500500D01*
X49865890Y-53500500D01*
X49865892Y-53500500D01*
X49993186Y-53466392D01*
X49993188Y-53466390D01*
X49993190Y-53466390D01*
X50107309Y-53400503D01*
X50107309Y-53400502D01*
X50107314Y-53400500D01*
X50200500Y-53307314D01*
X50204434Y-53300500D01*
X50266390Y-53193190D01*
X50266390Y-53193188D01*
X50266392Y-53193186D01*
X50300500Y-53065892D01*
X50300500Y-52934108D01*
X50266392Y-52806814D01*
X50266390Y-52806811D01*
X50266390Y-52806809D01*
X50200503Y-52692690D01*
X50200501Y-52692688D01*
X50200500Y-52692686D01*
X50107314Y-52599500D01*
X50107311Y-52599498D01*
X50107309Y-52599496D01*
X49993189Y-52533609D01*
X49993191Y-52533609D01*
X49943799Y-52520375D01*
X49865892Y-52499500D01*
X49734108Y-52499500D01*
X49656200Y-52520375D01*
X49606809Y-52533609D01*
X49492690Y-52599496D01*
X49399496Y-52692690D01*
X49333609Y-52806809D01*
X49317778Y-52865892D01*
X49299500Y-52934108D01*
X30882222Y-52934108D01*
X30900500Y-52865892D01*
X30900500Y-52734108D01*
X30866392Y-52606814D01*
X30866390Y-52606811D01*
X30866390Y-52606809D01*
X30800503Y-52492690D01*
X30800501Y-52492688D01*
X30800500Y-52492686D01*
X30707314Y-52399500D01*
X30707311Y-52399498D01*
X30707309Y-52399496D01*
X30593189Y-52333609D01*
X30593191Y-52333609D01*
X30543799Y-52320375D01*
X30465892Y-52299500D01*
X30334108Y-52299500D01*
X30215077Y-52331394D01*
X30203123Y-52334597D01*
X30142021Y-52331394D01*
X30094471Y-52292889D01*
X30081874Y-52264596D01*
X30066392Y-52206814D01*
X30066390Y-52206811D01*
X30066390Y-52206809D01*
X30000503Y-52092690D01*
X30000501Y-52092688D01*
X30000500Y-52092686D01*
X29907314Y-51999500D01*
X29907311Y-51999498D01*
X29907309Y-51999496D01*
X29793189Y-51933609D01*
X29793191Y-51933609D01*
X29743799Y-51920375D01*
X29665892Y-51899500D01*
X29534108Y-51899500D01*
X29456200Y-51920375D01*
X29406809Y-51933609D01*
X29292690Y-51999496D01*
X29199496Y-52092690D01*
X29133609Y-52206809D01*
X29133608Y-52206814D01*
X29099500Y-52334108D01*
X28300000Y-52334108D01*
X28300000Y-51534108D01*
X42899500Y-51534108D01*
X42899500Y-51665892D01*
X42929579Y-51778151D01*
X42933609Y-51793190D01*
X42999496Y-51907309D01*
X42999498Y-51907311D01*
X42999500Y-51907314D01*
X43092686Y-52000500D01*
X43092688Y-52000501D01*
X43092690Y-52000503D01*
X43206810Y-52066390D01*
X43206808Y-52066390D01*
X43206812Y-52066391D01*
X43206814Y-52066392D01*
X43334108Y-52100500D01*
X43334110Y-52100500D01*
X43465890Y-52100500D01*
X43465892Y-52100500D01*
X43593186Y-52066392D01*
X43593188Y-52066390D01*
X43593190Y-52066390D01*
X43707309Y-52000503D01*
X43707309Y-52000502D01*
X43707314Y-52000500D01*
X43773706Y-51934108D01*
X50299500Y-51934108D01*
X50299500Y-52065892D01*
X50308773Y-52100500D01*
X50333609Y-52193190D01*
X50399496Y-52307309D01*
X50399498Y-52307311D01*
X50399500Y-52307314D01*
X50492686Y-52400500D01*
X50492688Y-52400501D01*
X50492690Y-52400503D01*
X50606810Y-52466390D01*
X50606808Y-52466390D01*
X50606812Y-52466391D01*
X50606814Y-52466392D01*
X50734108Y-52500500D01*
X50734110Y-52500500D01*
X50865890Y-52500500D01*
X50865892Y-52500500D01*
X50993186Y-52466392D01*
X50993188Y-52466390D01*
X50993190Y-52466390D01*
X51107309Y-52400503D01*
X51107309Y-52400502D01*
X51107314Y-52400500D01*
X51200500Y-52307314D01*
X51200503Y-52307309D01*
X51266390Y-52193190D01*
X51266390Y-52193188D01*
X51266392Y-52193186D01*
X51300500Y-52065892D01*
X51300500Y-51934108D01*
X69899500Y-51934108D01*
X69899500Y-52065892D01*
X69908773Y-52100500D01*
X69933609Y-52193190D01*
X69999496Y-52307309D01*
X69999498Y-52307311D01*
X69999500Y-52307314D01*
X70092686Y-52400500D01*
X70092688Y-52400501D01*
X70092690Y-52400503D01*
X70206810Y-52466390D01*
X70206808Y-52466390D01*
X70206812Y-52466391D01*
X70206814Y-52466392D01*
X70334108Y-52500500D01*
X70334110Y-52500500D01*
X70465890Y-52500500D01*
X70465892Y-52500500D01*
X70593186Y-52466392D01*
X70593188Y-52466390D01*
X70593190Y-52466390D01*
X70707309Y-52400503D01*
X70707309Y-52400502D01*
X70707314Y-52400500D01*
X70800500Y-52307314D01*
X70800503Y-52307309D01*
X70866390Y-52193190D01*
X70866390Y-52193188D01*
X70866392Y-52193186D01*
X70900500Y-52065892D01*
X70900500Y-51934108D01*
X70866392Y-51806814D01*
X70866390Y-51806811D01*
X70866390Y-51806809D01*
X70800503Y-51692690D01*
X70800501Y-51692688D01*
X70800500Y-51692686D01*
X70707314Y-51599500D01*
X70707311Y-51599498D01*
X70707309Y-51599496D01*
X70593189Y-51533609D01*
X70593191Y-51533609D01*
X70543799Y-51520375D01*
X70465892Y-51499500D01*
X70334108Y-51499500D01*
X70256200Y-51520375D01*
X70206809Y-51533609D01*
X70092690Y-51599496D01*
X69999496Y-51692690D01*
X69933609Y-51806809D01*
X69933608Y-51806814D01*
X69899500Y-51934108D01*
X51300500Y-51934108D01*
X51266392Y-51806814D01*
X51266390Y-51806811D01*
X51266390Y-51806809D01*
X51200503Y-51692690D01*
X51200501Y-51692688D01*
X51200500Y-51692686D01*
X51107314Y-51599500D01*
X51107311Y-51599498D01*
X51107309Y-51599496D01*
X50993189Y-51533609D01*
X50993191Y-51533609D01*
X50943799Y-51520375D01*
X50865892Y-51499500D01*
X50734108Y-51499500D01*
X50656200Y-51520375D01*
X50606809Y-51533609D01*
X50492690Y-51599496D01*
X50399496Y-51692690D01*
X50333609Y-51806809D01*
X50333608Y-51806814D01*
X50299500Y-51934108D01*
X43773706Y-51934108D01*
X43800500Y-51907314D01*
X43809504Y-51891717D01*
X43817357Y-51878118D01*
X43858524Y-51806814D01*
X43866392Y-51793186D01*
X43900500Y-51665892D01*
X43900500Y-51534108D01*
X43866392Y-51406814D01*
X43866390Y-51406811D01*
X43866390Y-51406809D01*
X43800503Y-51292690D01*
X43800501Y-51292688D01*
X43800500Y-51292686D01*
X43707314Y-51199500D01*
X43707311Y-51199498D01*
X43707309Y-51199496D01*
X43593189Y-51133609D01*
X43593191Y-51133609D01*
X43543799Y-51120375D01*
X43465892Y-51099500D01*
X43334108Y-51099500D01*
X43256200Y-51120375D01*
X43206809Y-51133609D01*
X43092690Y-51199496D01*
X42999496Y-51292690D01*
X42933609Y-51406809D01*
X42933608Y-51406814D01*
X42899500Y-51534108D01*
X28300000Y-51534108D01*
X28300000Y-50534108D01*
X30299500Y-50534108D01*
X30299500Y-50665892D01*
X30308773Y-50700500D01*
X30333609Y-50793190D01*
X30399496Y-50907309D01*
X30399498Y-50907311D01*
X30399500Y-50907314D01*
X30492686Y-51000500D01*
X30492688Y-51000501D01*
X30492690Y-51000503D01*
X30606810Y-51066390D01*
X30606808Y-51066390D01*
X30606812Y-51066391D01*
X30606814Y-51066392D01*
X30734108Y-51100500D01*
X30734110Y-51100500D01*
X30865890Y-51100500D01*
X30865892Y-51100500D01*
X30993186Y-51066392D01*
X30993188Y-51066390D01*
X30993190Y-51066390D01*
X31107309Y-51000503D01*
X31107309Y-51000502D01*
X31107314Y-51000500D01*
X31200500Y-50907314D01*
X31266392Y-50793186D01*
X31300500Y-50665892D01*
X31300500Y-50534108D01*
X31266392Y-50406814D01*
X31245447Y-50370536D01*
X31245446Y-50370533D01*
X31220615Y-50327525D01*
X32849500Y-50327525D01*
X32849500Y-50472475D01*
X32858834Y-50507309D01*
X32887017Y-50612489D01*
X32959487Y-50738010D01*
X32959489Y-50738012D01*
X32959491Y-50738015D01*
X33061985Y-50840509D01*
X33061987Y-50840510D01*
X33061989Y-50840512D01*
X33187511Y-50912982D01*
X33187512Y-50912982D01*
X33187515Y-50912984D01*
X33327525Y-50950500D01*
X33327526Y-50950500D01*
X33472474Y-50950500D01*
X33472475Y-50950500D01*
X33612485Y-50912984D01*
X33612487Y-50912982D01*
X33612489Y-50912982D01*
X33738010Y-50840512D01*
X33738010Y-50840511D01*
X33738015Y-50840509D01*
X33840509Y-50738015D01*
X33842765Y-50734108D01*
X46299500Y-50734108D01*
X46299500Y-50865892D01*
X46329579Y-50978151D01*
X46333609Y-50993190D01*
X46399496Y-51107309D01*
X46399498Y-51107311D01*
X46399500Y-51107314D01*
X46492686Y-51200500D01*
X46492688Y-51200501D01*
X46492690Y-51200503D01*
X46606810Y-51266390D01*
X46606808Y-51266390D01*
X46606812Y-51266391D01*
X46606814Y-51266392D01*
X46734108Y-51300500D01*
X46734110Y-51300500D01*
X46865890Y-51300500D01*
X46865892Y-51300500D01*
X46993186Y-51266392D01*
X46993188Y-51266390D01*
X46993190Y-51266390D01*
X47107309Y-51200503D01*
X47107309Y-51200502D01*
X47107314Y-51200500D01*
X47200500Y-51107314D01*
X47214264Y-51083474D01*
X47259733Y-51042534D01*
X47320583Y-51036138D01*
X47373571Y-51066731D01*
X47385734Y-51083471D01*
X47399500Y-51107314D01*
X47492686Y-51200500D01*
X47492688Y-51200501D01*
X47492690Y-51200503D01*
X47606810Y-51266390D01*
X47606808Y-51266390D01*
X47606812Y-51266391D01*
X47606814Y-51266392D01*
X47734108Y-51300500D01*
X47734110Y-51300500D01*
X47865890Y-51300500D01*
X47865892Y-51300500D01*
X47993186Y-51266392D01*
X47993188Y-51266390D01*
X47993190Y-51266390D01*
X48107309Y-51200503D01*
X48107309Y-51200502D01*
X48107314Y-51200500D01*
X48200500Y-51107314D01*
X48214264Y-51083474D01*
X48259733Y-51042534D01*
X48320583Y-51036138D01*
X48373571Y-51066731D01*
X48385734Y-51083471D01*
X48399500Y-51107314D01*
X48492686Y-51200500D01*
X48492688Y-51200501D01*
X48492690Y-51200503D01*
X48606810Y-51266390D01*
X48606808Y-51266390D01*
X48606812Y-51266391D01*
X48606814Y-51266392D01*
X48734108Y-51300500D01*
X48734110Y-51300500D01*
X48865890Y-51300500D01*
X48865892Y-51300500D01*
X48993186Y-51266392D01*
X48993188Y-51266390D01*
X48993190Y-51266390D01*
X49107309Y-51200503D01*
X49107309Y-51200502D01*
X49107314Y-51200500D01*
X49200500Y-51107314D01*
X49204434Y-51100500D01*
X49266390Y-50993190D01*
X49266390Y-50993188D01*
X49266392Y-50993186D01*
X49300500Y-50865892D01*
X49300500Y-50734108D01*
X49266392Y-50606814D01*
X49266390Y-50606811D01*
X49266390Y-50606809D01*
X49200503Y-50492690D01*
X49200501Y-50492688D01*
X49200500Y-50492686D01*
X49107314Y-50399500D01*
X49107311Y-50399498D01*
X49107309Y-50399496D01*
X48993189Y-50333609D01*
X48993191Y-50333609D01*
X48943799Y-50320375D01*
X48865892Y-50299500D01*
X48734108Y-50299500D01*
X48656200Y-50320375D01*
X48606809Y-50333609D01*
X48492690Y-50399496D01*
X48399498Y-50492688D01*
X48385736Y-50516525D01*
X48340266Y-50557465D01*
X48279416Y-50563860D01*
X48226428Y-50533267D01*
X48214264Y-50516525D01*
X48200501Y-50492688D01*
X48200500Y-50492686D01*
X48107314Y-50399500D01*
X48107311Y-50399498D01*
X48107309Y-50399496D01*
X47993189Y-50333609D01*
X47993191Y-50333609D01*
X47943799Y-50320375D01*
X47865892Y-50299500D01*
X47734108Y-50299500D01*
X47656200Y-50320375D01*
X47606809Y-50333609D01*
X47492690Y-50399496D01*
X47399498Y-50492688D01*
X47385736Y-50516525D01*
X47340266Y-50557465D01*
X47279416Y-50563860D01*
X47226428Y-50533267D01*
X47214264Y-50516525D01*
X47200501Y-50492688D01*
X47200500Y-50492686D01*
X47107314Y-50399500D01*
X47107311Y-50399498D01*
X47107309Y-50399496D01*
X46993189Y-50333609D01*
X46993191Y-50333609D01*
X46943799Y-50320375D01*
X46865892Y-50299500D01*
X46734108Y-50299500D01*
X46656200Y-50320375D01*
X46606809Y-50333609D01*
X46492690Y-50399496D01*
X46399496Y-50492690D01*
X46333609Y-50606809D01*
X46333608Y-50606814D01*
X46299500Y-50734108D01*
X33842765Y-50734108D01*
X33843843Y-50732241D01*
X33875091Y-50678119D01*
X33912982Y-50612489D01*
X33912982Y-50612487D01*
X33912984Y-50612485D01*
X33950500Y-50472475D01*
X33950500Y-50327525D01*
X33912984Y-50187515D01*
X33912982Y-50187512D01*
X33912982Y-50187510D01*
X33840512Y-50061989D01*
X33840510Y-50061987D01*
X33840509Y-50061985D01*
X33738015Y-49959491D01*
X33738012Y-49959489D01*
X33738010Y-49959487D01*
X33612488Y-49887017D01*
X33612489Y-49887017D01*
X33535516Y-49866392D01*
X33472475Y-49849500D01*
X33327525Y-49849500D01*
X33265790Y-49866041D01*
X33187510Y-49887017D01*
X33061989Y-49959487D01*
X32959487Y-50061989D01*
X32887017Y-50187510D01*
X32866015Y-50265890D01*
X32849500Y-50327525D01*
X31220615Y-50327525D01*
X31200503Y-50292690D01*
X31200501Y-50292688D01*
X31200500Y-50292686D01*
X31107314Y-50199500D01*
X31107311Y-50199498D01*
X31107309Y-50199496D01*
X30993189Y-50133609D01*
X30993191Y-50133609D01*
X30943799Y-50120375D01*
X30865892Y-50099500D01*
X30734108Y-50099500D01*
X30656200Y-50120375D01*
X30606809Y-50133609D01*
X30492690Y-50199496D01*
X30399496Y-50292690D01*
X30333609Y-50406809D01*
X30333608Y-50406814D01*
X30299500Y-50534108D01*
X28300000Y-50534108D01*
X28300000Y-49534108D01*
X47499500Y-49534108D01*
X47499500Y-49665892D01*
X47508773Y-49700500D01*
X47533609Y-49793190D01*
X47599496Y-49907309D01*
X47599498Y-49907311D01*
X47599500Y-49907314D01*
X47692686Y-50000500D01*
X47692688Y-50000501D01*
X47692690Y-50000503D01*
X47806810Y-50066390D01*
X47806808Y-50066390D01*
X47806812Y-50066391D01*
X47806814Y-50066392D01*
X47934108Y-50100500D01*
X47934110Y-50100500D01*
X48065890Y-50100500D01*
X48065892Y-50100500D01*
X48193186Y-50066392D01*
X48193188Y-50066390D01*
X48193190Y-50066390D01*
X48307309Y-50000503D01*
X48307309Y-50000502D01*
X48307314Y-50000500D01*
X48400500Y-49907314D01*
X48412219Y-49887016D01*
X48466390Y-49793190D01*
X48466391Y-49793187D01*
X48466392Y-49793186D01*
X48500500Y-49665892D01*
X48500500Y-49534108D01*
X49699500Y-49534108D01*
X49699500Y-49665892D01*
X49708773Y-49700500D01*
X49733609Y-49793190D01*
X49799496Y-49907309D01*
X49799498Y-49907311D01*
X49799500Y-49907314D01*
X49892686Y-50000500D01*
X49892688Y-50000501D01*
X49892690Y-50000503D01*
X50006810Y-50066390D01*
X50006808Y-50066390D01*
X50006812Y-50066391D01*
X50006814Y-50066392D01*
X50134108Y-50100500D01*
X50134110Y-50100500D01*
X50265890Y-50100500D01*
X50265892Y-50100500D01*
X50393186Y-50066392D01*
X50393188Y-50066390D01*
X50393190Y-50066390D01*
X50507309Y-50000503D01*
X50507309Y-50000502D01*
X50507314Y-50000500D01*
X50573706Y-49934108D01*
X52299500Y-49934108D01*
X52299500Y-50065892D01*
X52308773Y-50100500D01*
X52333609Y-50193190D01*
X52399496Y-50307309D01*
X52399498Y-50307311D01*
X52399500Y-50307314D01*
X52492686Y-50400500D01*
X52492688Y-50400501D01*
X52492690Y-50400503D01*
X52606810Y-50466390D01*
X52606808Y-50466390D01*
X52606812Y-50466391D01*
X52606814Y-50466392D01*
X52734108Y-50500500D01*
X52734110Y-50500500D01*
X52865890Y-50500500D01*
X52865892Y-50500500D01*
X52993186Y-50466392D01*
X52993188Y-50466390D01*
X52993190Y-50466390D01*
X53107309Y-50400503D01*
X53107309Y-50400502D01*
X53107314Y-50400500D01*
X53200500Y-50307314D01*
X53200503Y-50307309D01*
X53266390Y-50193190D01*
X53266390Y-50193188D01*
X53266392Y-50193186D01*
X53282222Y-50134108D01*
X67499500Y-50134108D01*
X67499500Y-50265892D01*
X67517644Y-50333608D01*
X67533609Y-50393190D01*
X67599496Y-50507309D01*
X67599498Y-50507311D01*
X67599500Y-50507314D01*
X67692686Y-50600500D01*
X67692688Y-50600501D01*
X67692690Y-50600503D01*
X67806810Y-50666390D01*
X67806808Y-50666390D01*
X67806812Y-50666391D01*
X67806814Y-50666392D01*
X67934108Y-50700500D01*
X67934110Y-50700500D01*
X68065890Y-50700500D01*
X68065892Y-50700500D01*
X68193186Y-50666392D01*
X68193188Y-50666390D01*
X68193190Y-50666390D01*
X68307309Y-50600503D01*
X68307309Y-50600502D01*
X68307314Y-50600500D01*
X68400500Y-50507314D01*
X68408946Y-50492686D01*
X68466390Y-50393190D01*
X68466390Y-50393188D01*
X68466392Y-50393186D01*
X68500500Y-50265892D01*
X68500500Y-50134108D01*
X68466392Y-50006814D01*
X68466390Y-50006811D01*
X68466390Y-50006809D01*
X68400503Y-49892690D01*
X68400501Y-49892688D01*
X68400500Y-49892686D01*
X68307314Y-49799500D01*
X68307311Y-49799498D01*
X68307309Y-49799496D01*
X68193189Y-49733609D01*
X68193191Y-49733609D01*
X68143799Y-49720375D01*
X68065892Y-49699500D01*
X67934108Y-49699500D01*
X67856200Y-49720375D01*
X67806809Y-49733609D01*
X67692690Y-49799496D01*
X67599496Y-49892690D01*
X67533609Y-50006809D01*
X67517778Y-50065892D01*
X67499500Y-50134108D01*
X53282222Y-50134108D01*
X53300500Y-50065892D01*
X53300500Y-49934108D01*
X53266392Y-49806814D01*
X53266390Y-49806811D01*
X53266390Y-49806809D01*
X53200503Y-49692690D01*
X53200501Y-49692688D01*
X53200500Y-49692686D01*
X53107314Y-49599500D01*
X53107311Y-49599498D01*
X53107309Y-49599496D01*
X52993189Y-49533609D01*
X52993191Y-49533609D01*
X52943799Y-49520375D01*
X52865892Y-49499500D01*
X52734108Y-49499500D01*
X52656200Y-49520375D01*
X52606809Y-49533609D01*
X52492690Y-49599496D01*
X52399496Y-49692690D01*
X52333609Y-49806809D01*
X52333608Y-49806814D01*
X52299500Y-49934108D01*
X50573706Y-49934108D01*
X50600500Y-49907314D01*
X50612219Y-49887016D01*
X50617357Y-49878118D01*
X50658524Y-49806814D01*
X50666392Y-49793186D01*
X50700500Y-49665892D01*
X50700500Y-49534108D01*
X50666392Y-49406814D01*
X50666390Y-49406811D01*
X50666390Y-49406809D01*
X50624416Y-49334108D01*
X66499500Y-49334108D01*
X66499500Y-49465892D01*
X66510598Y-49507309D01*
X66533609Y-49593190D01*
X66599496Y-49707309D01*
X66599498Y-49707311D01*
X66599500Y-49707314D01*
X66692686Y-49800500D01*
X66692688Y-49800501D01*
X66692690Y-49800503D01*
X66806810Y-49866390D01*
X66806808Y-49866390D01*
X66806812Y-49866391D01*
X66806814Y-49866392D01*
X66934108Y-49900500D01*
X66934110Y-49900500D01*
X67065890Y-49900500D01*
X67065892Y-49900500D01*
X67193186Y-49866392D01*
X67193188Y-49866390D01*
X67193190Y-49866390D01*
X67307309Y-49800503D01*
X67307309Y-49800502D01*
X67307314Y-49800500D01*
X67400500Y-49707314D01*
X67404434Y-49700500D01*
X67466390Y-49593190D01*
X67466390Y-49593188D01*
X67466392Y-49593186D01*
X67500500Y-49465892D01*
X67500500Y-49334108D01*
X67466392Y-49206814D01*
X67424415Y-49134108D01*
X68299500Y-49134108D01*
X68299500Y-49265892D01*
X68308773Y-49300500D01*
X68333609Y-49393190D01*
X68399496Y-49507309D01*
X68399498Y-49507311D01*
X68399500Y-49507314D01*
X68492686Y-49600500D01*
X68492688Y-49600501D01*
X68492690Y-49600503D01*
X68606810Y-49666390D01*
X68606808Y-49666390D01*
X68606812Y-49666391D01*
X68606814Y-49666392D01*
X68734108Y-49700500D01*
X68734110Y-49700500D01*
X68865890Y-49700500D01*
X68865892Y-49700500D01*
X68993186Y-49666392D01*
X68993188Y-49666390D01*
X68993190Y-49666390D01*
X69107309Y-49600503D01*
X69107309Y-49600502D01*
X69107314Y-49600500D01*
X69200500Y-49507314D01*
X69200503Y-49507309D01*
X69266390Y-49393190D01*
X69266390Y-49393188D01*
X69266392Y-49393186D01*
X69300500Y-49265892D01*
X69300500Y-49134108D01*
X69266392Y-49006814D01*
X69266390Y-49006811D01*
X69266390Y-49006809D01*
X69200503Y-48892690D01*
X69200501Y-48892688D01*
X69200500Y-48892686D01*
X69107314Y-48799500D01*
X69107311Y-48799498D01*
X69107309Y-48799496D01*
X68993189Y-48733609D01*
X68993191Y-48733609D01*
X68943799Y-48720375D01*
X68865892Y-48699500D01*
X68734108Y-48699500D01*
X68656200Y-48720375D01*
X68606809Y-48733609D01*
X68492690Y-48799496D01*
X68399496Y-48892690D01*
X68333609Y-49006809D01*
X68333608Y-49006814D01*
X68299500Y-49134108D01*
X67424415Y-49134108D01*
X67400500Y-49092686D01*
X67307314Y-48999500D01*
X67307311Y-48999498D01*
X67307309Y-48999496D01*
X67193189Y-48933609D01*
X67193191Y-48933609D01*
X67143799Y-48920375D01*
X67065892Y-48899500D01*
X66934108Y-48899500D01*
X66856200Y-48920375D01*
X66806809Y-48933609D01*
X66692690Y-48999496D01*
X66599496Y-49092690D01*
X66533609Y-49206809D01*
X66533608Y-49206814D01*
X66499500Y-49334108D01*
X50624416Y-49334108D01*
X50600503Y-49292690D01*
X50600501Y-49292688D01*
X50600500Y-49292686D01*
X50507314Y-49199500D01*
X50507311Y-49199498D01*
X50507309Y-49199496D01*
X50393189Y-49133609D01*
X50393191Y-49133609D01*
X50343799Y-49120375D01*
X50265892Y-49099500D01*
X50134108Y-49099500D01*
X50056200Y-49120375D01*
X50006809Y-49133609D01*
X49892690Y-49199496D01*
X49799496Y-49292690D01*
X49733609Y-49406809D01*
X49733608Y-49406814D01*
X49699500Y-49534108D01*
X48500500Y-49534108D01*
X48466392Y-49406814D01*
X48466390Y-49406811D01*
X48466390Y-49406809D01*
X48400503Y-49292690D01*
X48400501Y-49292688D01*
X48400500Y-49292686D01*
X48307314Y-49199500D01*
X48307311Y-49199498D01*
X48307309Y-49199496D01*
X48193189Y-49133609D01*
X48193191Y-49133609D01*
X48143799Y-49120375D01*
X48065892Y-49099500D01*
X47934108Y-49099500D01*
X47856200Y-49120375D01*
X47806809Y-49133609D01*
X47692690Y-49199496D01*
X47599496Y-49292690D01*
X47533609Y-49406809D01*
X47533608Y-49406814D01*
X47499500Y-49534108D01*
X28300000Y-49534108D01*
X28300000Y-48334108D01*
X50899500Y-48334108D01*
X50899500Y-48465892D01*
X50929579Y-48578151D01*
X50933609Y-48593190D01*
X50999496Y-48707309D01*
X50999498Y-48707311D01*
X50999500Y-48707314D01*
X51092686Y-48800500D01*
X51092688Y-48800501D01*
X51092690Y-48800503D01*
X51206810Y-48866390D01*
X51206808Y-48866390D01*
X51206812Y-48866391D01*
X51206814Y-48866392D01*
X51334108Y-48900500D01*
X51334110Y-48900500D01*
X51465890Y-48900500D01*
X51465892Y-48900500D01*
X51593186Y-48866392D01*
X51593188Y-48866390D01*
X51593190Y-48866390D01*
X51707309Y-48800503D01*
X51707309Y-48800502D01*
X51707314Y-48800500D01*
X51773706Y-48734108D01*
X64899500Y-48734108D01*
X64899500Y-48865892D01*
X64908773Y-48900500D01*
X64933609Y-48993190D01*
X64999496Y-49107309D01*
X64999498Y-49107311D01*
X64999500Y-49107314D01*
X65092686Y-49200500D01*
X65092688Y-49200501D01*
X65092690Y-49200503D01*
X65206810Y-49266390D01*
X65206808Y-49266390D01*
X65206812Y-49266391D01*
X65206814Y-49266392D01*
X65334108Y-49300500D01*
X65334110Y-49300500D01*
X65465890Y-49300500D01*
X65465892Y-49300500D01*
X65593186Y-49266392D01*
X65593188Y-49266390D01*
X65593190Y-49266390D01*
X65635638Y-49241883D01*
X65707309Y-49200503D01*
X65707309Y-49200502D01*
X65707314Y-49200500D01*
X65800500Y-49107314D01*
X65800503Y-49107309D01*
X65866390Y-48993190D01*
X65866390Y-48993188D01*
X65866392Y-48993186D01*
X65900500Y-48865892D01*
X65900500Y-48734108D01*
X65866392Y-48606814D01*
X65866390Y-48606811D01*
X65866390Y-48606809D01*
X65800503Y-48492690D01*
X65800501Y-48492688D01*
X65800500Y-48492686D01*
X65707314Y-48399500D01*
X65707311Y-48399498D01*
X65707309Y-48399496D01*
X65593189Y-48333609D01*
X65593191Y-48333609D01*
X65543799Y-48320375D01*
X65465892Y-48299500D01*
X65334108Y-48299500D01*
X65256200Y-48320375D01*
X65206809Y-48333609D01*
X65092690Y-48399496D01*
X64999496Y-48492690D01*
X64933609Y-48606809D01*
X64933608Y-48606814D01*
X64899500Y-48734108D01*
X51773706Y-48734108D01*
X51800500Y-48707314D01*
X51809504Y-48691717D01*
X51817357Y-48678118D01*
X51858524Y-48606814D01*
X51866392Y-48593186D01*
X51900500Y-48465892D01*
X51900500Y-48334108D01*
X51866392Y-48206814D01*
X51866390Y-48206811D01*
X51866390Y-48206809D01*
X51800503Y-48092690D01*
X51800501Y-48092688D01*
X51800500Y-48092686D01*
X51707314Y-47999500D01*
X51707311Y-47999498D01*
X51707309Y-47999496D01*
X51593189Y-47933609D01*
X51593191Y-47933609D01*
X51543799Y-47920375D01*
X51465892Y-47899500D01*
X51334108Y-47899500D01*
X51256200Y-47920375D01*
X51206809Y-47933609D01*
X51092690Y-47999496D01*
X50999496Y-48092690D01*
X50933609Y-48206809D01*
X50933608Y-48206814D01*
X50899500Y-48334108D01*
X28300000Y-48334108D01*
X28300000Y-47040691D01*
X56749500Y-47040691D01*
X56749500Y-47159309D01*
X56770989Y-47239507D01*
X56780202Y-47273890D01*
X56839507Y-47376608D01*
X56839509Y-47376610D01*
X56839511Y-47376613D01*
X56923387Y-47460489D01*
X56923389Y-47460490D01*
X56923391Y-47460492D01*
X57026110Y-47519797D01*
X57026111Y-47519797D01*
X57026114Y-47519799D01*
X57140691Y-47550500D01*
X57150500Y-47550500D01*
X57208691Y-47569407D01*
X57244655Y-47618907D01*
X57249500Y-47649500D01*
X57249500Y-47659309D01*
X57276574Y-47760351D01*
X57280202Y-47773890D01*
X57339507Y-47876608D01*
X57339509Y-47876610D01*
X57339511Y-47876613D01*
X57423387Y-47960489D01*
X57423389Y-47960490D01*
X57423391Y-47960492D01*
X57526110Y-48019797D01*
X57526111Y-48019797D01*
X57526114Y-48019799D01*
X57640691Y-48050500D01*
X57640693Y-48050500D01*
X57759307Y-48050500D01*
X57759309Y-48050500D01*
X57873886Y-48019799D01*
X57873888Y-48019797D01*
X57873890Y-48019797D01*
X57976608Y-47960492D01*
X57976608Y-47960491D01*
X57976613Y-47960489D01*
X58060489Y-47876613D01*
X58119799Y-47773886D01*
X58150500Y-47659309D01*
X58150500Y-47540691D01*
X58119799Y-47426114D01*
X58119797Y-47426111D01*
X58119797Y-47426109D01*
X58060492Y-47323391D01*
X58060490Y-47323389D01*
X58060489Y-47323387D01*
X57976613Y-47239511D01*
X57976610Y-47239509D01*
X57976608Y-47239507D01*
X57873889Y-47180202D01*
X57873890Y-47180202D01*
X57860351Y-47176574D01*
X57759309Y-47149500D01*
X57759307Y-47149500D01*
X57749500Y-47149500D01*
X57691309Y-47130593D01*
X57655345Y-47081093D01*
X57650500Y-47050500D01*
X57650500Y-47040692D01*
X57650500Y-47040691D01*
X57619799Y-46926114D01*
X57619797Y-46926111D01*
X57619797Y-46926109D01*
X57560492Y-46823391D01*
X57560490Y-46823389D01*
X57560489Y-46823387D01*
X57476613Y-46739511D01*
X57476610Y-46739509D01*
X57476608Y-46739507D01*
X57373889Y-46680202D01*
X57373890Y-46680202D01*
X57322350Y-46666392D01*
X57259309Y-46649500D01*
X57140691Y-46649500D01*
X57077657Y-46666390D01*
X57026109Y-46680202D01*
X56923391Y-46739507D01*
X56839507Y-46823391D01*
X56780202Y-46926109D01*
X56780201Y-46926114D01*
X56749500Y-47040691D01*
X28300000Y-47040691D01*
X28300000Y-45334108D01*
X33499500Y-45334108D01*
X33499500Y-45465892D01*
X33509174Y-45501995D01*
X33533609Y-45593190D01*
X33599496Y-45707309D01*
X33599498Y-45707311D01*
X33599500Y-45707314D01*
X33692686Y-45800500D01*
X33692688Y-45800501D01*
X33692690Y-45800503D01*
X33806810Y-45866390D01*
X33806808Y-45866390D01*
X33806812Y-45866391D01*
X33806814Y-45866392D01*
X33934108Y-45900500D01*
X33934110Y-45900500D01*
X34065890Y-45900500D01*
X34065892Y-45900500D01*
X34193186Y-45866392D01*
X34193188Y-45866390D01*
X34193190Y-45866390D01*
X34307309Y-45800503D01*
X34307309Y-45800502D01*
X34307314Y-45800500D01*
X34400500Y-45707314D01*
X34400503Y-45707309D01*
X34466390Y-45593190D01*
X34466390Y-45593188D01*
X34466392Y-45593186D01*
X34482222Y-45534108D01*
X38499500Y-45534108D01*
X38499500Y-45665892D01*
X38510598Y-45707309D01*
X38533609Y-45793190D01*
X38599496Y-45907309D01*
X38599498Y-45907311D01*
X38599500Y-45907314D01*
X38692686Y-46000500D01*
X38692688Y-46000501D01*
X38692690Y-46000503D01*
X38806810Y-46066390D01*
X38806808Y-46066390D01*
X38806812Y-46066391D01*
X38806814Y-46066392D01*
X38934108Y-46100500D01*
X38934110Y-46100500D01*
X39065890Y-46100500D01*
X39065892Y-46100500D01*
X39193186Y-46066392D01*
X39193188Y-46066390D01*
X39193190Y-46066390D01*
X39307309Y-46000503D01*
X39307309Y-46000502D01*
X39307314Y-46000500D01*
X39400500Y-45907314D01*
X39408946Y-45892686D01*
X39466390Y-45793190D01*
X39466390Y-45793188D01*
X39466392Y-45793186D01*
X39500500Y-45665892D01*
X39500500Y-45534108D01*
X54499500Y-45534108D01*
X54499500Y-45665892D01*
X54510598Y-45707309D01*
X54533609Y-45793190D01*
X54599496Y-45907309D01*
X54599498Y-45907311D01*
X54599500Y-45907314D01*
X54692686Y-46000500D01*
X54692688Y-46000501D01*
X54692690Y-46000503D01*
X54806810Y-46066390D01*
X54806808Y-46066390D01*
X54806812Y-46066391D01*
X54806814Y-46066392D01*
X54934108Y-46100500D01*
X54934110Y-46100500D01*
X55065890Y-46100500D01*
X55065892Y-46100500D01*
X55193186Y-46066392D01*
X55193188Y-46066390D01*
X55193190Y-46066390D01*
X55307309Y-46000503D01*
X55307309Y-46000502D01*
X55307314Y-46000500D01*
X55400500Y-45907314D01*
X55408946Y-45892686D01*
X55466390Y-45793190D01*
X55466390Y-45793188D01*
X55466392Y-45793186D01*
X55500500Y-45665892D01*
X55500500Y-45534108D01*
X55466392Y-45406814D01*
X55466390Y-45406811D01*
X55466390Y-45406809D01*
X55400503Y-45292690D01*
X55400501Y-45292688D01*
X55400500Y-45292686D01*
X55307314Y-45199500D01*
X55307311Y-45199498D01*
X55307309Y-45199496D01*
X55193189Y-45133609D01*
X55193191Y-45133609D01*
X55143799Y-45120375D01*
X55065892Y-45099500D01*
X54934108Y-45099500D01*
X54856200Y-45120375D01*
X54806809Y-45133609D01*
X54692690Y-45199496D01*
X54599496Y-45292690D01*
X54533609Y-45406809D01*
X54517778Y-45465892D01*
X54499500Y-45534108D01*
X39500500Y-45534108D01*
X39466392Y-45406814D01*
X39466390Y-45406811D01*
X39466390Y-45406809D01*
X39400503Y-45292690D01*
X39400501Y-45292688D01*
X39400500Y-45292686D01*
X39307314Y-45199500D01*
X39307311Y-45199498D01*
X39307309Y-45199496D01*
X39193189Y-45133609D01*
X39193191Y-45133609D01*
X39143799Y-45120375D01*
X39065892Y-45099500D01*
X38934108Y-45099500D01*
X38856200Y-45120375D01*
X38806809Y-45133609D01*
X38692690Y-45199496D01*
X38599496Y-45292690D01*
X38533609Y-45406809D01*
X38517778Y-45465892D01*
X38499500Y-45534108D01*
X34482222Y-45534108D01*
X34500500Y-45465892D01*
X34500500Y-45334108D01*
X34466392Y-45206814D01*
X34466390Y-45206811D01*
X34466390Y-45206809D01*
X34400503Y-45092690D01*
X34400501Y-45092688D01*
X34400500Y-45092686D01*
X34307314Y-44999500D01*
X34307311Y-44999498D01*
X34307309Y-44999496D01*
X34193189Y-44933609D01*
X34193191Y-44933609D01*
X34143799Y-44920375D01*
X34065892Y-44899500D01*
X33934108Y-44899500D01*
X33856200Y-44920375D01*
X33806809Y-44933609D01*
X33692690Y-44999496D01*
X33599496Y-45092690D01*
X33533609Y-45206809D01*
X33533608Y-45206814D01*
X33499500Y-45334108D01*
X28300000Y-45334108D01*
X28300000Y-44334108D01*
X39699500Y-44334108D01*
X39699500Y-44465892D01*
X39729579Y-44578151D01*
X39733609Y-44593190D01*
X39799496Y-44707309D01*
X39799498Y-44707311D01*
X39799500Y-44707314D01*
X39892686Y-44800500D01*
X39892688Y-44800501D01*
X39892690Y-44800503D01*
X40006810Y-44866390D01*
X40006808Y-44866390D01*
X40006812Y-44866391D01*
X40006814Y-44866392D01*
X40134108Y-44900500D01*
X40134110Y-44900500D01*
X40265890Y-44900500D01*
X40265892Y-44900500D01*
X40393186Y-44866392D01*
X40393188Y-44866390D01*
X40393190Y-44866390D01*
X40507309Y-44800503D01*
X40507309Y-44800502D01*
X40507314Y-44800500D01*
X40600500Y-44707314D01*
X40666392Y-44593186D01*
X40700500Y-44465892D01*
X40700500Y-44334108D01*
X51699500Y-44334108D01*
X51699500Y-44465892D01*
X51729579Y-44578151D01*
X51733609Y-44593190D01*
X51799496Y-44707309D01*
X51799498Y-44707311D01*
X51799500Y-44707314D01*
X51892686Y-44800500D01*
X51892688Y-44800501D01*
X51892690Y-44800503D01*
X52006810Y-44866390D01*
X52006808Y-44866390D01*
X52006812Y-44866391D01*
X52006814Y-44866392D01*
X52134108Y-44900500D01*
X52134110Y-44900500D01*
X52265890Y-44900500D01*
X52265892Y-44900500D01*
X52393186Y-44866392D01*
X52393188Y-44866390D01*
X52393190Y-44866390D01*
X52507309Y-44800503D01*
X52507309Y-44800502D01*
X52507314Y-44800500D01*
X52600500Y-44707314D01*
X52666392Y-44593186D01*
X52700500Y-44465892D01*
X52700500Y-44334108D01*
X52666392Y-44206814D01*
X52666390Y-44206811D01*
X52666390Y-44206809D01*
X52600503Y-44092690D01*
X52600501Y-44092688D01*
X52600500Y-44092686D01*
X52507314Y-43999500D01*
X52507311Y-43999498D01*
X52507309Y-43999496D01*
X52393189Y-43933609D01*
X52393191Y-43933609D01*
X52343799Y-43920375D01*
X52265892Y-43899500D01*
X52134108Y-43899500D01*
X52056200Y-43920375D01*
X52006809Y-43933609D01*
X51892690Y-43999496D01*
X51799496Y-44092690D01*
X51733609Y-44206809D01*
X51733608Y-44206814D01*
X51699500Y-44334108D01*
X40700500Y-44334108D01*
X40666392Y-44206814D01*
X40666390Y-44206811D01*
X40666390Y-44206809D01*
X40600503Y-44092690D01*
X40600501Y-44092688D01*
X40600500Y-44092686D01*
X40507314Y-43999500D01*
X40507311Y-43999498D01*
X40507309Y-43999496D01*
X40393189Y-43933609D01*
X40393191Y-43933609D01*
X40343799Y-43920375D01*
X40265892Y-43899500D01*
X40134108Y-43899500D01*
X40056200Y-43920375D01*
X40006809Y-43933609D01*
X39892690Y-43999496D01*
X39799496Y-44092690D01*
X39733609Y-44206809D01*
X39733608Y-44206814D01*
X39699500Y-44334108D01*
X28300000Y-44334108D01*
X28300000Y-43734108D01*
X72099500Y-43734108D01*
X72099500Y-43865892D01*
X72117644Y-43933608D01*
X72133609Y-43993190D01*
X72199496Y-44107309D01*
X72199498Y-44107311D01*
X72199500Y-44107314D01*
X72292686Y-44200500D01*
X72292688Y-44200501D01*
X72292690Y-44200503D01*
X72406810Y-44266390D01*
X72406808Y-44266390D01*
X72406812Y-44266391D01*
X72406814Y-44266392D01*
X72534108Y-44300500D01*
X72534110Y-44300500D01*
X72665890Y-44300500D01*
X72665892Y-44300500D01*
X72793186Y-44266392D01*
X72793188Y-44266390D01*
X72793190Y-44266390D01*
X72907309Y-44200503D01*
X72907309Y-44200502D01*
X72907314Y-44200500D01*
X73000500Y-44107314D01*
X73066392Y-43993186D01*
X73100500Y-43865892D01*
X73100500Y-43734108D01*
X73066392Y-43606814D01*
X73066390Y-43606811D01*
X73066390Y-43606809D01*
X73000503Y-43492690D01*
X73000501Y-43492688D01*
X73000500Y-43492686D01*
X72907314Y-43399500D01*
X72907311Y-43399498D01*
X72907309Y-43399496D01*
X72793189Y-43333609D01*
X72793191Y-43333609D01*
X72743799Y-43320375D01*
X72665892Y-43299500D01*
X72534108Y-43299500D01*
X72456200Y-43320375D01*
X72406809Y-43333609D01*
X72292690Y-43399496D01*
X72199496Y-43492690D01*
X72133609Y-43606809D01*
X72133608Y-43606814D01*
X72099500Y-43734108D01*
X28300000Y-43734108D01*
X28300000Y-38334108D01*
X55899500Y-38334108D01*
X55899500Y-38465892D01*
X55929579Y-38578151D01*
X55933609Y-38593190D01*
X55999496Y-38707309D01*
X55999498Y-38707311D01*
X55999500Y-38707314D01*
X56092686Y-38800500D01*
X56092688Y-38800501D01*
X56092690Y-38800503D01*
X56206810Y-38866390D01*
X56206808Y-38866390D01*
X56206812Y-38866391D01*
X56206814Y-38866392D01*
X56334108Y-38900500D01*
X56334110Y-38900500D01*
X56465890Y-38900500D01*
X56465892Y-38900500D01*
X56593186Y-38866392D01*
X56593188Y-38866390D01*
X56593190Y-38866390D01*
X56707309Y-38800503D01*
X56707309Y-38800502D01*
X56707314Y-38800500D01*
X56780289Y-38727525D01*
X59249500Y-38727525D01*
X59249500Y-38872475D01*
X59279087Y-38982896D01*
X59287017Y-39012489D01*
X59359487Y-39138010D01*
X59359489Y-39138012D01*
X59359491Y-39138015D01*
X59461985Y-39240509D01*
X59461987Y-39240510D01*
X59461989Y-39240512D01*
X59587511Y-39312982D01*
X59587512Y-39312982D01*
X59587515Y-39312984D01*
X59727525Y-39350500D01*
X59727526Y-39350500D01*
X59872474Y-39350500D01*
X59872475Y-39350500D01*
X60012485Y-39312984D01*
X60012487Y-39312982D01*
X60012489Y-39312982D01*
X60138010Y-39240512D01*
X60138010Y-39240511D01*
X60138015Y-39240509D01*
X60240509Y-39138015D01*
X60312984Y-39012485D01*
X60350500Y-38872475D01*
X60350500Y-38727525D01*
X60312984Y-38587515D01*
X60312982Y-38587512D01*
X60312982Y-38587510D01*
X60240512Y-38461989D01*
X60240510Y-38461987D01*
X60240509Y-38461985D01*
X60138015Y-38359491D01*
X60138012Y-38359489D01*
X60138010Y-38359487D01*
X60012488Y-38287017D01*
X60012489Y-38287017D01*
X59982896Y-38279087D01*
X59872475Y-38249500D01*
X59727525Y-38249500D01*
X59665790Y-38266041D01*
X59587510Y-38287017D01*
X59461989Y-38359487D01*
X59359487Y-38461989D01*
X59287017Y-38587510D01*
X59287016Y-38587515D01*
X59249500Y-38727525D01*
X56780289Y-38727525D01*
X56800500Y-38707314D01*
X56866392Y-38593186D01*
X56900500Y-38465892D01*
X56900500Y-38334108D01*
X56866392Y-38206814D01*
X56866390Y-38206811D01*
X56866390Y-38206809D01*
X56800503Y-38092690D01*
X56800501Y-38092688D01*
X56800500Y-38092686D01*
X56707314Y-37999500D01*
X56707311Y-37999498D01*
X56707309Y-37999496D01*
X56593189Y-37933609D01*
X56593191Y-37933609D01*
X56543799Y-37920375D01*
X56465892Y-37899500D01*
X56334108Y-37899500D01*
X56256200Y-37920375D01*
X56206809Y-37933609D01*
X56092690Y-37999496D01*
X55999496Y-38092690D01*
X55933609Y-38206809D01*
X55933608Y-38206814D01*
X55899500Y-38334108D01*
X28300000Y-38334108D01*
X28300000Y-37134108D01*
X55899500Y-37134108D01*
X55899500Y-37265892D01*
X55929579Y-37378151D01*
X55933609Y-37393190D01*
X55999496Y-37507309D01*
X55999498Y-37507311D01*
X55999500Y-37507314D01*
X56092686Y-37600500D01*
X56092688Y-37600501D01*
X56092690Y-37600503D01*
X56206810Y-37666390D01*
X56206808Y-37666390D01*
X56206812Y-37666391D01*
X56206814Y-37666392D01*
X56334108Y-37700500D01*
X56334110Y-37700500D01*
X56465890Y-37700500D01*
X56465892Y-37700500D01*
X56593186Y-37666392D01*
X56593188Y-37666390D01*
X56593190Y-37666390D01*
X56707309Y-37600503D01*
X56707309Y-37600502D01*
X56707314Y-37600500D01*
X56800500Y-37507314D01*
X56866392Y-37393186D01*
X56900500Y-37265892D01*
X56900500Y-37134108D01*
X56866392Y-37006814D01*
X56866390Y-37006811D01*
X56866390Y-37006809D01*
X56800503Y-36892690D01*
X56800501Y-36892688D01*
X56800500Y-36892686D01*
X56707314Y-36799500D01*
X56707311Y-36799498D01*
X56707309Y-36799496D01*
X56593189Y-36733609D01*
X56593191Y-36733609D01*
X56543799Y-36720375D01*
X56465892Y-36699500D01*
X56334108Y-36699500D01*
X56256200Y-36720375D01*
X56206809Y-36733609D01*
X56092690Y-36799496D01*
X55999496Y-36892690D01*
X55933609Y-37006809D01*
X55933608Y-37006814D01*
X55899500Y-37134108D01*
X28300000Y-37134108D01*
X28300000Y-35934108D01*
X62299500Y-35934108D01*
X62299500Y-36065892D01*
X62329579Y-36178151D01*
X62333609Y-36193190D01*
X62399496Y-36307309D01*
X62399498Y-36307311D01*
X62399500Y-36307314D01*
X62492686Y-36400500D01*
X62492688Y-36400501D01*
X62492690Y-36400503D01*
X62606810Y-36466390D01*
X62606808Y-36466390D01*
X62606812Y-36466391D01*
X62606814Y-36466392D01*
X62734108Y-36500500D01*
X62734110Y-36500500D01*
X62865890Y-36500500D01*
X62865892Y-36500500D01*
X62993186Y-36466392D01*
X62993188Y-36466390D01*
X62993190Y-36466390D01*
X63107309Y-36400503D01*
X63107309Y-36400502D01*
X63107314Y-36400500D01*
X63200500Y-36307314D01*
X63266392Y-36193186D01*
X63300500Y-36065892D01*
X63300500Y-35934108D01*
X63266392Y-35806814D01*
X63266390Y-35806811D01*
X63266390Y-35806809D01*
X63200503Y-35692690D01*
X63200501Y-35692688D01*
X63200500Y-35692686D01*
X63107314Y-35599500D01*
X63107311Y-35599498D01*
X63107309Y-35599496D01*
X62993189Y-35533609D01*
X62993191Y-35533609D01*
X62943799Y-35520375D01*
X62865892Y-35499500D01*
X62734108Y-35499500D01*
X62656200Y-35520375D01*
X62606809Y-35533609D01*
X62492690Y-35599496D01*
X62399496Y-35692690D01*
X62333609Y-35806809D01*
X62333608Y-35806814D01*
X62299500Y-35934108D01*
X28300000Y-35934108D01*
X28300000Y-35134108D01*
X58299500Y-35134108D01*
X58299500Y-35265892D01*
X58329579Y-35378151D01*
X58333609Y-35393190D01*
X58399496Y-35507309D01*
X58399498Y-35507311D01*
X58399500Y-35507314D01*
X58492686Y-35600500D01*
X58492688Y-35600501D01*
X58492690Y-35600503D01*
X58606810Y-35666390D01*
X58606808Y-35666390D01*
X58606812Y-35666391D01*
X58606814Y-35666392D01*
X58734108Y-35700500D01*
X58734110Y-35700500D01*
X58865890Y-35700500D01*
X58865892Y-35700500D01*
X58993186Y-35666392D01*
X58993188Y-35666390D01*
X58993190Y-35666390D01*
X59107309Y-35600503D01*
X59107309Y-35600502D01*
X59107314Y-35600500D01*
X59200500Y-35507314D01*
X59200503Y-35507309D01*
X59266390Y-35393190D01*
X59266390Y-35393188D01*
X59266392Y-35393186D01*
X59300500Y-35265892D01*
X59300500Y-35134108D01*
X59266392Y-35006814D01*
X59266390Y-35006811D01*
X59266390Y-35006809D01*
X59200503Y-34892690D01*
X59200501Y-34892688D01*
X59200500Y-34892686D01*
X59107314Y-34799500D01*
X59107311Y-34799498D01*
X59107309Y-34799496D01*
X58993189Y-34733609D01*
X58993191Y-34733609D01*
X58943799Y-34720375D01*
X58865892Y-34699500D01*
X58734108Y-34699500D01*
X58656200Y-34720375D01*
X58606809Y-34733609D01*
X58492690Y-34799496D01*
X58399496Y-34892690D01*
X58333609Y-35006809D01*
X58333608Y-35006814D01*
X58299500Y-35134108D01*
X28300000Y-35134108D01*
X28300000Y-31727525D01*
X33449500Y-31727525D01*
X33449500Y-31872474D01*
X33487017Y-32012489D01*
X33559487Y-32138010D01*
X33559489Y-32138012D01*
X33559491Y-32138015D01*
X33661985Y-32240509D01*
X33661987Y-32240510D01*
X33661989Y-32240512D01*
X33787511Y-32312982D01*
X33787512Y-32312982D01*
X33787515Y-32312984D01*
X33927525Y-32350500D01*
X33927526Y-32350500D01*
X34072474Y-32350500D01*
X34072475Y-32350500D01*
X34212485Y-32312984D01*
X34212487Y-32312982D01*
X34212489Y-32312982D01*
X34338010Y-32240512D01*
X34338010Y-32240511D01*
X34338015Y-32240509D01*
X34429998Y-32148525D01*
X34484513Y-32120750D01*
X34544945Y-32130321D01*
X34570000Y-32148524D01*
X34661985Y-32240509D01*
X34661987Y-32240510D01*
X34661989Y-32240512D01*
X34787511Y-32312982D01*
X34787512Y-32312982D01*
X34787515Y-32312984D01*
X34927525Y-32350500D01*
X34927526Y-32350500D01*
X35072474Y-32350500D01*
X35072475Y-32350500D01*
X35212485Y-32312984D01*
X35212487Y-32312982D01*
X35212489Y-32312982D01*
X35338010Y-32240512D01*
X35338010Y-32240511D01*
X35338015Y-32240509D01*
X35440509Y-32138015D01*
X35443053Y-32133609D01*
X35512982Y-32012489D01*
X35512982Y-32012487D01*
X35512984Y-32012485D01*
X35533985Y-31934108D01*
X56099500Y-31934108D01*
X56099500Y-32065892D01*
X56114199Y-32120750D01*
X56133609Y-32193190D01*
X56199496Y-32307309D01*
X56199498Y-32307311D01*
X56199500Y-32307314D01*
X56292686Y-32400500D01*
X56292688Y-32400501D01*
X56292690Y-32400503D01*
X56406810Y-32466390D01*
X56406808Y-32466390D01*
X56406812Y-32466391D01*
X56406814Y-32466392D01*
X56534108Y-32500500D01*
X56534110Y-32500500D01*
X56665890Y-32500500D01*
X56665892Y-32500500D01*
X56793186Y-32466392D01*
X56793188Y-32466390D01*
X56793190Y-32466390D01*
X56907309Y-32400503D01*
X56907309Y-32400502D01*
X56907314Y-32400500D01*
X56957493Y-32350320D01*
X57012007Y-32322544D01*
X57072439Y-32332115D01*
X57115704Y-32375379D01*
X57125276Y-32435811D01*
X57123122Y-32445947D01*
X57117644Y-32466392D01*
X57099500Y-32534108D01*
X57099500Y-32665892D01*
X57129579Y-32778151D01*
X57133609Y-32793190D01*
X57199496Y-32907309D01*
X57199498Y-32907311D01*
X57199500Y-32907314D01*
X57292686Y-33000500D01*
X57292688Y-33000501D01*
X57292690Y-33000503D01*
X57406810Y-33066390D01*
X57406808Y-33066390D01*
X57406812Y-33066391D01*
X57406814Y-33066392D01*
X57534108Y-33100500D01*
X57534110Y-33100500D01*
X57665890Y-33100500D01*
X57665892Y-33100500D01*
X57793186Y-33066392D01*
X57793188Y-33066390D01*
X57793190Y-33066390D01*
X57907309Y-33000503D01*
X57907309Y-33000502D01*
X57907314Y-33000500D01*
X58000500Y-32907314D01*
X58066392Y-32793186D01*
X58100500Y-32665892D01*
X58100500Y-32534108D01*
X58066392Y-32406814D01*
X58066390Y-32406811D01*
X58066390Y-32406809D01*
X58000503Y-32292690D01*
X58000501Y-32292688D01*
X58000500Y-32292686D01*
X57907314Y-32199500D01*
X57907311Y-32199498D01*
X57907309Y-32199496D01*
X57793189Y-32133609D01*
X57793191Y-32133609D01*
X57743799Y-32120375D01*
X57665892Y-32099500D01*
X57534108Y-32099500D01*
X57456200Y-32120375D01*
X57406809Y-32133609D01*
X57292690Y-32199496D01*
X57292684Y-32199500D01*
X57242507Y-32249678D01*
X57187990Y-32277455D01*
X57127558Y-32267883D01*
X57084294Y-32224618D01*
X57074723Y-32164186D01*
X57076872Y-32154070D01*
X57100500Y-32065892D01*
X57100500Y-31934108D01*
X57066392Y-31806814D01*
X57066390Y-31806811D01*
X57066390Y-31806809D01*
X57000503Y-31692690D01*
X57000501Y-31692688D01*
X57000500Y-31692686D01*
X56907314Y-31599500D01*
X56907311Y-31599498D01*
X56907309Y-31599496D01*
X56793189Y-31533609D01*
X56793191Y-31533609D01*
X56743799Y-31520375D01*
X56665892Y-31499500D01*
X56534108Y-31499500D01*
X56456200Y-31520375D01*
X56406809Y-31533609D01*
X56292690Y-31599496D01*
X56199496Y-31692690D01*
X56133609Y-31806809D01*
X56133608Y-31806814D01*
X56099500Y-31934108D01*
X35533985Y-31934108D01*
X35550500Y-31872475D01*
X35550500Y-31727525D01*
X35512984Y-31587515D01*
X35512982Y-31587512D01*
X35512982Y-31587510D01*
X35440512Y-31461989D01*
X35440510Y-31461987D01*
X35440509Y-31461985D01*
X35338015Y-31359491D01*
X35338012Y-31359489D01*
X35338010Y-31359487D01*
X35212488Y-31287017D01*
X35212489Y-31287017D01*
X35182896Y-31279087D01*
X35072475Y-31249500D01*
X34927525Y-31249500D01*
X34865790Y-31266041D01*
X34787510Y-31287017D01*
X34661989Y-31359487D01*
X34661988Y-31359488D01*
X34661985Y-31359490D01*
X34661985Y-31359491D01*
X34570001Y-31451474D01*
X34515487Y-31479250D01*
X34455055Y-31469679D01*
X34429999Y-31451475D01*
X34338015Y-31359491D01*
X34338012Y-31359489D01*
X34338010Y-31359487D01*
X34212488Y-31287017D01*
X34212489Y-31287017D01*
X34182896Y-31279087D01*
X34072475Y-31249500D01*
X33927525Y-31249500D01*
X33865790Y-31266041D01*
X33787510Y-31287017D01*
X33661989Y-31359487D01*
X33559487Y-31461989D01*
X33487017Y-31587510D01*
X33449500Y-31727525D01*
X28300000Y-31727525D01*
X28300000Y-29134108D01*
X56099500Y-29134108D01*
X56099500Y-29265892D01*
X56110598Y-29307309D01*
X56133609Y-29393190D01*
X56199496Y-29507309D01*
X56199498Y-29507311D01*
X56199500Y-29507314D01*
X56292686Y-29600500D01*
X56292688Y-29600501D01*
X56292690Y-29600503D01*
X56406810Y-29666390D01*
X56406808Y-29666390D01*
X56406812Y-29666391D01*
X56406814Y-29666392D01*
X56534108Y-29700500D01*
X56534110Y-29700500D01*
X56665890Y-29700500D01*
X56665892Y-29700500D01*
X56793186Y-29666392D01*
X56793188Y-29666390D01*
X56793190Y-29666390D01*
X56907309Y-29600503D01*
X56907309Y-29600502D01*
X56907314Y-29600500D01*
X56973706Y-29534108D01*
X57499500Y-29534108D01*
X57499500Y-29665892D01*
X57508773Y-29700500D01*
X57533609Y-29793190D01*
X57599496Y-29907309D01*
X57599498Y-29907311D01*
X57599500Y-29907314D01*
X57692686Y-30000500D01*
X57692688Y-30000501D01*
X57692690Y-30000503D01*
X57806810Y-30066390D01*
X57806808Y-30066390D01*
X57806812Y-30066391D01*
X57806814Y-30066392D01*
X57934108Y-30100500D01*
X57934110Y-30100500D01*
X58065890Y-30100500D01*
X58065892Y-30100500D01*
X58193186Y-30066392D01*
X58193188Y-30066390D01*
X58193190Y-30066390D01*
X58307309Y-30000503D01*
X58307309Y-30000502D01*
X58307314Y-30000500D01*
X58400500Y-29907314D01*
X58466392Y-29793186D01*
X58500500Y-29665892D01*
X58500500Y-29534108D01*
X58466392Y-29406814D01*
X58466390Y-29406811D01*
X58466390Y-29406809D01*
X58400503Y-29292690D01*
X58400501Y-29292688D01*
X58400500Y-29292686D01*
X58307314Y-29199500D01*
X58307311Y-29199498D01*
X58307309Y-29199496D01*
X58193189Y-29133609D01*
X58193191Y-29133609D01*
X58143799Y-29120375D01*
X58065892Y-29099500D01*
X57934108Y-29099500D01*
X57856200Y-29120375D01*
X57806809Y-29133609D01*
X57692690Y-29199496D01*
X57599496Y-29292690D01*
X57533609Y-29406809D01*
X57533608Y-29406814D01*
X57499500Y-29534108D01*
X56973706Y-29534108D01*
X57000500Y-29507314D01*
X57009504Y-29491717D01*
X57017357Y-29478118D01*
X57058524Y-29406814D01*
X57066392Y-29393186D01*
X57100500Y-29265892D01*
X57100500Y-29134108D01*
X57066392Y-29006814D01*
X57024415Y-28934108D01*
X59099500Y-28934108D01*
X59099500Y-29065892D01*
X59117644Y-29133608D01*
X59133609Y-29193190D01*
X59199496Y-29307309D01*
X59199498Y-29307311D01*
X59199500Y-29307314D01*
X59292686Y-29400500D01*
X59292688Y-29400501D01*
X59292690Y-29400503D01*
X59406810Y-29466390D01*
X59406808Y-29466390D01*
X59406812Y-29466391D01*
X59406814Y-29466392D01*
X59534108Y-29500500D01*
X59534110Y-29500500D01*
X59665890Y-29500500D01*
X59665892Y-29500500D01*
X59793186Y-29466392D01*
X59793188Y-29466390D01*
X59793190Y-29466390D01*
X59907309Y-29400503D01*
X59907309Y-29400502D01*
X59907314Y-29400500D01*
X60000500Y-29307314D01*
X60066392Y-29193186D01*
X60100500Y-29065892D01*
X60100500Y-28934108D01*
X60066392Y-28806814D01*
X60066390Y-28806811D01*
X60066390Y-28806809D01*
X60000503Y-28692690D01*
X60000501Y-28692688D01*
X60000500Y-28692686D01*
X59907314Y-28599500D01*
X59907311Y-28599498D01*
X59907309Y-28599496D01*
X59793189Y-28533609D01*
X59793191Y-28533609D01*
X59743799Y-28520375D01*
X59665892Y-28499500D01*
X59534108Y-28499500D01*
X59456200Y-28520375D01*
X59406809Y-28533609D01*
X59292690Y-28599496D01*
X59199496Y-28692690D01*
X59133609Y-28806809D01*
X59133608Y-28806814D01*
X59099500Y-28934108D01*
X57024415Y-28934108D01*
X57000500Y-28892686D01*
X56907314Y-28799500D01*
X56907311Y-28799498D01*
X56907309Y-28799496D01*
X56793189Y-28733609D01*
X56793191Y-28733609D01*
X56743799Y-28720375D01*
X56665892Y-28699500D01*
X56534108Y-28699500D01*
X56456200Y-28720375D01*
X56406809Y-28733609D01*
X56292690Y-28799496D01*
X56199496Y-28892690D01*
X56133609Y-29006809D01*
X56133608Y-29006814D01*
X56099500Y-29134108D01*
X28300000Y-29134108D01*
X28300000Y-28000001D01*
X28300000Y-28000000D01*
X28299999Y-28000000D01*
X20599500Y-28000000D01*
X20541309Y-27981093D01*
X20505345Y-27931593D01*
X20500500Y-27901000D01*
X20500500Y-23182773D01*
X20500656Y-23177222D01*
X20517036Y-22885541D01*
X20518279Y-22874509D01*
X20566751Y-22589221D01*
X20569212Y-22578435D01*
X20649328Y-22300347D01*
X20652988Y-22289888D01*
X20763729Y-22022535D01*
X20768544Y-22012540D01*
X20809420Y-21938581D01*
X20908515Y-21759280D01*
X20914412Y-21749895D01*
X21081872Y-21513882D01*
X21088776Y-21505224D01*
X21281617Y-21289435D01*
X21289435Y-21281617D01*
X21505224Y-21088776D01*
X21513882Y-21081872D01*
X21749895Y-20914412D01*
X21759280Y-20908515D01*
X22012546Y-20768541D01*
X22022535Y-20763729D01*
X22289888Y-20652988D01*
X22300347Y-20649328D01*
X22578435Y-20569212D01*
X22589221Y-20566751D01*
X22874516Y-20518278D01*
X22885535Y-20517036D01*
X23177222Y-20500655D01*
X23182773Y-20500500D01*
X23245892Y-20500500D01*
X37401000Y-20500500D01*
X37459191Y-20519407D01*
G37*
%TD.AperFunction*%
%TD*%
M02*
